SplineFontDB: 3.0
FontName: Neuton-Light
FullName: Neuton Light
FamilyName: Neuton
Weight: Light
Copyright: Copyright (c) 2010, 2011 Brian M Zick (http://21326.info/), \nwith Reserved Font Name "Neuton".\n\nThis Font Software is licensed under the SIL Open Font License, Version 1.1.This license is available with a FAQ at: http://scripts.sil.org/OFL\n   WITHOUT WARRANTIES OR CONDITIONS OF ANY KIND, either express or implied.\n   See the License for the specific language governing permissions and\n   limitations under the License.
UComments: "2011-6-6: Created." 
Version: 1.42
ItalicAngle: 0
UnderlinePosition: -361
UnderlineWidth: 0
Ascent: 1638
Descent: 410
LayerCount: 2
Layer: 0 1 "Back"  1
Layer: 1 1 "Fore"  0
NeedsXUIDChange: 1
XUID: [1021 467 2011608612 1910391]
FSType: 0
OS2Version: 1
OS2_WeightWidthSlopeOnly: 0
OS2_UseTypoMetrics: 0
CreationTime: 1307389376
ModificationTime: 1316061318
PfmFamily: 17
TTFWeight: 300
TTFWidth: 5
LineGap: 0
VLineGap: 0
Panose: 2 0 3 3 0 0 0 0 0 0
OS2TypoAscent: 2106
OS2TypoAOffset: 0
OS2TypoDescent: -485
OS2TypoDOffset: 0
OS2TypoLinegap: 0
OS2WinAscent: 2106
OS2WinAOffset: 0
OS2WinDescent: 485
OS2WinDOffset: 0
HheadAscent: 2106
HheadAOffset: 0
HheadDescent: -485
HheadDOffset: 0
OS2Vendor: 'PfEd'
Lookup: 1 0 0 "'sups' Superscript lookup 0"  {"'sups' Superscript lookup 0 subtable" ("superior" ) } ['sups' ('DFLT' <'dflt' > ) ]
MarkAttachClasses: 1
DEI: 91125
TtTable: prep
PUSHW_1
 511
SCANCTRL
PUSHB_1
 4
SCANTYPE
EndTTInstrs

StartChar: A
Encoding: 65 65 0
Width: 1324
VWidth: 0
Flags: HMW
LayerCount: 2
Fore
SplineSet
453 534 m 1,0,-1
 826 534 l 1,1,-1
 646 1060 l 1,2,-1
 453 534 l 1,0,-1
35 0 m 1,3,-1
 43 58 l 1,4,-1
 188 101 l 1,5,-1
 626 1246 l 1,6,-1
 728 1268 l 1,7,-1
 1130 95 l 1,8,-1
 1265 64 l 1,9,-1
 1257 0 l 1,10,-1
 795 0 l 1,11,-1
 805 58 l 1,12,-1
 974 101 l 1,13,-1
 850 455 l 1,14,-1
 425 455 l 1,15,-1
 294 95 l 1,16,-1
 479 63 l 1,17,-1
 469 0 l 1,18,-1
 35 0 l 1,3,-1
EndSplineSet
Colour: ffffff
EndChar

StartChar: AE
Encoding: 198 198 1
Width: 1686
VWidth: 0
Flags: HMW
LayerCount: 2
Fore
SplineSet
532 553 m 1,0,-1
 842 553 l 1,1,-1
 845 1075 l 1,2,-1
 532 553 l 1,0,-1
986 1173 m 1,3,-1
 986 669 l 1,4,-1
 1285 669 l 1,5,-1
 1325 801 l 1,6,-1
 1397 808 l 1,7,-1
 1363 421 l 1,8,-1
 1297 409 l 1,9,-1
 1272 596 l 1,10,-1
 986 596 l 1,11,-1
 986 75 l 1,12,-1
 1500 75 l 1,13,-1
 1586 326 l 1,14,-1
 1646 313 l 1,15,-1
 1616 0 l 1,16,-1
 654 0 l 1,17,-1
 661 58 l 1,18,-1
 841 96 l 1,19,-1
 841 472 l 1,20,-1
 486 472 l 1,21,-1
 259 96 l 1,22,-1
 445 66 l 1,23,-1
 435 2 l 1,24,-1
 0 2 l 1,25,-1
 8 60 l 1,26,-1
 147 102 l 1,27,-1
 791 1154 l 1,28,-1
 567 1187 l 1,29,-1
 576 1244 l 1,30,-1
 1600 1244 l 1,31,-1
 1568 926 l 1,32,-1
 1503 936 l 1,33,-1
 1472 1173 l 1,34,-1
 986 1173 l 1,3,-1
EndSplineSet
Colour: ffffff
EndChar

StartChar: Aogonek
Encoding: 260 260 2
Width: 1324
VWidth: 0
Flags: HMW
LayerCount: 2
Fore
SplineSet
453 534 m 1,0,-1
 826 534 l 1,1,-1
 646 1060 l 1,2,-1
 453 534 l 1,0,-1
1181 -147 m 0,3,4
 1181 -256 1181 -256 1314 -334 c 1,5,-1
 1280 -377 l 1,6,7
 1176 -366 1176 -366 1117 -316 c 128,-1,8
 1058 -266 1058 -266 1058 -211 c 128,-1,9
 1058 -156 1058 -156 1082.5 -111 c 128,-1,10
 1107 -66 1107 -66 1178 0 c 1,11,-1
 795 0 l 1,12,-1
 805 58 l 1,13,-1
 974 101 l 1,14,-1
 850 455 l 1,15,-1
 425 455 l 1,16,-1
 294 95 l 1,17,-1
 479 63 l 1,18,-1
 469 0 l 1,19,-1
 35 0 l 1,20,-1
 43 58 l 1,21,-1
 188 101 l 1,22,-1
 626 1246 l 1,23,-1
 728 1268 l 1,24,-1
 1130 95 l 1,25,-1
 1265 64 l 1,26,-1
 1257 0 l 1,27,-1
 1242 0 l 1,28,29
 1181 -90 1181 -90 1181 -147 c 0,3,4
EndSplineSet
Colour: ffffff
EndChar

StartChar: B
Encoding: 66 66 3
Width: 1135
VWidth: 0
Flags: HMW
LayerCount: 2
Fore
SplineSet
407 685 m 1,0,-1
 691 685 l 1,1,2
 756 719 756 719 797 779.5 c 128,-1,3
 838 840 838 840 838 922 c 0,4,5
 838 1045 838 1045 755.5 1118.5 c 128,-1,6
 673 1192 673 1192 507 1192 c 0,7,8
 439 1192 439 1192 407 1186 c 1,9,-1
 407 685 l 1,0,-1
407 75 m 1,10,-1
 639 75 l 2,11,12
 858 76 858 76 920 248 c 0,13,14
 936 294 936 294 936 345 c 0,15,16
 936 449 936 449 867 533.5 c 128,-1,17
 798 618 798 618 646 618 c 2,18,-1
 407 618 l 1,19,-1
 407 75 l 1,10,-1
566 1257 m 0,20,21
 769 1257 769 1257 876 1173.5 c 128,-1,22
 983 1090 983 1090 983 967 c 0,23,24
 983 875 983 875 930.5 800 c 128,-1,25
 878 725 878 725 777 679 c 1,26,-1
 777 672 l 1,27,28
 922 664 922 664 1004.5 576.5 c 128,-1,29
 1087 489 1087 489 1087 380 c 0,30,31
 1087 180 1087 180 919 78 c 0,32,33
 789 0 789 0 554 0 c 2,34,-1
 82 0 l 1,35,-1
 92 58 l 1,36,-1
 260 96 l 1,37,-1
 260 1129 l 1,38,-1
 89 1155 l 1,39,-1
 98 1211 l 1,40,41
 167 1223 167 1223 217 1229 c 0,42,43
 267 1236 267 1236 318 1242 c 0,44,45
 440 1258 440 1258 566 1257 c 0,20,21
EndSplineSet
Colour: ffffff
EndChar

StartChar: C
Encoding: 67 67 4
Width: 1113
VWidth: 0
Flags: HMW
LayerCount: 2
Fore
SplineSet
108 572.5 m 128,-1,1
 108 690 108 690 130 782 c 128,-1,2
 152 874 152 874 200 962.5 c 128,-1,3
 248 1051 248 1051 316.5 1119 c 128,-1,4
 385 1187 385 1187 487.5 1228.5 c 128,-1,5
 590 1270 590 1270 711 1270 c 0,6,7
 932 1270 932 1270 1062 1171 c 1,8,-1
 1031 836 l 1,9,-1
 963 846 l 1,10,-1
 927 1086 l 1,11,12
 843 1195 843 1195 669.5 1195 c 128,-1,13
 496 1195 496 1195 383.5 1043 c 128,-1,14
 271 891 271 891 271 637 c 128,-1,15
 271 383 271 383 397.5 233.5 c 128,-1,16
 524 84 524 84 727 84 c 0,17,18
 827 84 827 84 920 132 c 128,-1,19
 1013 180 1013 180 1084 252 c 1,20,-1
 1113 195 l 1,21,22
 1050 111 1050 111 926.5 43 c 128,-1,23
 803 -25 803 -25 673 -25 c 128,-1,24
 543 -25 543 -25 443 18 c 128,-1,25
 343 61 343 61 268.5 139.5 c 128,-1,26
 194 218 194 218 151 336.5 c 128,-1,0
 108 455 108 455 108 572.5 c 128,-1,1
EndSplineSet
Colour: ffffff
EndChar

StartChar: Cdotaccent
Encoding: 266 266 5
Width: 1113
VWidth: 0
Flags: HMW
LayerCount: 2
Fore
SplineSet
591 1478.5 m 128,-1,1
 591 1525 591 1525 614 1553 c 128,-1,2
 637 1581 637 1581 675 1581 c 128,-1,3
 713 1581 713 1581 737 1553 c 128,-1,4
 761 1525 761 1525 761 1478 c 128,-1,5
 761 1431 761 1431 738 1402 c 128,-1,6
 715 1373 715 1373 675.5 1373 c 128,-1,7
 636 1373 636 1373 613.5 1402.5 c 128,-1,0
 591 1432 591 1432 591 1478.5 c 128,-1,1
108 572.5 m 128,-1,9
 108 690 108 690 130 782 c 128,-1,10
 152 874 152 874 200 962.5 c 128,-1,11
 248 1051 248 1051 316.5 1119 c 128,-1,12
 385 1187 385 1187 487.5 1228.5 c 128,-1,13
 590 1270 590 1270 711 1270 c 0,14,15
 932 1270 932 1270 1062 1171 c 1,16,-1
 1031 836 l 1,17,-1
 963 846 l 1,18,-1
 927 1086 l 1,19,20
 843 1195 843 1195 669.5 1195 c 128,-1,21
 496 1195 496 1195 383.5 1043 c 128,-1,22
 271 891 271 891 271 637 c 128,-1,23
 271 383 271 383 397.5 233.5 c 128,-1,24
 524 84 524 84 727 84 c 0,25,26
 827 84 827 84 920 132 c 128,-1,27
 1013 180 1013 180 1084 252 c 1,28,-1
 1113 195 l 1,29,30
 1050 111 1050 111 926.5 43 c 128,-1,31
 803 -25 803 -25 673 -25 c 128,-1,32
 543 -25 543 -25 443 18 c 128,-1,33
 343 61 343 61 268.5 139.5 c 128,-1,34
 194 218 194 218 151 336.5 c 128,-1,8
 108 455 108 455 108 572.5 c 128,-1,9
EndSplineSet
Colour: ffffff
EndChar

StartChar: D
Encoding: 68 68 6
Width: 1344
VWidth: 0
Flags: HMW
LayerCount: 2
Fore
SplineSet
409 79 m 1,0,-1
 571 79 l 2,1,2
 831 79 831 79 979 223.5 c 128,-1,3
 1127 368 1127 368 1127 611.5 c 128,-1,4
 1127 855 1127 855 982.5 1018 c 128,-1,5
 838 1181 838 1181 557 1181 c 0,6,7
 450 1181 450 1181 409 1176 c 1,8,-1
 409 79 l 1,0,-1
579.5 1259 m 128,-1,10
 748 1259 748 1259 870 1225 c 0,11,12
 1095 1162 1095 1162 1192.5 1008.5 c 128,-1,13
 1290 855 1290 855 1290 646 c 128,-1,14
 1290 437 1290 437 1170 269.5 c 128,-1,15
 1050 102 1050 102 818 36 c 0,16,17
 694 0 694 0 544 0 c 2,18,-1
 81 0 l 1,19,-1
 92 58 l 1,20,-1
 263 101 l 1,21,-1
 263 1128 l 1,22,-1
 90 1154 l 1,23,-1
 100 1210 l 1,24,9
 411 1259 411 1259 579.5 1259 c 128,-1,10
EndSplineSet
Colour: ffffff
EndChar

StartChar: Dcroat
Encoding: 272 272 7
Width: 1353
VWidth: 0
Flags: HMW
LayerCount: 2
Fore
SplineSet
413 79 m 1,0,-1
 609 79 l 2,1,2
 861 79 861 79 999 226.5 c 128,-1,3
 1137 374 1137 374 1137 599 c 0,4,5
 1137 956 1137 956 878 1106 c 0,6,7
 746 1182 746 1182 561 1182 c 0,8,9
 462 1182 462 1182 413 1176 c 1,10,-1
 413 672 l 1,11,-1
 686 692 l 1,12,-1
 676 616 l 1,13,-1
 413 597 l 1,14,-1
 413 79 l 1,0,-1
571.5 1260 m 128,-1,16
 728 1260 728 1260 836 1237 c 0,17,18
 942 1214 942 1214 1018 1172 c 0,19,20
 1173 1086 1173 1086 1237 950.5 c 128,-1,21
 1301 815 1301 815 1301 685 c 0,22,23
 1300 555 1300 555 1272 460 c 0,24,25
 1212 261 1212 261 1030 130.5 c 128,-1,26
 848 0 848 0 557 0 c 2,27,-1
 86 0 l 1,28,-1
 97 58 l 1,29,-1
 267 101 l 1,30,-1
 267 587 l 1,31,-1
 86 574 l 1,32,-1
 97 650 l 1,33,-1
 267 662 l 1,34,-1
 267 1129 l 1,35,-1
 95 1155 l 1,36,-1
 104 1211 l 1,37,15
 415 1260 415 1260 571.5 1260 c 128,-1,16
EndSplineSet
Colour: ffffff
EndChar

StartChar: E
Encoding: 69 69 8
Width: 1107
VWidth: 0
Flags: HMW
LayerCount: 2
Fore
SplineSet
413 1173 m 1,0,-1
 413 668 l 1,1,-1
 728 668 l 1,2,-1
 768 797 l 1,3,-1
 840 808 l 1,4,-1
 807 419 l 1,5,-1
 741 408 l 1,6,-1
 716 594 l 1,7,-1
 413 594 l 1,8,-1
 413 75 l 1,9,-1
 942 75 l 1,10,-1
 1028 324 l 1,11,-1
 1090 313 l 1,12,-1
 1060 0 l 1,13,-1
 90 0 l 1,14,-1
 96 58 l 1,15,-1
 265 96 l 1,16,-1
 265 1151 l 1,17,-1
 84 1185 l 1,18,-1
 93 1244 l 1,19,-1
 1044 1244 l 1,20,-1
 1013 925 l 1,21,-1
 946 934 l 1,22,-1
 916 1173 l 1,23,-1
 413 1173 l 1,0,-1
EndSplineSet
Colour: ffffff
EndChar

StartChar: Ecircumflex
Encoding: 202 202 9
Width: 1107
VWidth: 0
Flags: HMW
LayerCount: 2
Fore
SplineSet
392 1402 m 1,0,-1
 560 1582 l 1,1,-1
 615 1596 l 1,2,-1
 793 1410 l 1,3,-1
 753 1373 l 1,4,-1
 580 1495 l 1,5,-1
 571 1495 l 1,6,-1
 422 1372 l 1,7,-1
 392 1402 l 1,0,-1
413 1173 m 1,8,-1
 413 668 l 1,9,-1
 728 668 l 1,10,-1
 768 797 l 1,11,-1
 840 808 l 1,12,-1
 807 419 l 1,13,-1
 741 408 l 1,14,-1
 716 594 l 1,15,-1
 413 594 l 1,16,-1
 413 75 l 1,17,-1
 942 75 l 1,18,-1
 1028 324 l 1,19,-1
 1090 313 l 1,20,-1
 1060 0 l 1,21,-1
 90 0 l 1,22,-1
 96 58 l 1,23,-1
 265 96 l 1,24,-1
 265 1151 l 1,25,-1
 84 1185 l 1,26,-1
 93 1244 l 1,27,-1
 1044 1244 l 1,28,-1
 1013 925 l 1,29,-1
 946 934 l 1,30,-1
 916 1173 l 1,31,-1
 413 1173 l 1,8,-1
EndSplineSet
Colour: ffffff
EndChar

StartChar: Eng
Encoding: 330 330 10
Width: 1383
VWidth: 0
Flags: HMW
LayerCount: 2
Fore
SplineSet
1164 151 m 2,0,1
 1164 -192 1164 -192 905 -356 c 1,2,-1
 860 -383 l 1,3,-1
 819 -315 l 1,4,5
 897 -258 897 -258 950 -176.5 c 128,-1,6
 1003 -95 1003 -95 1022 33 c 1,7,-1
 347 1047 l 1,8,-1
 347 90 l 1,9,-1
 531 63 l 1,10,-1
 521 0 l 1,11,-1
 73 0 l 1,12,-1
 79 58 l 1,13,-1
 246 96 l 1,14,-1
 246 1147 l 1,15,-1
 63 1188 l 1,16,-1
 73 1244 l 1,17,-1
 400 1244 l 1,18,-1
 1067 225 l 1,19,-1
 1067 1154 l 1,20,-1
 882 1187 l 1,21,-1
 891 1244 l 1,22,-1
 1341 1244 l 1,23,-1
 1330 1187 l 1,24,-1
 1164 1156 l 1,25,-1
 1164 151 l 2,0,1
EndSplineSet
Colour: ffffff
EndChar

StartChar: Eth
Encoding: 208 208 11
Width: 1348
VWidth: 0
Flags: HMW
LayerCount: 2
Fore
SplineSet
409 79 m 1,0,-1
 605 79 l 2,1,2
 771 79 771 79 892 148 c 0,3,4
 1132 285 1132 285 1132 599 c 0,5,6
 1132 855 1132 855 985 1018.5 c 128,-1,7
 838 1182 838 1182 557 1182 c 0,8,9
 458 1182 458 1182 409 1176 c 1,10,-1
 409 672 l 1,11,-1
 681 692 l 1,12,-1
 671 616 l 1,13,-1
 409 597 l 1,14,-1
 409 79 l 1,0,-1
580 1260 m 0,15,16
 750 1260 750 1260 872 1226 c 0,17,18
 1097 1165 1097 1165 1197 1011 c 128,-1,19
 1297 857 1297 857 1297 650.5 c 0,20,21
 1296 444 1296 444 1174 274 c 128,-1,22
 1052 104 1052 104 823 36 c 0,23,24
 700 0 700 0 553 0 c 2,25,-1
 81 0 l 1,26,-1
 92 58 l 1,27,-1
 263 101 l 1,28,-1
 263 587 l 1,29,-1
 82 574 l 1,30,-1
 92 650 l 1,31,-1
 263 662 l 1,32,-1
 263 1129 l 1,33,-1
 90 1155 l 1,34,-1
 100 1211 l 1,35,36
 411 1260 411 1260 580 1260 c 0,15,16
EndSplineSet
Colour: ffffff
EndChar

StartChar: Euro
Encoding: 8364 8364 12
Width: 1117
VWidth: 0
Flags: HMW
LayerCount: 2
Fore
SplineSet
719 1270 m 0,0,1
 818 1270 818 1270 891 1247.5 c 128,-1,2
 964 1225 964 1225 1035 1171 c 1,3,-1
 1003 836 l 1,4,-1
 938 846 l 1,5,-1
 901 1086 l 1,6,7
 865 1139 865 1139 818.5 1164.5 c 128,-1,8
 772 1190 772 1190 687 1190 c 0,9,10
 526 1190 526 1190 430 1074.5 c 128,-1,11
 334 959 334 959 313 754 c 1,12,-1
 852 754 l 1,13,-1
 835 672 l 1,14,-1
 308 672 l 1,15,16
 307 623 307 623 310 576 c 1,17,-1
 805 576 l 1,18,-1
 788 493 l 1,19,-1
 318 493 l 1,20,21
 346 291 346 291 450 177 c 128,-1,22
 554 63 554 63 715 63 c 0,23,24
 767 63 767 63 822 90.5 c 128,-1,25
 877 118 877 118 917 173 c 1,26,-1
 954 417 l 1,27,-1
 1020 426 l 1,28,-1
 1051 107 l 1,29,30
 956 36 956 36 869.5 5.5 c 128,-1,31
 783 -25 783 -25 664 -25 c 0,32,33
 455 -25 455 -25 316 114.5 c 128,-1,34
 177 254 177 254 148 493 c 1,35,-1
 -26 493 l 1,36,-1
 -20 576 l 1,37,-1
 142 576 l 1,38,39
 141 593 141 593 141 617 c 128,-1,40
 141 641 141 641 143 672 c 1,41,-1
 -17 672 l 1,42,-1
 -12 754 l 1,43,-1
 153 754 l 1,44,45
 200 1025 200 1025 389 1168 c 0,46,47
 524 1270 524 1270 719 1270 c 0,0,1
EndSplineSet
Colour: ffffff
EndChar

StartChar: F
Encoding: 70 70 13
Width: 1123
VWidth: 0
Flags: HMW
LayerCount: 2
Fore
SplineSet
409 1173 m 1,0,-1
 409 652 l 1,1,-1
 720 652 l 1,2,-1
 761 782 l 1,3,-1
 832 792 l 1,4,-1
 803 402 l 1,5,-1
 734 391 l 1,6,-1
 710 579 l 1,7,-1
 409 579 l 1,8,-1
 408 96 l 1,9,-1
 649 68 l 1,10,-1
 637 0 l 1,11,-1
 86 0 l 1,12,-1
 91 58 l 1,13,-1
 260 96 l 1,14,-1
 260 1151 l 1,15,-1
 81 1185 l 1,16,-1
 89 1244 l 1,17,-1
 1039 1244 l 1,18,-1
 1002 923 l 1,19,-1
 934 933 l 1,20,-1
 906 1173 l 1,21,-1
 409 1173 l 1,0,-1
EndSplineSet
Colour: ffffff
EndChar

StartChar: G
Encoding: 71 71 14
Width: 1357
VWidth: 0
Flags: HMW
LayerCount: 2
Fore
SplineSet
735 1262 m 0,0,1
 991 1262 991 1262 1138 1162 c 1,2,-1
 1110 841 l 1,3,-1
 1044 852 l 1,4,-1
 1011 1066 l 1,5,6
 971 1112 971 1112 886.5 1147 c 128,-1,7
 802 1182 802 1182 693 1182 c 0,8,9
 508 1182 508 1182 390 1037 c 128,-1,10
 272 892 272 892 272 640 c 0,11,12
 272 454 272 454 348 310 c 0,13,14
 480 62 480 62 768 61 c 0,15,16
 898 61 898 61 984 119 c 1,17,-1
 985 463 l 1,18,-1
 746 495 l 1,19,-1
 756 556 l 1,20,-1
 1274 556 l 1,21,-1
 1264 499 l 1,22,-1
 1135 467 l 1,23,-1
 1135 79 l 1,24,25
 1038 21 1038 21 926 -2.5 c 128,-1,26
 814 -26 814 -26 659 -26 c 0,27,28
 407 -26 407 -26 257.5 145 c 128,-1,29
 108 316 108 316 108 591 c 0,30,31
 108 773 108 773 189.5 926.5 c 128,-1,32
 271 1080 271 1080 415.5 1171 c 128,-1,33
 560 1262 560 1262 735 1262 c 0,0,1
EndSplineSet
Colour: ffffff
EndChar

StartChar: Gdotaccent
Encoding: 288 288 15
Width: 1357
VWidth: 0
Flags: HMW
LayerCount: 2
Fore
SplineSet
628 1478.5 m 128,-1,1
 628 1525 628 1525 651 1553 c 128,-1,2
 674 1581 674 1581 712 1581 c 128,-1,3
 750 1581 750 1581 774 1553 c 128,-1,4
 798 1525 798 1525 798 1478 c 128,-1,5
 798 1431 798 1431 775 1402 c 128,-1,6
 752 1373 752 1373 712.5 1373 c 128,-1,7
 673 1373 673 1373 650.5 1402.5 c 128,-1,0
 628 1432 628 1432 628 1478.5 c 128,-1,1
735 1262 m 0,8,9
 991 1262 991 1262 1138 1162 c 1,10,-1
 1110 841 l 1,11,-1
 1044 852 l 1,12,-1
 1011 1066 l 1,13,14
 971 1112 971 1112 886.5 1147 c 128,-1,15
 802 1182 802 1182 693 1182 c 0,16,17
 508 1182 508 1182 390 1037 c 128,-1,18
 272 892 272 892 272 640 c 0,19,20
 272 454 272 454 348 310 c 0,21,22
 480 62 480 62 768 61 c 0,23,24
 898 61 898 61 984 119 c 1,25,-1
 985 463 l 1,26,-1
 746 495 l 1,27,-1
 756 556 l 1,28,-1
 1274 556 l 1,29,-1
 1264 499 l 1,30,-1
 1135 467 l 1,31,-1
 1135 79 l 1,32,33
 1038 21 1038 21 926 -2.5 c 128,-1,34
 814 -26 814 -26 659 -26 c 0,35,36
 407 -26 407 -26 257.5 145 c 128,-1,37
 108 316 108 316 108 591 c 0,38,39
 108 773 108 773 189.5 926.5 c 128,-1,40
 271 1080 271 1080 415.5 1171 c 128,-1,41
 560 1262 560 1262 735 1262 c 0,8,9
EndSplineSet
Colour: ffffff
EndChar

StartChar: Germandbls
Encoding: 7838 7838 16
Width: 1284
VWidth: 0
Flags: HMW
LayerCount: 2
Fore
SplineSet
246 758 m 2,0,1
 246 1261 246 1261 725 1261 c 0,2,3
 882 1262 882 1262 1024 1212 c 0,4,5
 1094 1188 1094 1188 1139 1144.5 c 128,-1,6
 1184 1101 1184 1101 1184 1051 c 128,-1,7
 1184 1001 1184 1001 1159.5 975.5 c 128,-1,8
 1135 950 1135 950 1082 932 c 1,9,10
 1024 1153 1024 1153 871 1153 c 0,11,12
 801 1153 801 1153 741 1094.5 c 128,-1,13
 681 1036 681 1036 681 938 c 128,-1,14
 681 840 681 840 766.5 769.5 c 128,-1,15
 852 699 852 699 934 657 c 0,16,17
 1072 587 1072 587 1158.5 509 c 128,-1,18
 1245 431 1245 431 1245 312 c 0,19,20
 1245 159 1245 159 1132 67 c 128,-1,21
 1019 -25 1019 -25 840 -25 c 0,22,23
 734 -25 734 -25 645 14 c 128,-1,24
 556 53 556 53 510 118 c 1,25,-1
 531 388 l 1,26,-1
 603 377 l 1,27,-1
 634 179 l 1,28,29
 664 125 664 125 732.5 91 c 128,-1,30
 801 57 801 57 886.5 57 c 128,-1,31
 972 57 972 57 1035.5 106 c 128,-1,32
 1099 155 1099 155 1099 257 c 0,33,34
 1100 359 1100 359 990 436 c 0,35,36
 942 470 942 470 882 502 c 0,37,38
 726 588 726 588 658 646 c 0,39,40
 548 737 548 737 548 859.5 c 128,-1,41
 548 982 548 982 609.5 1071 c 128,-1,42
 671 1160 671 1160 773 1184 c 1,43,-1
 775 1188 l 1,44,45
 745 1191 745 1191 687 1191 c 0,46,47
 542 1191 542 1191 467 1083 c 128,-1,48
 392 975 392 975 392 780 c 2,49,-1
 392 0 l 1,50,-1
 72 0 l 1,51,-1
 79 57 l 1,52,-1
 246 96 l 1,53,-1
 246 758 l 2,0,1
EndSplineSet
Colour: ffffff
EndChar

StartChar: H
Encoding: 72 72 17
Width: 1446
VWidth: 0
Flags: HMW
LayerCount: 2
Fore
SplineSet
414 672 m 1,0,-1
 1087 672 l 1,1,-1
 1087 1154 l 1,2,-1
 904 1187 l 1,3,-1
 913 1244 l 1,4,-1
 1413 1244 l 1,5,-1
 1404 1187 l 1,6,-1
 1237 1156 l 1,7,-1
 1237 90 l 1,8,-1
 1419 63 l 1,9,-1
 1411 0 l 1,10,-1
 912 0 l 1,11,-1
 922 58 l 1,12,-1
 1087 96 l 1,13,-1
 1087 592 l 1,14,-1
 414 591 l 1,15,-1
 414 90 l 1,16,-1
 600 63 l 1,17,-1
 588 0 l 1,18,-1
 91 0 l 1,19,-1
 97 58 l 1,20,-1
 265 96 l 1,21,-1
 265 1154 l 1,22,-1
 83 1187 l 1,23,-1
 90 1244 l 1,24,-1
 591 1244 l 1,25,-1
 583 1187 l 1,26,-1
 414 1156 l 1,27,-1
 414 672 l 1,0,-1
EndSplineSet
Colour: ffffff
EndChar

StartChar: Hbar
Encoding: 294 294 18
Width: 1450
VWidth: 0
Flags: HMW
LayerCount: 2
Fore
SplineSet
279 1002 m 1,0,-1
 279 1154 l 1,1,-1
 97 1187 l 1,2,-1
 104 1244 l 1,3,-1
 605 1244 l 1,4,-1
 597 1187 l 1,5,-1
 428 1156 l 1,6,-1
 428 990 l 1,7,-1
 1101 990 l 1,8,-1
 1101 1154 l 1,9,-1
 918 1187 l 1,10,-1
 927 1244 l 1,11,-1
 1427 1244 l 1,12,-1
 1418 1187 l 1,13,-1
 1251 1156 l 1,14,-1
 1251 1002 l 1,15,-1
 1377 1002 l 1,16,-1
 1371 908 l 1,17,-1
 1251 908 l 1,18,-1
 1251 90 l 1,19,-1
 1433 63 l 1,20,-1
 1425 0 l 1,21,-1
 926 0 l 1,22,-1
 936 58 l 1,23,-1
 1101 96 l 1,24,-1
 1101 592 l 1,25,-1
 428 591 l 1,26,-1
 428 90 l 1,27,-1
 614 63 l 1,28,-1
 602 0 l 1,29,-1
 105 0 l 1,30,-1
 111 58 l 1,31,-1
 279 96 l 1,32,-1
 279 908 l 1,33,-1
 123 908 l 1,34,-1
 132 1002 l 1,35,-1
 279 1002 l 1,0,-1
1101 920 m 1,36,-1
 428 920 l 1,37,-1
 428 672 l 1,38,-1
 1101 672 l 1,39,-1
 1101 920 l 1,36,-1
EndSplineSet
Colour: ffffff
EndChar

StartChar: I
Encoding: 73 73 19
Width: 674
VWidth: 0
Flags: HMW
LayerCount: 2
Fore
SplineSet
86 1187 m 1,0,-1
 94 1244 l 1,1,-1
 595 1244 l 1,2,-1
 586 1187 l 1,3,-1
 414 1156 l 1,4,-1
 414 90 l 1,5,-1
 601 63 l 1,6,-1
 591 0 l 1,7,-1
 94 0 l 1,8,-1
 101 58 l 1,9,-1
 263 96 l 1,10,-1
 263 1154 l 1,11,-1
 86 1187 l 1,0,-1
EndSplineSet
Colour: ffffff
EndChar

StartChar: J
Encoding: 74 74 20
Width: 614
VWidth: 0
Flags: HMW
LayerCount: 2
Fore
SplineSet
264 209 m 2,0,-1
 264 1154 l 1,1,-1
 82 1187 l 1,2,-1
 90 1244 l 1,3,-1
 593 1244 l 1,4,-1
 584 1187 l 1,5,-1
 414 1156 l 1,6,-1
 412 372 l 1,7,8
 410 145 410 145 368 17 c 0,9,10
 326 -110 326 -110 198 -220 c 0,11,12
 144 -266 144 -266 57 -325 c 1,13,-1
 19 -259 l 1,14,15
 144 -146 144 -146 204 -36 c 128,-1,16
 264 74 264 74 264 209 c 2,0,-1
EndSplineSet
Colour: ffffff
EndChar

StartChar: K
Encoding: 75 75 21
Width: 1225
VWidth: 0
Flags: HMW
LayerCount: 2
Fore
SplineSet
1106 -21 m 0,0,1
 999 -21 999 -21 915 50 c 128,-1,2
 831 121 831 121 733 246 c 2,3,-1
 456 604 l 1,4,-1
 454 623 l 1,5,6
 554 728 554 728 604 790 c 2,7,-1
 893 1151 l 1,8,-1
 728 1187 l 1,9,-1
 734 1244 l 1,10,-1
 1184 1244 l 1,11,-1
 1177 1187 l 1,12,-1
 1012 1152 l 1,13,-1
 601 649 l 1,14,-1
 846 358 l 2,15,16
 974 206 974 206 1040 147 c 128,-1,17
 1106 88 1106 88 1191 68 c 1,18,-1
 1237 58 l 1,19,-1
 1226 2 l 1,20,21
 1160 -21 1160 -21 1106 -21 c 0,0,1
83 1187 m 1,22,-1
 93 1244 l 1,23,-1
 593 1244 l 1,24,-1
 586 1187 l 1,25,-1
 415 1152 l 1,26,-1
 415 95 l 1,27,-1
 602 63 l 1,28,-1
 592 0 l 1,29,-1
 92 0 l 1,30,-1
 100 58 l 1,31,-1
 264 101 l 1,32,-1
 264 1149 l 1,33,-1
 83 1187 l 1,22,-1
EndSplineSet
Colour: ffffff
EndChar

StartChar: L
Encoding: 76 76 22
Width: 1088
VWidth: 0
Flags: HMW
LayerCount: 2
Fore
SplineSet
418 75 m 1,0,-1
 905 75 l 1,1,-1
 1010 341 l 1,2,-1
 1074 331 l 1,3,-1
 1040 0 l 1,4,-1
 94 0 l 1,5,-1
 102 58 l 1,6,-1
 269 96 l 1,7,-1
 269 1148 l 1,8,-1
 89 1186 l 1,9,-1
 98 1244 l 1,10,-1
 600 1244 l 1,11,-1
 593 1186 l 1,12,-1
 418 1152 l 1,13,-1
 418 75 l 1,0,-1
EndSplineSet
Colour: ffffff
EndChar

StartChar: Lslash
Encoding: 321 321 23
Width: 1088
VWidth: 0
Flags: HMW
LayerCount: 2
Fore
SplineSet
418 75 m 1,0,-1
 905 75 l 1,1,-1
 1010 341 l 1,2,-1
 1074 331 l 1,3,-1
 1040 0 l 1,4,-1
 94 0 l 1,5,-1
 102 58 l 1,6,-1
 269 96 l 1,7,-1
 269 591 l 1,8,-1
 99 491 l 1,9,-1
 109 590 l 1,10,-1
 269 683 l 1,11,-1
 269 1148 l 1,12,-1
 89 1186 l 1,13,-1
 98 1244 l 1,14,-1
 600 1244 l 1,15,-1
 593 1186 l 1,16,-1
 418 1152 l 1,17,-1
 418 769 l 1,18,-1
 600 875 l 1,19,-1
 589 780 l 1,20,-1
 418 679 l 1,21,-1
 418 75 l 1,0,-1
EndSplineSet
Colour: ffffff
EndChar

StartChar: M
Encoding: 77 77 24
Width: 1681
VWidth: 0
Flags: HMW
LayerCount: 2
Fore
SplineSet
51 0 m 1,0,-1
 59 54 l 1,1,-1
 227 92 l 1,2,-1
 304 1151 l 1,3,-1
 120 1188 l 1,4,-1
 129 1244 l 1,5,-1
 489 1244 l 1,6,-1
 564 1053 l 1,7,-1
 851 268 l 1,8,-1
 1185 1092 l 1,9,-1
 1252 1244 l 1,10,-1
 1612 1244 l 1,11,-1
 1605 1188 l 1,12,-1
 1434 1154 l 1,13,-1
 1488 86 l 1,14,-1
 1669 60 l 1,15,-1
 1663 0 l 1,16,-1
 1164 0 l 1,17,-1
 1172 54 l 1,18,-1
 1341 92 l 1,19,-1
 1284 1087 l 1,20,-1
 861 55 l 1,21,-1
 772 41 l 1,22,-1
 396 1059 l 1,23,-1
 325 86 l 1,24,-1
 508 60 l 1,25,-1
 498 0 l 1,26,-1
 51 0 l 1,0,-1
EndSplineSet
Colour: ffffff
EndChar

StartChar: N
Encoding: 78 78 25
Width: 1402
VWidth: 0
Flags: HMW
LayerCount: 2
Fore
SplineSet
63 1188 m 1,0,-1
 73 1244 l 1,1,-1
 400 1244 l 1,2,-1
 1067 225 l 1,3,-1
 1067 1154 l 1,4,-1
 882 1187 l 1,5,-1
 891 1244 l 1,6,-1
 1341 1244 l 1,7,-1
 1330 1187 l 1,8,-1
 1164 1156 l 1,9,-1
 1164 -3 l 1,10,-1
 1060 -24 l 1,11,-1
 347 1047 l 1,12,-1
 347 90 l 1,13,-1
 531 63 l 1,14,-1
 521 0 l 1,15,-1
 73 0 l 1,16,-1
 79 58 l 1,17,-1
 246 96 l 1,18,-1
 246 1147 l 1,19,-1
 63 1188 l 1,0,-1
EndSplineSet
Colour: ffffff
EndChar

StartChar: O
Encoding: 79 79 26
Width: 1331
VWidth: 0
Flags: HMW
LayerCount: 2
Fore
SplineSet
278 655 m 0,0,1
 278 551 278 551 305 440.5 c 128,-1,2
 332 330 332 330 383.5 244 c 128,-1,3
 435 158 435 158 518.5 108 c 128,-1,4
 602 58 602 58 698 58 c 128,-1,5
 794 58 794 58 864 88 c 0,6,7
 990 143 990 143 1051.5 279 c 128,-1,8
 1113 415 1113 415 1113 579.5 c 128,-1,9
 1113 744 1113 744 1066 883 c 128,-1,10
 1019 1022 1019 1022 919 1109.5 c 128,-1,11
 819 1197 819 1197 681 1197 c 0,12,13
 434 1198 434 1198 334 974 c 0,14,15
 278 848 278 848 278 655 c 0,0,1
111 627 m 128,-1,17
 111 812 111 812 185.5 960 c 128,-1,18
 260 1108 260 1108 401.5 1191 c 128,-1,19
 543 1274 543 1274 730 1274 c 0,20,21
 859 1274 859 1274 964 1223 c 128,-1,22
 1069 1172 1069 1172 1137 1084 c 0,23,24
 1279 899 1279 899 1279 624 c 0,25,26
 1279 418 1279 418 1175 248 c 0,27,28
 1008 -27 1008 -27 640 -27 c 0,29,30
 500 -27 500 -27 373 60.5 c 128,-1,31
 246 148 246 148 178.5 295 c 128,-1,16
 111 442 111 442 111 627 c 128,-1,17
EndSplineSet
Colour: ffffff
EndChar

StartChar: OE
Encoding: 338 338 27
Width: 1679
VWidth: 0
Flags: HMW
LayerCount: 2
Fore
SplineSet
229 706 m 0,0,1
 228 582 228 582 244 492 c 0,2,3
 276 306 276 306 374.5 180.5 c 128,-1,4
 473 55 473 55 633 55 c 0,5,6
 723 55 723 55 795 93 c 1,7,-1
 795 1139 l 1,8,9
 713 1197 713 1197 599.5 1197 c 128,-1,10
 486 1197 486 1197 399 1128.5 c 128,-1,11
 312 1060 312 1060 270.5 945 c 128,-1,12
 229 830 229 830 229 706 c 0,0,1
64 620 m 0,13,14
 64 916 64 916 221 1095 c 128,-1,15
 378 1274 378 1274 657 1274 c 0,16,17
 762 1274 762 1274 839 1245 c 1,18,-1
 1553 1244 l 1,19,-1
 1522 925 l 1,20,-1
 1456 934 l 1,21,-1
 1426 1173 l 1,22,-1
 945 1173 l 1,23,-1
 945 668 l 1,24,-1
 1238 668 l 1,25,-1
 1278 797 l 1,26,-1
 1351 808 l 1,27,-1
 1317 419 l 1,28,-1
 1250 408 l 1,29,-1
 1225 594 l 1,30,-1
 945 594 l 1,31,-1
 945 75 l 1,32,-1
 1452 75 l 1,33,-1
 1537 324 l 1,34,-1
 1600 313 l 1,35,-1
 1569 0 l 1,36,-1
 792 0 l 1,37,38
 681 -27 681 -27 588 -27 c 0,39,40
 428 -27 428 -27 307.5 59.5 c 128,-1,41
 187 146 187 146 125.5 292 c 128,-1,42
 64 438 64 438 64 620 c 0,13,14
EndSplineSet
Colour: ffffff
EndChar

StartChar: Oslash
Encoding: 216 216 28
Width: 1336
VWidth: 0
Flags: HMW
LayerCount: 2
Fore
SplineSet
118 620 m 0,0,1
 118 812 118 812 192.5 960 c 128,-1,2
 267 1108 267 1108 408 1191 c 128,-1,3
 549 1274 549 1274 736 1274 c 128,-1,4
 923 1274 923 1274 1057 1170 c 1,5,-1
 1105 1233 l 1,6,-1
 1226 1220 l 1,7,-1
 1128 1102 l 1,8,9
 1284 922 1284 922 1284 624 c 0,10,11
 1284 418 1284 418 1184 254 c 0,12,13
 1012 -28 1012 -28 666 -27 c 0,14,15
 487 -27 487 -27 352 80 c 1,16,-1
 292 -5 l 1,17,-1
 176 8 l 1,18,-1
 280 148 l 1,19,20
 118 333 118 333 118 620 c 0,0,1
1119 574 m 0,21,22
 1119 822 1119 822 1022 991 c 1,23,-1
 422 199 l 1,24,25
 536 58 536 58 715 58 c 0,26,27
 957 58 957 58 1062 288 c 0,28,29
 1119 412 1119 412 1119 574 c 0,21,22
687 1197 m 0,30,31
 443 1198 443 1198 340 974 c 0,32,33
 283 850 283 850 283 678 c 0,34,35
 283 423 283 423 384 255 c 1,36,-1
 984 1048 l 1,37,38
 869 1197 869 1197 687 1197 c 0,30,31
EndSplineSet
Colour: ffffff
EndChar

StartChar: P
Encoding: 80 80 29
Width: 1120
VWidth: 0
Flags: HMW
LayerCount: 2
Fore
SplineSet
564 1256 m 0,0,1
 622 1256 622 1256 692 1244 c 0,2,3
 846 1219 846 1219 939 1134.5 c 128,-1,4
 1032 1050 1032 1050 1032 893 c 0,5,6
 1032 776 1032 776 965 682 c 128,-1,7
 898 588 898 588 790 538 c 128,-1,8
 682 488 682 488 558 488 c 0,9,10
 518 488 518 488 484 491 c 1,11,-1
 469 553 l 1,12,-1
 522 555 l 2,13,14
 697 562 697 562 781.5 644 c 128,-1,15
 866 726 866 726 866 863 c 128,-1,16
 866 1000 866 1000 778.5 1096 c 128,-1,17
 691 1192 691 1192 513 1192 c 1,18,-1
 407 1186 l 1,19,-1
 407 94 l 1,20,-1
 642 65 l 1,21,-1
 631 0 l 1,22,-1
 85 0 l 1,23,-1
 93 58 l 1,24,-1
 256 96 l 1,25,-1
 256 1129 l 1,26,-1
 90 1155 l 1,27,-1
 98 1211 l 1,28,29
 107 1212 107 1212 146 1218.5 c 128,-1,30
 185 1225 185 1225 198 1227 c 128,-1,31
 211 1229 211 1229 248 1234 c 128,-1,32
 285 1239 285 1239 304 1241 c 128,-1,33
 323 1243 323 1243 357.5 1246.5 c 128,-1,34
 392 1250 392 1250 417.5 1251.5 c 128,-1,35
 443 1253 443 1253 475.5 1254.5 c 128,-1,36
 508 1256 508 1256 564 1256 c 0,0,1
EndSplineSet
Colour: ffffff
EndChar

StartChar: Q
Encoding: 81 81 30
Width: 1344
VWidth: 0
Flags: HMW
LayerCount: 2
Fore
SplineSet
1129 568 m 0,0,1
 1129 738 1129 738 1076 879.5 c 128,-1,2
 1023 1021 1023 1021 920 1107 c 128,-1,3
 817 1193 817 1193 684 1193 c 0,4,5
 488 1193 488 1193 378 1050.5 c 128,-1,6
 268 908 268 908 268 693 c 128,-1,7
 268 478 268 478 350 318 c 0,8,9
 430 158 430 158 582 88 c 0,10,11
 664 51 664 51 760 47 c 1,12,13
 881 74 881 74 966 154 c 0,14,15
 1129 308 1129 308 1129 568 c 0,0,1
111 621 m 128,-1,17
 111 805 111 805 188 955 c 128,-1,18
 265 1105 265 1105 408 1189.5 c 128,-1,19
 551 1274 551 1274 737 1274 c 0,20,21
 865 1274 865 1274 970 1224 c 0,22,23
 1076 1174 1076 1174 1144 1085 c 0,24,25
 1286 902 1286 902 1286 629 c 0,26,27
 1286 319 1286 319 1071 124 c 0,28,29
 962 25 962 25 816 -9 c 1,30,31
 879 -149 879 -149 974 -209.5 c 128,-1,32
 1069 -270 1069 -270 1252 -294 c 1,33,34
 1249 -338 1249 -338 1242 -355 c 1,35,36
 1179 -385 1179 -385 1078 -385 c 0,37,38
 944 -385 944 -385 848.5 -283 c 128,-1,39
 753 -181 753 -181 733 -21 c 1,40,41
 699 -27 699 -27 661 -27 c 0,42,43
 504 -27 504 -27 377.5 58.5 c 128,-1,44
 251 144 251 144 181 290.5 c 128,-1,16
 111 437 111 437 111 621 c 128,-1,17
EndSplineSet
Colour: ffffff
EndChar

StartChar: R
Encoding: 82 82 31
Width: 1195
VWidth: 0
Flags: HMW
LayerCount: 2
Fore
SplineSet
423 628 m 1,0,-1
 636 628 l 1,1,2
 728 661 728 661 790.5 736 c 128,-1,3
 853 811 853 811 853 925 c 128,-1,4
 853 1039 853 1039 770.5 1114 c 128,-1,5
 688 1189 688 1189 544 1189 c 1,6,-1
 423 1184 l 1,7,-1
 423 628 l 1,0,-1
581.5 1254 m 128,-1,9
 765 1254 765 1254 888 1179.5 c 128,-1,10
 1011 1105 1011 1105 1011 952 c 0,11,12
 1011 847 1011 847 942 756.5 c 128,-1,13
 873 666 873 666 730 605 c 1,14,-1
 730 604 l 1,15,-1
 916 336 l 2,16,17
 1017 191 1017 191 1070 138.5 c 128,-1,18
 1123 86 1123 86 1193 64 c 2,19,-1
 1234 51 l 1,20,-1
 1223 -2 l 1,21,22
 1174 -19 1174 -19 1120 -19 c 0,23,24
 1017 -19 1017 -19 942.5 53 c 128,-1,25
 868 125 868 125 798 245 c 2,26,-1
 617 554 l 1,27,-1
 423 554 l 1,28,-1
 423 96 l 1,29,-1
 623 64 l 1,30,-1
 613 0 l 1,31,-1
 105 0 l 1,32,-1
 114 58 l 1,33,-1
 276 96 l 1,34,-1
 276 1127 l 1,35,-1
 110 1153 l 1,36,-1
 120 1209 l 1,37,8
 398 1254 398 1254 581.5 1254 c 128,-1,9
EndSplineSet
Colour: ffffff
EndChar

StartChar: S
Encoding: 83 83 32
Width: 881
VWidth: 0
Flags: HMW
LayerCount: 2
Fore
SplineSet
460 57 m 128,-1,1
 546 57 546 57 618 113.5 c 128,-1,2
 690 170 690 170 690 276 c 128,-1,3
 690 382 690 382 576 466 c 0,4,5
 525 504 525 504 464 539 c 0,6,7
 303 634 303 634 230 697 c 0,8,9
 116 795 116 795 116 938 c 0,10,11
 116 1040 116 1040 170 1118 c 0,12,13
 275 1270 275 1270 464.5 1270 c 128,-1,14
 654 1270 654 1270 764 1165 c 1,15,-1
 737 869 l 1,16,-1
 664 878 l 1,17,-1
 638 1096 l 1,18,19
 617 1136 617 1136 561 1168 c 128,-1,20
 505 1200 505 1200 434 1200 c 128,-1,21
 363 1200 363 1200 307.5 1147.5 c 128,-1,22
 252 1095 252 1095 252 1017.5 c 128,-1,23
 252 940 252 940 284.5 887.5 c 128,-1,24
 317 835 317 835 368.5 796.5 c 128,-1,25
 420 758 420 758 482 721 c 0,26,27
 658 615 658 615 720 564 c 0,28,29
 836 467 836 467 836.5 321.5 c 128,-1,30
 837 176 837 176 715 75.5 c 128,-1,31
 593 -25 593 -25 413 -25 c 0,32,33
 309 -25 309 -25 220 16 c 128,-1,34
 131 57 131 57 80 119 c 1,35,-1
 102 395 l 1,36,-1
 177 384 l 1,37,-1
 210 181 l 1,38,39
 241 126 241 126 307.5 91.5 c 128,-1,0
 374 57 374 57 460 57 c 128,-1,1
EndSplineSet
Colour: ffffff
EndChar

StartChar: T
Encoding: 84 84 33
Width: 1134
VWidth: 0
Flags: HMW
LayerCount: 2
Fore
SplineSet
655 1173 m 1,0,-1
 655 94 l 1,1,-1
 836 63 l 1,2,-1
 824 0 l 1,3,-1
 327 0 l 1,4,-1
 333 58 l 1,5,-1
 505 96 l 1,6,-1
 505 1173 l 1,7,-1
 180 1173 l 1,8,-1
 135 912 l 1,9,-1
 64 923 l 1,10,-1
 55 1244 l 1,11,-1
 1127 1244 l 1,12,-1
 1093 909 l 1,13,-1
 1020 920 l 1,14,-1
 993 1173 l 1,15,-1
 655 1173 l 1,0,-1
EndSplineSet
Colour: ffffff
EndChar

StartChar: Tbar
Encoding: 358 358 34
Width: 1134
VWidth: 0
Flags: HMW
LayerCount: 2
Fore
SplineSet
512 689 m 1,0,-1
 512 1173 l 1,1,-1
 187 1173 l 1,2,-1
 142 912 l 1,3,-1
 71 923 l 1,4,-1
 62 1244 l 1,5,-1
 1134 1244 l 1,6,-1
 1100 909 l 1,7,-1
 1027 920 l 1,8,-1
 1000 1173 l 1,9,-1
 662 1173 l 1,10,-1
 662 689 l 1,11,-1
 992 689 l 1,12,-1
 986 596 l 1,13,-1
 662 596 l 1,14,-1
 662 94 l 1,15,-1
 843 63 l 1,16,-1
 831 0 l 1,17,-1
 334 0 l 1,18,-1
 340 58 l 1,19,-1
 512 96 l 1,20,-1
 512 596 l 1,21,-1
 181 596 l 1,22,-1
 190 689 l 1,23,-1
 512 689 l 1,0,-1
EndSplineSet
Colour: ffffff
EndChar

StartChar: Thorn
Encoding: 222 222 35
Width: 889
VWidth: 0
Flags: HMW
LayerCount: 2
Fore
SplineSet
868 630.5 m 128,-1,1
 868 769 868 769 777.5 861 c 128,-1,2
 687 953 687 953 516 953 c 1,3,-1
 409 946 l 1,4,-1
 409 94 l 1,5,-1
 644 64 l 1,6,-1
 633 -0 l 1,7,-1
 87 -0 l 1,8,-1
 94 57 l 1,9,-1
 259 96 l 1,10,-1
 259 1154 l 1,11,-1
 81 1187 l 1,12,-1
 89 1244 l 1,13,-1
 590 1244 l 1,14,-1
 582 1187 l 1,15,-1
 409 1156 l 1,16,-1
 409 1021 l 1,17,18
 472 1024 472 1024 558 1024 c 0,19,20
 751 1024 751 1024 892 941 c 128,-1,21
 1033 858 1033 858 1033 660 c 0,22,23
 1033 542 1033 542 968.5 448 c 128,-1,24
 904 354 904 354 798.5 304 c 128,-1,25
 693 254 693 254 569 254 c 0,26,27
 533 254 533 254 485 259 c 1,28,29
 471 301 471 301 471 322 c 1,30,-1
 524 323 l 2,31,32
 698 327 698 327 783 409.5 c 128,-1,0
 868 492 868 492 868 630.5 c 128,-1,1
EndSplineSet
Colour: ffffff
EndChar

StartChar: U
Encoding: 85 85 36
Width: 1371
VWidth: 0
Flags: HMW
LayerCount: 2
Fore
SplineSet
392 503 m 2,0,1
 392 73 392 73 752 73 c 0,2,3
 916 73 916 73 1005.5 172 c 128,-1,4
 1095 271 1095 271 1095 466 c 2,5,-1
 1096 1154 l 1,6,-1
 912 1187 l 1,7,-1
 920 1244 l 1,8,-1
 1371 1244 l 1,9,-1
 1362 1187 l 1,10,-1
 1196 1156 l 1,11,-1
 1191 503 l 2,12,13
 1189 239 1189 239 1075 106 c 128,-1,14
 961 -27 961 -27 711 -27 c 0,15,16
 244 -27 244 -27 244 465 c 2,17,-1
 244 1154 l 1,18,-1
 61 1187 l 1,19,-1
 70 1244 l 1,20,-1
 568 1244 l 1,21,-1
 561 1187 l 1,22,-1
 392 1156 l 1,23,-1
 392 503 l 2,0,1
EndSplineSet
Colour: ffffff
EndChar

StartChar: Uacute
Encoding: 218 218 37
Width: 1371
VWidth: 0
Flags: HMW
LayerCount: 2
Fore
SplineSet
672 1402 m 1,0,-1
 800 1732 l 1,1,-1
 903 1693 l 1,2,-1
 721 1372 l 1,3,-1
 672 1402 l 1,0,-1
392 503 m 2,4,5
 392 73 392 73 752 73 c 0,6,7
 916 73 916 73 1005.5 172 c 128,-1,8
 1095 271 1095 271 1095 466 c 2,9,-1
 1096 1154 l 1,10,-1
 912 1187 l 1,11,-1
 920 1244 l 1,12,-1
 1371 1244 l 1,13,-1
 1362 1187 l 1,14,-1
 1196 1156 l 1,15,-1
 1191 503 l 2,16,17
 1189 239 1189 239 1075 106 c 128,-1,18
 961 -27 961 -27 711 -27 c 0,19,20
 244 -27 244 -27 244 465 c 2,21,-1
 244 1154 l 1,22,-1
 61 1187 l 1,23,-1
 70 1244 l 1,24,-1
 568 1244 l 1,25,-1
 561 1187 l 1,26,-1
 392 1156 l 1,27,-1
 392 503 l 2,4,5
EndSplineSet
Colour: ffffff
EndChar

StartChar: Ugrave
Encoding: 217 217 38
Width: 1371
VWidth: 0
Flags: HMW
LayerCount: 2
Fore
SplineSet
535 1701 m 1,0,-1
 639 1738 l 1,1,-1
 772 1403 l 1,2,-1
 721 1372 l 1,3,-1
 535 1701 l 1,0,-1
392 503 m 2,4,5
 392 73 392 73 752 73 c 0,6,7
 916 73 916 73 1005.5 172 c 128,-1,8
 1095 271 1095 271 1095 466 c 2,9,-1
 1096 1154 l 1,10,-1
 912 1187 l 1,11,-1
 920 1244 l 1,12,-1
 1371 1244 l 1,13,-1
 1362 1187 l 1,14,-1
 1196 1156 l 1,15,-1
 1191 503 l 2,16,17
 1189 239 1189 239 1075 106 c 128,-1,18
 961 -27 961 -27 711 -27 c 0,19,20
 244 -27 244 -27 244 465 c 2,21,-1
 244 1154 l 1,22,-1
 61 1187 l 1,23,-1
 70 1244 l 1,24,-1
 568 1244 l 1,25,-1
 561 1187 l 1,26,-1
 392 1156 l 1,27,-1
 392 503 l 2,4,5
EndSplineSet
Colour: ffffff
EndChar

StartChar: Umacron
Encoding: 362 362 39
Width: 1371
VWidth: 0
Flags: HMW
LayerCount: 2
Fore
SplineSet
494 1373 m 1,0,-1
 505 1449 l 1,1,-1
 946 1449 l 1,2,-1
 936 1373 l 1,3,-1
 494 1373 l 1,0,-1
392 503 m 2,4,5
 392 73 392 73 752 73 c 0,6,7
 916 73 916 73 1005.5 172 c 128,-1,8
 1095 271 1095 271 1095 466 c 2,9,-1
 1096 1154 l 1,10,-1
 912 1187 l 1,11,-1
 920 1244 l 1,12,-1
 1371 1244 l 1,13,-1
 1362 1187 l 1,14,-1
 1196 1156 l 1,15,-1
 1191 503 l 2,16,17
 1189 239 1189 239 1075 106 c 128,-1,18
 961 -27 961 -27 711 -27 c 0,19,20
 244 -27 244 -27 244 465 c 2,21,-1
 244 1154 l 1,22,-1
 61 1187 l 1,23,-1
 70 1244 l 1,24,-1
 568 1244 l 1,25,-1
 561 1187 l 1,26,-1
 392 1156 l 1,27,-1
 392 503 l 2,4,5
EndSplineSet
Colour: ffffff
EndChar

StartChar: V
Encoding: 86 86 40
Width: 1258
VWidth: 0
Flags: HMW
LayerCount: 2
Fore
SplineSet
38 1188 m 1,0,-1
 45 1244 l 1,1,-1
 527 1244 l 1,2,-1
 520 1188 l 1,3,-1
 351 1156 l 1,4,-1
 681 206 l 1,5,-1
 1029 1152 l 1,6,-1
 844 1188 l 1,7,-1
 850 1244 l 1,8,-1
 1272 1244 l 1,9,-1
 1267 1188 l 1,10,-1
 1137 1156 l 1,11,-1
 703 -4 l 1,12,-1
 601 -25 l 1,13,-1
 185 1152 l 1,14,-1
 38 1188 l 1,0,-1
EndSplineSet
Colour: ffffff
EndChar

StartChar: W
Encoding: 87 87 41
Width: 1873
VWidth: 0
Flags: HMW
LayerCount: 2
Fore
SplineSet
43 1188 m 1,0,-1
 51 1244 l 1,1,-1
 505 1244 l 1,2,-1
 496 1190 l 1,3,-1
 330 1156 l 1,4,-1
 594 225 l 1,5,-1
 884 1199 l 1,6,-1
 995 1214 l 1,7,-1
 1261 233 l 1,8,-1
 1553 1151 l 1,9,-1
 1369 1189 l 1,10,-1
 1377 1244 l 1,11,-1
 1794 1244 l 1,12,-1
 1786 1188 l 1,13,-1
 1666 1154 l 1,14,-1
 1286 -4 l 1,15,-1
 1177 -25 l 1,16,-1
 912 971 l 1,17,-1
 622 -4 l 1,18,-1
 505 -24 l 1,19,-1
 174 1153 l 1,20,-1
 43 1188 l 1,0,-1
EndSplineSet
Colour: ffffff
EndChar

StartChar: X
Encoding: 88 88 42
Width: 1195
VWidth: 0
Flags: HMW
LayerCount: 2
Fore
SplineSet
-2 0 m 1,0,-1
 7 56 l 1,1,-1
 133 92 l 1,2,-1
 524 620 l 1,3,-1
 160 1154 l 1,4,-1
 23 1189 l 1,5,-1
 31 1244 l 1,6,-1
 497 1244 l 1,7,-1
 490 1189 l 1,8,-1
 334 1152 l 1,9,-1
 623 727 l 1,10,-1
 937 1155 l 1,11,-1
 766 1187 l 1,12,-1
 775 1244 l 1,13,-1
 1177 1244 l 1,14,-1
 1173 1188 l 1,15,-1
 1047 1159 l 1,16,-1
 679 654 l 1,17,-1
 1057 84 l 1,18,-1
 1193 58 l 1,19,-1
 1183 0 l 1,20,-1
 718 0 l 1,21,-1
 727 51 l 1,22,-1
 889 90 l 1,23,-1
 580 550 l 1,24,-1
 247 89 l 1,25,-1
 413 62 l 1,26,-1
 401 0 l 1,27,-1
 -2 0 l 1,0,-1
EndSplineSet
Colour: ffffff
EndChar

StartChar: Y
Encoding: 89 89 43
Width: 1113
VWidth: 0
Flags: HMW
LayerCount: 2
Fore
SplineSet
-9 1188 m 1,0,-1
 -0 1244 l 1,1,-1
 463 1244 l 1,2,-1
 455 1188 l 1,3,-1
 292 1156 l 1,4,-1
 588 605 l 1,5,-1
 875 1152 l 1,6,-1
 691 1188 l 1,7,-1
 697 1244 l 1,8,-1
 1114 1244 l 1,9,-1
 1108 1188 l 1,10,-1
 981 1156 l 1,11,-1
 634 509 l 1,12,-1
 634 91 l 1,13,-1
 806 63 l 1,14,-1
 797 0 l 1,15,-1
 314 0 l 1,16,-1
 322 58 l 1,17,-1
 484 96 l 1,18,-1
 484 497 l 1,19,-1
 130 1152 l 1,20,-1
 -9 1188 l 1,0,-1
EndSplineSet
Colour: ffffff
EndChar

StartChar: Yacute
Encoding: 221 221 44
Width: 1113
VWidth: 0
Flags: HMW
LayerCount: 2
Fore
SplineSet
529 1402 m 1,0,-1
 657 1732 l 1,1,-1
 760 1693 l 1,2,-1
 578 1372 l 1,3,-1
 529 1402 l 1,0,-1
-9 1188 m 1,4,-1
 0 1244 l 1,5,-1
 463 1244 l 1,6,-1
 455 1188 l 1,7,-1
 292 1156 l 1,8,-1
 588 605 l 1,9,-1
 875 1152 l 1,10,-1
 691 1188 l 1,11,-1
 697 1244 l 1,12,-1
 1114 1244 l 1,13,-1
 1108 1188 l 1,14,-1
 981 1156 l 1,15,-1
 634 509 l 1,16,-1
 634 91 l 1,17,-1
 806 63 l 1,18,-1
 797 0 l 1,19,-1
 314 0 l 1,20,-1
 322 58 l 1,21,-1
 484 96 l 1,22,-1
 484 497 l 1,23,-1
 130 1152 l 1,24,-1
 -9 1188 l 1,4,-1
EndSplineSet
Colour: ffffff
EndChar

StartChar: Ycircumflex
Encoding: 374 374 45
Width: 1113
VWidth: 0
Flags: HMW
LayerCount: 2
Fore
SplineSet
364 1402 m 1,0,-1
 532 1582 l 1,1,-1
 587 1596 l 1,2,-1
 765 1410 l 1,3,-1
 725 1373 l 1,4,-1
 552 1495 l 1,5,-1
 543 1495 l 1,6,-1
 394 1372 l 1,7,-1
 364 1402 l 1,0,-1
-9 1188 m 1,8,-1
 0 1244 l 1,9,-1
 463 1244 l 1,10,-1
 455 1188 l 1,11,-1
 292 1156 l 1,12,-1
 588 605 l 1,13,-1
 875 1152 l 1,14,-1
 691 1188 l 1,15,-1
 697 1244 l 1,16,-1
 1114 1244 l 1,17,-1
 1108 1188 l 1,18,-1
 981 1156 l 1,19,-1
 634 509 l 1,20,-1
 634 91 l 1,21,-1
 806 63 l 1,22,-1
 797 0 l 1,23,-1
 314 0 l 1,24,-1
 322 58 l 1,25,-1
 484 96 l 1,26,-1
 484 497 l 1,27,-1
 130 1152 l 1,28,-1
 -9 1188 l 1,8,-1
EndSplineSet
Colour: ffffff
EndChar

StartChar: Ydieresis
Encoding: 376 376 46
Width: 1113
VWidth: 0
Flags: HMW
LayerCount: 2
Fore
SplineSet
628 1454.5 m 128,-1,1
 628 1491 628 1491 647 1511.5 c 128,-1,2
 666 1532 666 1532 697.5 1532 c 128,-1,3
 729 1532 729 1532 749.5 1511.5 c 128,-1,4
 770 1491 770 1491 770 1454 c 128,-1,5
 770 1417 770 1417 750 1395 c 128,-1,6
 730 1373 730 1373 697.5 1373 c 128,-1,7
 665 1373 665 1373 646.5 1395.5 c 128,-1,0
 628 1418 628 1418 628 1454.5 c 128,-1,1
360 1454.5 m 128,-1,9
 360 1491 360 1491 379 1511.5 c 128,-1,10
 398 1532 398 1532 429.5 1532 c 128,-1,11
 461 1532 461 1532 481 1511.5 c 128,-1,12
 501 1491 501 1491 501 1454 c 128,-1,13
 501 1417 501 1417 481.5 1395 c 128,-1,14
 462 1373 462 1373 430 1373 c 128,-1,15
 398 1373 398 1373 379 1395.5 c 128,-1,8
 360 1418 360 1418 360 1454.5 c 128,-1,9
-9 1188 m 1,16,-1
 0 1244 l 1,17,-1
 463 1244 l 1,18,-1
 455 1188 l 1,19,-1
 292 1156 l 1,20,-1
 588 605 l 1,21,-1
 875 1152 l 1,22,-1
 691 1188 l 1,23,-1
 697 1244 l 1,24,-1
 1114 1244 l 1,25,-1
 1108 1188 l 1,26,-1
 981 1156 l 1,27,-1
 634 509 l 1,28,-1
 634 91 l 1,29,-1
 806 63 l 1,30,-1
 797 0 l 1,31,-1
 314 0 l 1,32,-1
 322 58 l 1,33,-1
 484 96 l 1,34,-1
 484 497 l 1,35,-1
 130 1152 l 1,36,-1
 -9 1188 l 1,16,-1
EndSplineSet
Colour: ffffff
EndChar

StartChar: Z
Encoding: 90 90 47
Width: 1051
VWidth: 0
Flags: HMW
LayerCount: 2
Fore
SplineSet
45 71 m 1,0,-1
 819 1170 l 1,1,-1
 232 1170 l 1,2,-1
 154 903 l 1,3,-1
 90 918 l 1,4,-1
 99 1244 l 1,5,-1
 1002 1244 l 1,6,-1
 1004 1188 l 1,7,-1
 219 79 l 1,8,-1
 837 79 l 1,9,-1
 952 347 l 1,10,-1
 1021 336 l 1,11,-1
 973 0 l 1,12,-1
 52 0 l 1,13,-1
 45 71 l 1,0,-1
EndSplineSet
Colour: ffffff
EndChar

StartChar: a
Encoding: 97 97 48
Width: 847
VWidth: 0
Flags: HMW
LayerCount: 2
Fore
SplineSet
230 207 m 0,0,1
 230 154 230 154 264.5 112.5 c 128,-1,2
 299 71 299 71 356.5 71 c 128,-1,3
 414 71 414 71 467.5 104.5 c 128,-1,4
 521 138 521 138 554 186 c 1,5,-1
 554 430 l 1,6,7
 390 402 390 402 310 350.5 c 128,-1,8
 230 299 230 299 230 207 c 0,0,1
93 169 m 0,9,10
 93 293 93 293 206 376.5 c 128,-1,11
 319 460 319 460 554 481 c 1,12,-1
 554 529 l 2,13,14
 554 670 554 670 514 743 c 128,-1,15
 474 816 474 816 371 816 c 0,16,17
 315 816 315 816 294 795 c 128,-1,18
 273 774 273 774 262 738 c 0,19,20
 251 702 251 702 237 601 c 1,21,22
 127 601 127 601 127 685 c 0,23,24
 127 736 127 736 177.5 784 c 128,-1,25
 228 832 228 832 301.5 860.5 c 128,-1,26
 375 889 375 889 443 889 c 0,27,28
 567 889 567 889 624 814.5 c 128,-1,29
 681 740 681 740 681 581 c 2,30,-1
 681 230 l 2,31,32
 681 153 681 153 699.5 118 c 128,-1,33
 718 83 718 83 781 73 c 1,34,-1
 839 62 l 1,35,-1
 830 2 l 1,36,37
 745 -18 745 -18 693.5 -18 c 128,-1,38
 642 -18 642 -18 606.5 21.5 c 128,-1,39
 571 61 571 61 571 116 c 2,40,-1
 571 131 l 1,41,-1
 563 131 l 1,42,43
 540 76 540 76 468.5 25.5 c 128,-1,44
 397 -25 397 -25 304 -25 c 128,-1,45
 211 -25 211 -25 152 27.5 c 128,-1,46
 93 80 93 80 93 169 c 0,9,10
EndSplineSet
Colour: ffffff
EndChar

StartChar: acute
Encoding: 180 180 49
Width: 567
VWidth: 0
Flags: HMW
LayerCount: 2
Fore
SplineSet
199 1376 m 1,0,-1
 327 1706 l 1,1,-1
 430 1667 l 1,2,-1
 248 1346 l 1,3,-1
 199 1376 l 1,0,-1
EndSplineSet
Colour: ffffff
EndChar

StartChar: ae
Encoding: 230 230 50
Width: 1248
VWidth: 0
Flags: HMW
LayerCount: 2
Fore
SplineSet
1038 630.5 m 128,-1,1
 1038 700 1038 700 994 754.5 c 128,-1,2
 950 809 950 809 873 809 c 128,-1,3
 796 809 796 809 739 723.5 c 128,-1,4
 682 638 682 638 678 492 c 1,5,-1
 1028 529 l 1,6,0
 1038 561 1038 561 1038 630.5 c 128,-1,1
228 200 m 0,7,8
 228 138 228 138 261.5 100 c 128,-1,9
 295 62 295 62 361 62 c 128,-1,10
 427 62 427 62 490.5 118.5 c 128,-1,11
 554 175 554 175 554 255 c 2,12,-1
 554 416 l 1,13,14
 381 390 381 390 304.5 341.5 c 128,-1,15
 228 293 228 293 228 200 c 0,7,8
304.5 -26 m 128,-1,17
 209 -26 209 -26 150.5 24.5 c 128,-1,18
 92 75 92 75 92 163 c 0,19,20
 92 285 92 285 198 362 c 128,-1,21
 304 439 304 439 554 476 c 1,22,-1
 554 539 l 2,23,24
 554 678 554 678 515.5 745.5 c 128,-1,25
 477 813 477 813 389 813 c 128,-1,26
 301 813 301 813 275 758 c 128,-1,27
 249 703 249 703 238 609 c 1,28,29
 130 609 130 609 130 693 c 0,30,31
 130 769 130 769 231.5 828.5 c 128,-1,32
 333 888 333 888 443 888 c 0,33,34
 610 888 610 888 651 748 c 1,35,36
 757 886 757 886 928 886 c 0,37,38
 1042 886 1042 886 1110.5 808.5 c 128,-1,39
 1179 731 1179 731 1179 578 c 0,40,41
 1179 518 1179 518 1161 448 c 1,42,-1
 678 428 l 1,43,44
 682 218 682 218 804 122 c 0,45,46
 870 70 870 70 971.5 70 c 128,-1,47
 1073 70 1073 70 1185 146 c 1,48,-1
 1204 104 l 1,49,50
 1089 -30 1089 -30 895 -30 c 0,51,52
 809 -30 809 -30 714 26.5 c 128,-1,53
 619 83 619 83 592 172 c 1,54,55
 568 94 568 94 484 34 c 128,-1,16
 400 -26 400 -26 304.5 -26 c 128,-1,17
EndSplineSet
Colour: ffffff
EndChar

StartChar: agrave
Encoding: 224 224 51
Width: 847
VWidth: 0
Flags: HMW
LayerCount: 2
Fore
SplineSet
258 1319 m 1,0,-1
 362 1356 l 1,1,-1
 495 1021 l 1,2,-1
 444 990 l 1,3,-1
 258 1319 l 1,0,-1
230 207 m 0,4,5
 230 154 230 154 264.5 112.5 c 128,-1,6
 299 71 299 71 356.5 71 c 128,-1,7
 414 71 414 71 467.5 104.5 c 128,-1,8
 521 138 521 138 554 186 c 1,9,-1
 554 430 l 1,10,11
 390 402 390 402 310 350.5 c 128,-1,12
 230 299 230 299 230 207 c 0,4,5
93 169 m 0,13,14
 93 293 93 293 206 376.5 c 128,-1,15
 319 460 319 460 554 481 c 1,16,-1
 554 529 l 2,17,18
 554 670 554 670 514 743 c 128,-1,19
 474 816 474 816 371 816 c 0,20,21
 315 816 315 816 294 795 c 128,-1,22
 273 774 273 774 262 738 c 0,23,24
 251 702 251 702 237 601 c 1,25,26
 127 601 127 601 127 685 c 0,27,28
 127 736 127 736 177.5 784 c 128,-1,29
 228 832 228 832 301.5 860.5 c 128,-1,30
 375 889 375 889 443 889 c 0,31,32
 567 889 567 889 624 814.5 c 128,-1,33
 681 740 681 740 681 581 c 2,34,-1
 681 230 l 2,35,36
 681 153 681 153 699.5 118 c 128,-1,37
 718 83 718 83 781 73 c 1,38,-1
 839 62 l 1,39,-1
 830 2 l 1,40,41
 745 -18 745 -18 693.5 -18 c 128,-1,42
 642 -18 642 -18 606.5 21.5 c 128,-1,43
 571 61 571 61 571 116 c 2,44,-1
 571 131 l 1,45,-1
 563 131 l 1,46,47
 540 76 540 76 468.5 25.5 c 128,-1,48
 397 -25 397 -25 304 -25 c 128,-1,49
 211 -25 211 -25 152 27.5 c 128,-1,50
 93 80 93 80 93 169 c 0,13,14
EndSplineSet
Colour: ffffff
EndChar

StartChar: ampersand
Encoding: 38 38 52
Width: 1282
VWidth: 0
Flags: HMW
LayerCount: 2
Fore
SplineSet
331 1025 m 0,0,1
 331 908 331 908 483 752 c 1,2,3
 564 810 564 810 604.5 864 c 128,-1,4
 645 918 645 918 645 999.5 c 128,-1,5
 645 1081 645 1081 601.5 1140.5 c 128,-1,6
 558 1200 558 1200 486.5 1200 c 128,-1,7
 415 1200 415 1200 373 1148 c 128,-1,8
 331 1096 331 1096 331 1025 c 0,0,1
206 328 m 128,-1,10
 206 231 206 231 265 158.5 c 128,-1,11
 324 86 324 86 424 86 c 0,12,13
 585 86 585 86 703 286 c 1,14,-1
 405 626 l 1,15,-1
 395 627 l 1,16,17
 308 564 308 564 257 494.5 c 128,-1,9
 206 425 206 425 206 328 c 128,-1,10
211 963.5 m 128,-1,19
 211 1093 211 1093 299.5 1182.5 c 128,-1,20
 388 1272 388 1272 511.5 1272 c 128,-1,21
 635 1272 635 1272 707.5 1206 c 128,-1,22
 780 1140 780 1140 780 1016 c 0,23,24
 780 930 780 930 717.5 854 c 128,-1,25
 655 778 655 778 538 700 c 1,26,-1
 538 693 l 1,27,-1
 781 417 l 1,28,-1
 964 720 l 1,29,-1
 807 757 l 1,30,-1
 813 812 l 1,31,-1
 1238 812 l 1,32,-1
 1230 757 l 1,33,-1
 1061 723 l 1,34,-1
 842 356 l 1,35,36
 1053 107 1053 107 1186 64 c 1,37,-1
 1225 52 l 1,38,-1
 1215 -2 l 1,39,40
 1164 -20 1164 -20 1109 -20 c 0,41,42
 985 -20 985 -20 857 122 c 2,43,-1
 762 227 l 1,44,45
 634 42 634 42 500 -1 c 0,46,47
 440 -20 440 -20 372 -20 c 0,48,49
 230 -20 230 -20 143 63.5 c 128,-1,50
 56 147 56 147 56 273 c 128,-1,51
 56 399 56 399 134 497.5 c 128,-1,52
 212 596 212 596 353 687 c 1,53,18
 211 834 211 834 211 963.5 c 128,-1,19
EndSplineSet
Colour: ffffff
EndChar

StartChar: asciicircum
Encoding: 94 94 53
Width: 733
VWidth: 0
Flags: HMW
LayerCount: 2
Fore
SplineSet
49 826 m 1,0,-1
 338 1238 l 1,1,-1
 394 1251 l 1,2,-1
 688 824 l 1,3,-1
 640 792 l 1,4,-1
 363 1098 l 1,5,-1
 353 1098 l 1,6,-1
 91 797 l 1,7,-1
 49 826 l 1,0,-1
EndSplineSet
Colour: ffffff
EndChar

StartChar: asciitilde
Encoding: 126 126 54
Width: 947
VWidth: 0
Flags: HMW
LayerCount: 2
Fore
SplineSet
83 417 m 1,0,1
 88 440 88 440 110.5 485.5 c 128,-1,2
 133 531 133 531 155.5 558 c 128,-1,3
 178 585 178 585 216.5 603.5 c 128,-1,4
 255 622 255 622 298 613 c 1,5,-1
 697 542 l 1,6,7
 728 535 728 535 757 555.5 c 128,-1,8
 786 576 786 576 800 600 c 2,9,-1
 814 624 l 1,10,-1
 869 623 l 1,11,12
 866 614 866 614 861 598 c 128,-1,13
 856 582 856 582 836 544 c 128,-1,14
 816 506 816 506 793 478 c 128,-1,15
 770 450 770 450 730.5 431.5 c 128,-1,16
 691 413 691 413 647 422 c 1,17,-1
 248 493 l 1,18,19
 220 500 220 500 190 478 c 0,20,21
 160 456 160 456 145 430 c 2,22,-1
 130 404 l 1,23,-1
 83 417 l 1,0,1
EndSplineSet
Colour: ffffff
EndChar

StartChar: asterisk
Encoding: 42 42 55
Width: 593
VWidth: 0
Flags: HMW
LayerCount: 2
Fore
SplineSet
351 1291 m 1,0,-1
 474 1280 l 1,1,-1
 449 981 l 1,2,-1
 739 1106 l 1,3,-1
 766 990 l 1,4,-1
 475 923 l 1,5,-1
 687 686 l 1,6,-1
 582 623 l 1,7,-1
 426 882 l 1,8,-1
 265 604 l 1,9,-1
 172 685 l 1,10,-1
 370 912 l 1,11,-1
 60 978 l 1,12,-1
 108 1092 l 1,13,-1
 384 974 l 1,14,-1
 351 1291 l 1,0,-1
EndSplineSet
Colour: ffffff
EndChar

StartChar: at
Encoding: 64 64 56
Width: 1362
VWidth: 0
Flags: HMW
LayerCount: 2
Fore
SplineSet
512 369 m 0,0,1
 512 160 512 160 596 160 c 0,2,3
 634 160 634 160 685 188 c 128,-1,4
 736 216 736 216 764 248 c 1,5,-1
 818 703 l 1,6,7
 776 714 776 714 716 714 c 0,8,9
 628 714 628 714 570 611.5 c 128,-1,10
 512 509 512 509 512 369 c 0,0,1
789 1045 m 0,11,12
 929 1045 929 1045 1046.5 987 c 128,-1,13
 1164 929 1164 929 1234 822.5 c 128,-1,14
 1304 716 1304 716 1304 598.5 c 128,-1,15
 1304 481 1304 481 1268.5 387.5 c 128,-1,16
 1233 294 1233 294 1171.5 223.5 c 128,-1,17
 1110 153 1110 153 1021.5 111 c 128,-1,18
 933 69 933 69 833 69 c 0,19,20
 756 69 756 69 762 187 c 1,21,-1
 753 187 l 1,22,23
 720 138 720 138 663 99 c 128,-1,24
 606 60 606 60 541.5 60 c 128,-1,25
 477 60 477 60 433 129.5 c 128,-1,26
 389 199 389 199 389 313 c 0,27,28
 389 533 389 533 513 661.5 c 128,-1,29
 637 790 637 790 770 790 c 0,30,31
 846 790 846 790 922 773 c 1,32,-1
 940 752 l 1,33,-1
 898 385 l 1,34,35
 877 231 877 231 879.5 191.5 c 128,-1,36
 882 152 882 152 910 152 c 0,37,38
 1027 152 1027 152 1111.5 264 c 128,-1,39
 1196 376 1196 376 1196 525 c 128,-1,40
 1196 674 1196 674 1134 772.5 c 128,-1,41
 1072 871 1072 871 971.5 921.5 c 128,-1,42
 871 972 871 972 733.5 972 c 128,-1,43
 596 972 596 972 471 888.5 c 128,-1,44
 346 805 346 805 278 664 c 128,-1,45
 210 523 210 523 210 355 c 0,46,47
 210 125 210 125 348 -12 c 128,-1,48
 486 -149 486 -149 729 -149 c 0,49,50
 830 -149 830 -149 937 -109 c 128,-1,51
 1044 -69 1044 -69 1088 -31 c 1,52,-1
 1117 -82 l 1,53,54
 1016 -149 1016 -149 960 -173 c 0,55,56
 838 -227 838 -227 718 -227 c 0,57,58
 598 -226 598 -226 512 -206 c 0,59,60
 330 -163 330 -163 209 -28.5 c 128,-1,61
 88 106 88 106 88 312.5 c 128,-1,62
 88 519 88 519 173.5 681.5 c 128,-1,63
 259 844 259 844 421 944.5 c 128,-1,64
 583 1045 583 1045 789 1045 c 0,11,12
EndSplineSet
Colour: ffffff
EndChar

StartChar: b
Encoding: 98 98 57
Width: 961
VWidth: 0
Flags: HMW
LayerCount: 2
Fore
SplineSet
508 62 m 0,0,1
 609 62 609 62 686 154.5 c 128,-1,2
 763 247 763 247 763 406 c 0,3,4
 764 678 764 678 634 756 c 0,5,6
 586 786 586 786 520 785 c 0,7,8
 410 785 410 785 300 668 c 1,9,-1
 300 126 l 1,10,11
 364 62 364 62 508 62 c 0,0,1
582.5 886 m 128,-1,13
 731 886 731 886 818 771 c 128,-1,14
 905 656 905 656 905 466 c 0,15,16
 905 232 905 232 763 104 c 128,-1,17
 621 -24 621 -24 420 -24 c 0,18,19
 284 -24 284 -24 171 49 c 1,20,-1
 171 1149 l 1,21,-1
 18 1191 l 1,22,-1
 27 1245 l 1,23,-1
 285 1265 l 1,24,-1
 300 1249 l 1,25,-1
 300 837 l 1,26,-1
 286 733 l 1,27,-1
 298 733 l 1,28,12
 434 886 434 886 582.5 886 c 128,-1,13
EndSplineSet
Colour: ffffff
EndChar

StartChar: backslash
Encoding: 92 92 58
Width: 611
VWidth: 0
Flags: HMW
LayerCount: 2
Fore
SplineSet
32 1259 m 1,0,-1
 140 1254 l 1,1,-1
 602 -367 l 1,2,-1
 498 -362 l 1,3,-1
 32 1259 l 1,0,-1
EndSplineSet
Colour: ffffff
EndChar

StartChar: bar
Encoding: 124 124 59
Width: 448
VWidth: 0
Flags: HMW
LayerCount: 2
Fore
SplineSet
191 -367 m 1,0,-1
 191 1261 l 1,1,-1
 287 1248 l 1,2,-1
 287 -380 l 1,3,-1
 191 -367 l 1,0,-1
EndSplineSet
Colour: ffffff
EndChar

StartChar: braceright
Encoding: 125 125 60
Width: 607
VWidth: 0
Flags: HMW
LayerCount: 2
Fore
SplineSet
139 1256 m 2,0,1
 222 1256 222 1256 272 1215.5 c 128,-1,2
 322 1175 322 1175 340 1110 c 128,-1,3
 358 1045 358 1045 363 966 c 128,-1,4
 368 887 368 887 368 806 c 0,5,6
 370 724 370 724 378 656 c 0,7,8
 397 500 397 500 510 484 c 1,9,-1
 559 476 l 1,10,-1
 559 402 l 1,11,-1
 507 395 l 2,12,13
 395 380 395 380 377 224 c 0,14,15
 369 155 369 155 368.5 74 c 128,-1,16
 368 -7 368 -7 363 -86.5 c 128,-1,17
 358 -166 358 -166 339.5 -231.5 c 128,-1,18
 321 -297 321 -297 270 -337.5 c 128,-1,19
 219 -378 219 -378 135 -378 c 2,20,-1
 32 -378 l 1,21,-1
 40 -303 l 1,22,-1
 127 -297 l 1,23,24
 206 -292 206 -292 218 -158 c 0,25,26
 224 -98 224 -98 224.5 -25 c 128,-1,27
 225 48 225 48 230 123.5 c 128,-1,28
 235 199 235 199 249 264 c 128,-1,29
 263 329 263 329 302.5 376.5 c 128,-1,30
 342 424 342 424 406 438 c 1,31,-1
 406 443 l 1,32,33
 282 474 282 474 250 620 c 0,34,35
 226 729 226 729 227 853.5 c 128,-1,36
 228 978 228 978 224 1038 c 0,37,38
 214 1170 214 1170 139 1175 c 2,39,-1
 45 1182 l 1,40,-1
 37 1256 l 1,41,-1
 139 1256 l 2,0,1
EndSplineSet
Colour: ffffff
EndChar

StartChar: bracketright
Encoding: 93 93 61
Width: 476
VWidth: 0
Flags: HMW
LayerCount: 2
Fore
SplineSet
24 -306 m 1,0,-1
 261 -286 l 1,1,-1
 261 1164 l 1,2,-1
 26 1185 l 1,3,-1
 34 1256 l 1,4,-1
 391 1256 l 1,5,-1
 392 -375 l 1,6,-1
 32 -375 l 1,7,-1
 24 -306 l 1,0,-1
EndSplineSet
Colour: ffffff
EndChar

StartChar: breve
Encoding: 728 728 62
Width: 596
VWidth: 0
Flags: HMW
LayerCount: 2
Fore
SplineSet
295 1467 m 0,0,1
 389 1467 389 1467 454 1583 c 1,2,-1
 488 1558 l 1,3,4
 425 1374 425 1374 287.5 1374 c 128,-1,5
 150 1374 150 1374 105 1553 c 1,6,-1
 135 1581 l 1,7,8
 158 1536 158 1536 199 1501.5 c 128,-1,9
 240 1467 240 1467 295 1467 c 0,0,1
EndSplineSet
Colour: ffffff
EndChar

StartChar: brokenbar
Encoding: 166 166 63
Width: 449
VWidth: 0
Flags: HMW
LayerCount: 2
Fore
SplineSet
193 537 m 1,0,-1
 193 1257 l 1,1,-1
 287 1248 l 1,2,-1
 285 529 l 1,3,-1
 193 537 l 1,0,-1
193 -370 m 1,4,-1
 193 419 l 1,5,-1
 288 411 l 1,6,-1
 288 -380 l 1,7,-1
 193 -370 l 1,4,-1
EndSplineSet
Colour: ffffff
EndChar

StartChar: c
Encoding: 99 99 64
Width: 779
VWidth: 0
Flags: HMW
LayerCount: 2
Fore
SplineSet
91 420.5 m 128,-1,1
 91 622 91 622 207 755 c 128,-1,2
 323 888 323 888 491 888 c 0,3,4
 608 888 608 888 665 840.5 c 128,-1,5
 722 793 722 793 722 726 c 0,6,7
 722 643 722 643 627 627 c 1,8,9
 596 714 596 714 553 762 c 128,-1,10
 510 810 510 810 443 810 c 0,11,12
 351 810 351 810 291 722 c 128,-1,13
 231 634 231 634 231 467.5 c 128,-1,14
 231 301 231 301 309.5 185 c 128,-1,15
 388 69 388 69 516.5 69 c 128,-1,16
 645 69 645 69 742 148 c 1,17,-1
 763 102 l 1,18,19
 723 48 723 48 636.5 9 c 128,-1,20
 550 -30 550 -30 457 -30 c 0,21,22
 289 -30 289 -30 190 94.5 c 128,-1,0
 91 219 91 219 91 420.5 c 128,-1,1
EndSplineSet
Colour: ffffff
EndChar

StartChar: caron
Encoding: 711 711 65
Width: 620
VWidth: 0
Flags: HMW
LayerCount: 2
Fore
SplineSet
108 1530 m 1,0,-1
 176 1585 l 1,1,-1
 333 1429 l 1,2,-1
 343 1429 l 1,3,-1
 475 1582 l 1,4,-1
 516 1553 l 1,5,-1
 343 1371 l 1,6,-1
 287 1357 l 1,7,-1
 108 1530 l 1,0,-1
EndSplineSet
Colour: ffffff
EndChar

StartChar: cdotaccent
Encoding: 267 267 66
Width: 779
VWidth: 0
Flags: HMW
LayerCount: 2
Fore
SplineSet
406 1088.5 m 128,-1,1
 406 1135 406 1135 429 1163 c 128,-1,2
 452 1191 452 1191 490 1191 c 128,-1,3
 528 1191 528 1191 552 1163 c 128,-1,4
 576 1135 576 1135 576 1088 c 128,-1,5
 576 1041 576 1041 553 1012 c 128,-1,6
 530 983 530 983 490.5 983 c 128,-1,7
 451 983 451 983 428.5 1012.5 c 128,-1,0
 406 1042 406 1042 406 1088.5 c 128,-1,1
91 420.5 m 128,-1,9
 91 622 91 622 207 755 c 128,-1,10
 323 888 323 888 491 888 c 0,11,12
 608 888 608 888 665 840.5 c 128,-1,13
 722 793 722 793 722 726 c 0,14,15
 722 643 722 643 627 627 c 1,16,17
 596 714 596 714 553 762 c 128,-1,18
 510 810 510 810 443 810 c 0,19,20
 351 810 351 810 291 722 c 128,-1,21
 231 634 231 634 231 467.5 c 128,-1,22
 231 301 231 301 309.5 185 c 128,-1,23
 388 69 388 69 516.5 69 c 128,-1,24
 645 69 645 69 742 148 c 1,25,-1
 763 102 l 1,26,27
 723 48 723 48 636.5 9 c 128,-1,28
 550 -30 550 -30 457 -30 c 0,29,30
 289 -30 289 -30 190 94.5 c 128,-1,8
 91 219 91 219 91 420.5 c 128,-1,9
EndSplineSet
Colour: ffffff
EndChar

StartChar: cedilla
Encoding: 184 184 67
Width: 361
VWidth: 0
Flags: HMW
LayerCount: 2
Fore
SplineSet
179 -253.5 m 128,-1,1
 179 -236 179 -236 175 -223.5 c 128,-1,2
 171 -211 171 -211 167 -203 c 128,-1,3
 163 -195 163 -195 151.5 -181.5 c 128,-1,4
 140 -168 140 -168 136.5 -164 c 128,-1,5
 133 -160 133 -160 117 -145 c 128,-1,6
 101 -130 101 -130 99 -128 c 1,7,-1
 190 3 l 1,8,-1
 257 3 l 1,9,-1
 203 -76 l 1,10,11
 292 -155 292 -155 292 -227 c 0,12,13
 292 -330 292 -330 92 -390 c 1,14,-1
 76 -339 l 1,15,16
 119 -324 119 -324 149 -297.5 c 128,-1,0
 179 -271 179 -271 179 -253.5 c 128,-1,1
EndSplineSet
Colour: ffffff
EndChar

StartChar: cent
Encoding: 162 162 68
Width: 803
VWidth: 0
Flags: HMW
LayerCount: 2
Fore
SplineSet
717 759 m 0,0,1
 717 676 717 676 622 660 c 1,2,3
 591 747 591 747 548.5 795 c 128,-1,4
 506 843 506 843 439 843 c 0,5,6
 349 843 349 843 288 743 c 128,-1,7
 227 643 227 643 227 474.5 c 128,-1,8
 227 306 227 306 305.5 187.5 c 128,-1,9
 384 69 384 69 512 69 c 128,-1,10
 640 69 640 69 737 148 c 1,11,-1
 758 102 l 1,12,13
 722 53 722 53 646 15.5 c 128,-1,14
 570 -22 570 -22 485 -29 c 1,15,-1
 514 -250 l 1,16,-1
 386 -267 l 1,17,-1
 409 -28 l 1,18,19
 310 -16 310 -16 236 47 c 0,20,21
 87 173 87 173 87 412 c 0,22,23
 87 601 87 601 177 737.5 c 128,-1,24
 267 874 267 874 404 909 c 1,25,-1
 375 1135 l 1,26,-1
 502 1152 l 1,27,-1
 480 920 l 1,28,29
 483 920 483 920 487 920 c 0,30,31
 604 920 604 920 660.5 873 c 128,-1,32
 717 826 717 826 717 759 c 0,0,1
EndSplineSet
Colour: ffffff
EndChar

StartChar: circumflex
Encoding: 710 710 69
Width: 615
VWidth: 0
Flags: HMW
LayerCount: 2
Fore
SplineSet
105 1388 m 1,0,-1
 273 1568 l 1,1,-1
 328 1582 l 1,2,-1
 506 1396 l 1,3,-1
 466 1359 l 1,4,-1
 293 1481 l 1,5,-1
 284 1481 l 1,6,-1
 135 1358 l 1,7,-1
 105 1388 l 1,0,-1
EndSplineSet
Colour: ffffff
EndChar

StartChar: colon
Encoding: 58 58 70
Width: 410
VWidth: 0
Flags: HMW
LayerCount: 2
Fore
SplineSet
298 422.5 m 128,-1,1
 298 375 298 375 274 345 c 128,-1,2
 250 315 250 315 215.5 315 c 128,-1,3
 181 315 181 315 160 332 c 0,4,5
 120 362 120 362 120 417 c 128,-1,6
 120 472 120 472 144.5 499.5 c 128,-1,7
 169 527 169 527 208 527 c 2,8,-1
 209 527 l 1,9,-1
 210 527 l 2,10,11
 249 527 249 527 273.5 498.5 c 128,-1,0
 298 470 298 470 298 422.5 c 128,-1,1
EndSplineSet
Colour: ffffff
EndChar

StartChar: comma
Encoding: 44 44 71
Width: 397
VWidth: 0
Flags: HMW
LayerCount: 2
Fore
SplineSet
234 -50 m 0,0,1
 234 3 234 3 202 38.5 c 128,-1,2
 170 74 170 74 122 74 c 0,3,4
 106 74 106 74 93 71 c 1,5,6
 85 95 85 95 85 127.5 c 128,-1,7
 85 160 85 160 117.5 189 c 128,-1,8
 150 218 150 218 202.5 218 c 128,-1,9
 255 218 255 218 303.5 164 c 128,-1,10
 352 110 352 110 352 19 c 0,11,12
 352 -72 352 -72 312 -135 c 0,13,14
 239 -250 239 -250 72 -298 c 1,15,-1
 54 -240 l 1,16,17
 234 -181 234 -181 234 -50 c 0,0,1
EndSplineSet
Colour: ffffff
EndChar

StartChar: commaaccent
Encoding: 806 806 72
Width: 573
VWidth: 0
Flags: HMW
LayerCount: 2
Fore
SplineSet
114 -244 m 0,0,1
 114 -210 114 -210 84 -186.5 c 128,-1,2
 54 -163 54 -163 21 -160 c 1,3,4
 24 -131 24 -131 48 -108 c 128,-1,5
 72 -85 72 -85 109 -85 c 128,-1,6
 146 -85 146 -85 176.5 -115.5 c 128,-1,7
 207 -146 207 -146 207 -187 c 0,8,9
 207 -254 207 -254 166 -311 c 128,-1,10
 125 -368 125 -368 21 -390 c 1,11,-1
 4 -345 l 1,12,13
 114 -319 114 -319 114 -244 c 0,0,1
EndSplineSet
Colour: ffffff
EndChar

StartChar: copyright
Encoding: 169 169 73
Width: 1378
VWidth: 0
Flags: HMW
LayerCount: 2
Fore
SplineSet
167 644 m 0,0,1
 167 391 167 391 313 226.5 c 128,-1,2
 459 62 459 62 686 62 c 0,3,4
 836 62 836 62 959.5 135 c 128,-1,5
 1083 208 1083 208 1153.5 337.5 c 128,-1,6
 1224 467 1224 467 1224 631 c 128,-1,7
 1224 795 1224 795 1159 930 c 128,-1,8
 1094 1065 1094 1065 971 1143.5 c 128,-1,9
 848 1222 848 1222 694.5 1222 c 128,-1,10
 541 1222 541 1222 421 1145 c 128,-1,11
 301 1068 301 1068 234 936 c 128,-1,12
 167 804 167 804 167 644 c 0,0,1
72 633 m 0,13,14
 72 776 72 776 121 901.5 c 128,-1,15
 170 1027 170 1027 253 1114 c 128,-1,16
 336 1201 336 1201 449 1251 c 128,-1,17
 562 1301 562 1301 687 1301 c 0,18,19
 877 1301 877 1301 1021 1216 c 128,-1,20
 1165 1131 1165 1131 1241.5 980.5 c 128,-1,21
 1318 830 1318 830 1318 640.5 c 128,-1,22
 1318 451 1318 451 1236.5 301 c 128,-1,23
 1155 151 1155 151 1008 65 c 128,-1,24
 861 -21 861 -21 677 -21 c 0,25,26
 405 -21 405 -21 238.5 161.5 c 128,-1,27
 72 344 72 344 72 633 c 0,13,14
377 622 m 0,28,29
 377 811 377 811 474.5 920.5 c 128,-1,30
 572 1030 572 1030 711 1030 c 0,31,32
 809 1030 809 1030 856.5 990.5 c 128,-1,33
 904 951 904 951 904 895 c 0,34,35
 904 826 904 826 825 813 c 1,36,37
 799 885 799 885 763 925 c 128,-1,38
 727 965 727 965 660.5 965 c 128,-1,39
 594 965 594 965 544 892 c 128,-1,40
 494 819 494 819 494 679.5 c 128,-1,41
 494 540 494 540 559.5 443.5 c 128,-1,42
 625 347 625 347 732 347 c 128,-1,43
 839 347 839 347 921 413 c 1,44,-1
 938 374 l 1,45,46
 905 329 905 329 833 296.5 c 128,-1,47
 761 264 761 264 675 264 c 128,-1,48
 589 264 589 264 518.5 313.5 c 128,-1,49
 448 363 448 363 412.5 444.5 c 128,-1,50
 377 526 377 526 377 622 c 0,28,29
EndSplineSet
Colour: ffffff
EndChar

StartChar: currency
Encoding: 164 164 74
Width: 769
VWidth: 0
Flags: HMW
LayerCount: 2
Fore
SplineSet
217 494 m 128,-1,1
 217 408 217 408 264 354.5 c 128,-1,2
 311 301 311 301 388.5 301 c 128,-1,3
 466 301 466 301 515 353 c 128,-1,4
 564 405 564 405 564 491 c 128,-1,5
 564 577 564 577 515 631 c 128,-1,6
 466 685 466 685 388 685 c 128,-1,7
 310 685 310 685 263.5 632.5 c 128,-1,0
 217 580 217 580 217 494 c 128,-1,1
127 488 m 0,8,9
 127 569 127 569 174 638 c 1,10,-1
 83 723 l 1,11,-1
 151 789 l 1,12,-1
 229 701 l 1,13,14
 263 729 263 729 309 749.5 c 128,-1,15
 355 770 355 770 392 770 c 128,-1,16
 429 770 429 770 477 752 c 128,-1,17
 525 734 525 734 557 710 c 1,18,-1
 634 790 l 1,19,-1
 693 720 l 1,20,-1
 609 646 l 1,21,22
 653 568 653 568 653 511 c 0,23,24
 653 402 653 402 602 334 c 1,25,-1
 695 248 l 1,26,-1
 626 184 l 1,27,-1
 547 274 l 1,28,29
 457 218 457 218 389.5 218 c 128,-1,30
 322 218 322 218 240 268 c 1,31,-1
 163 179 l 1,32,-1
 96 247 l 1,33,-1
 180 325 l 1,34,35
 159 357 159 357 143 404.5 c 128,-1,36
 127 452 127 452 127 488 c 0,8,9
EndSplineSet
Colour: ffffff
EndChar

StartChar: d
Encoding: 100 100 75
Width: 997
VWidth: 0
Flags: HMW
LayerCount: 2
Fore
SplineSet
230 446 m 128,-1,1
 230 275 230 275 294 176 c 128,-1,2
 358 77 358 77 474 77 c 0,3,4
 535 77 535 77 600.5 112 c 128,-1,5
 666 147 666 147 700 193 c 1,6,-1
 700 685 l 1,7,8
 659 744 659 744 595.5 777 c 128,-1,9
 532 810 532 810 469 810 c 0,10,11
 360 810 360 810 295 713.5 c 128,-1,0
 230 617 230 617 230 446 c 128,-1,1
92 393 m 0,12,13
 92 501 92 501 128 596 c 0,14,15
 166 691 166 691 226 754 c 0,16,17
 356 889 356 889 518 889 c 0,18,19
 567 889 567 889 622 874.5 c 128,-1,20
 677 860 677 860 702 841 c 1,21,-1
 710 841 l 1,22,-1
 696 972 l 1,23,-1
 696 1151 l 1,24,-1
 544 1194 l 1,25,-1
 553 1247 l 1,26,-1
 811 1269 l 1,27,-1
 826 1252 l 1,28,-1
 826 222 l 2,29,30
 826 116 826 116 868 90 c 0,31,32
 890 76 890 76 925 70 c 2,33,-1
 978 58 l 1,34,-1
 969 -2 l 1,35,36
 902 -22 902 -22 840.5 -22 c 128,-1,37
 779 -22 779 -22 744.5 18.5 c 128,-1,38
 710 59 710 59 710 124 c 2,39,-1
 710 131 l 1,40,-1
 700 131 l 1,41,42
 589 -21 589 -21 411 -21 c 0,43,44
 272 -21 272 -21 182 88 c 128,-1,45
 92 197 92 197 92 393 c 0,12,13
EndSplineSet
Colour: ffffff
EndChar

StartChar: dagger
Encoding: 8224 8224 76
Width: 847
VWidth: 0
Flags: HMW
LayerCount: 2
Fore
SplineSet
77 723 m 1,0,-1
 86 819 l 1,1,-1
 383 811 l 1,2,-1
 375 1256 l 1,3,-1
 488 1244 l 1,4,-1
 477 811 l 1,5,-1
 783 819 l 1,6,-1
 777 718 l 1,7,-1
 477 728 l 1,8,-1
 493 -363 l 1,9,-1
 368 -351 l 1,10,-1
 383 730 l 1,11,-1
 77 723 l 1,0,-1
EndSplineSet
Colour: ffffff
EndChar

StartChar: daggerdbl
Encoding: 8225 8225 77
Width: 864
VWidth: 0
Flags: HMW
LayerCount: 2
Fore
SplineSet
85 723 m 1,0,-1
 93 818 l 1,1,-1
 388 811 l 1,2,-1
 380 1256 l 1,3,-1
 494 1244 l 1,4,-1
 483 811 l 1,5,-1
 788 818 l 1,6,-1
 781 717 l 1,7,-1
 483 728 l 1,8,-1
 475 429 l 1,9,-1
 480 165 l 1,10,-1
 792 171 l 1,11,-1
 786 75 l 1,12,-1
 480 85 l 1,13,-1
 488 -363 l 1,14,-1
 375 -353 l 1,15,-1
 385 85 l 1,16,-1
 98 75 l 1,17,-1
 105 178 l 1,18,-1
 385 166 l 1,19,-1
 392 499 l 1,20,-1
 388 730 l 1,21,-1
 85 723 l 1,0,-1
EndSplineSet
Colour: ffffff
EndChar

StartChar: dcroat
Encoding: 273 273 78
Width: 997
VWidth: 0
Flags: HMW
LayerCount: 2
Fore
SplineSet
696 1063 m 1,0,-1
 696 1151 l 1,1,-1
 544 1194 l 1,2,-1
 553 1247 l 1,3,-1
 811 1269 l 1,4,-1
 826 1252 l 1,5,-1
 826 1063 l 1,6,-1
 950 1063 l 1,7,-1
 940 999 l 1,8,-1
 826 999 l 1,9,-1
 826 222 l 2,10,11
 826 116 826 116 868 90 c 0,12,13
 890 76 890 76 925 70 c 2,14,-1
 978 58 l 1,15,-1
 969 -2 l 1,16,17
 902 -22 902 -22 840.5 -22 c 128,-1,18
 779 -22 779 -22 744.5 18.5 c 128,-1,19
 710 59 710 59 710 124 c 2,20,-1
 710 131 l 1,21,-1
 700 131 l 1,22,23
 589 -21 589 -21 411 -21 c 0,24,25
 272 -21 272 -21 182 88 c 128,-1,26
 92 197 92 197 92 393 c 0,27,28
 92 501 92 501 128 596 c 0,29,30
 166 691 166 691 226 754 c 0,31,32
 356 889 356 889 518 889 c 0,33,34
 567 889 567 889 622 874.5 c 128,-1,35
 677 860 677 860 702 841 c 1,36,-1
 710 841 l 1,37,-1
 696 972 l 1,38,-1
 696 999 l 1,39,-1
 471 999 l 1,40,-1
 481 1063 l 1,41,-1
 696 1063 l 1,0,-1
230 446 m 128,-1,43
 230 275 230 275 294 176 c 128,-1,44
 358 77 358 77 474 77 c 0,45,46
 535 77 535 77 600.5 112 c 128,-1,47
 666 147 666 147 700 193 c 1,48,-1
 700 685 l 1,49,50
 659 744 659 744 595.5 777 c 128,-1,51
 532 810 532 810 469 810 c 0,52,53
 360 810 360 810 295 713.5 c 128,-1,42
 230 617 230 617 230 446 c 128,-1,43
EndSplineSet
Colour: ffffff
EndChar

StartChar: degree
Encoding: 176 176 79
Width: 424
VWidth: 0
Flags: HMW
LayerCount: 2
Fore
SplineSet
108 1124 m 128,-1,1
 108 1065 108 1065 137.5 1023 c 128,-1,2
 167 981 167 981 214.5 981 c 128,-1,3
 262 981 262 981 290.5 1014.5 c 128,-1,4
 319 1048 319 1048 319 1107 c 128,-1,5
 319 1166 319 1166 289 1208.5 c 128,-1,6
 259 1251 259 1251 210.5 1251 c 128,-1,7
 162 1251 162 1251 135 1217 c 128,-1,0
 108 1183 108 1183 108 1124 c 128,-1,1
32 1103.5 m 128,-1,9
 32 1186 32 1186 88.5 1245 c 128,-1,10
 145 1304 145 1304 227.5 1304 c 128,-1,11
 310 1304 310 1304 353 1258 c 128,-1,12
 396 1212 396 1212 396 1127.5 c 128,-1,13
 396 1043 396 1043 339 985.5 c 128,-1,14
 282 928 282 928 202.5 928 c 128,-1,15
 123 928 123 928 77.5 974.5 c 128,-1,8
 32 1021 32 1021 32 1103.5 c 128,-1,9
EndSplineSet
Colour: ffffff
EndChar

StartChar: dieresis
Encoding: 168 168 80
Width: 365
VWidth: 0
Flags: HMW
LayerCount: 2
Fore
SplineSet
63 180.5 m 128,-1,1
 63 217 63 217 82 237.5 c 128,-1,2
 101 258 101 258 132.5 258 c 128,-1,3
 164 258 164 258 184.5 237.5 c 128,-1,4
 205 217 205 217 205 180 c 128,-1,5
 205 143 205 143 185 121 c 128,-1,6
 165 99 165 99 132.5 99 c 128,-1,7
 100 99 100 99 81.5 121.5 c 128,-1,0
 63 144 63 144 63 180.5 c 128,-1,1
-205 180.5 m 128,-1,9
 -205 217 -205 217 -186 237.5 c 128,-1,10
 -167 258 -167 258 -135.5 258 c 128,-1,11
 -104 258 -104 258 -84 237.5 c 128,-1,12
 -64 217 -64 217 -64 180 c 128,-1,13
 -64 143 -64 143 -83.5 121 c 128,-1,14
 -103 99 -103 99 -135 99 c 128,-1,15
 -167 99 -167 99 -186 121.5 c 128,-1,8
 -205 144 -205 144 -205 180.5 c 128,-1,9
EndSplineSet
Colour: ffffff
EndChar

StartChar: dieresiscomb
Encoding: 776 776 81
Width: 54
VWidth: 0
Flags: HMW
LayerCount: 2
Fore
SplineSet
392 1465.5 m 128,-1,1
 392 1502 392 1502 411 1522.5 c 128,-1,2
 430 1543 430 1543 461.5 1543 c 128,-1,3
 493 1543 493 1543 513.5 1522.5 c 128,-1,4
 534 1502 534 1502 534 1465 c 128,-1,5
 534 1428 534 1428 514 1406 c 128,-1,6
 494 1384 494 1384 461.5 1384 c 128,-1,7
 429 1384 429 1384 410.5 1406.5 c 128,-1,0
 392 1429 392 1429 392 1465.5 c 128,-1,1
124 1465.5 m 128,-1,9
 124 1502 124 1502 143 1522.5 c 128,-1,10
 162 1543 162 1543 193.5 1543 c 128,-1,11
 225 1543 225 1543 245 1522.5 c 128,-1,12
 265 1502 265 1502 265 1465 c 128,-1,13
 265 1428 265 1428 245.5 1406 c 128,-1,14
 226 1384 226 1384 194 1384 c 128,-1,15
 162 1384 162 1384 143 1406.5 c 128,-1,8
 124 1429 124 1429 124 1465.5 c 128,-1,9
EndSplineSet
Colour: ffffff
EndChar

StartChar: divide
Encoding: 247 247 82
Width: 958
VWidth: 0
Flags: HMW
LayerCount: 2
Fore
SplineSet
383 789 m 128,-1,1
 383 838 383 838 407.5 866 c 128,-1,2
 432 894 432 894 473 894 c 128,-1,3
 514 894 514 894 540.5 865.5 c 128,-1,4
 567 837 567 837 567 788 c 128,-1,5
 567 739 567 739 541.5 707.5 c 128,-1,6
 516 676 516 676 474.5 676 c 128,-1,7
 433 676 433 676 408 708 c 128,-1,0
 383 740 383 740 383 789 c 128,-1,1
383 225 m 128,-1,9
 383 274 383 274 407.5 302 c 128,-1,10
 432 330 432 330 473 330 c 128,-1,11
 514 330 514 330 540.5 301 c 128,-1,12
 567 272 567 272 567 223.5 c 128,-1,13
 567 175 567 175 541.5 143.5 c 128,-1,14
 516 112 516 112 474.5 112 c 128,-1,15
 433 112 433 112 408 144 c 128,-1,8
 383 176 383 176 383 225 c 128,-1,9
68 465 m 1,16,-1
 81 550 l 1,17,-1
 893 550 l 1,18,-1
 882 465 l 1,19,-1
 68 465 l 1,16,-1
EndSplineSet
Colour: ffffff
EndChar

StartChar: dollar
Encoding: 36 36 83
Width: 860
VWidth: 0
Flags: HMW
LayerCount: 2
Fore
SplineSet
116 951.5 m 128,-1,1
 116 1004 116 1004 139 1061 c 128,-1,2
 162 1118 162 1118 201 1158 c 0,3,4
 281 1240 281 1240 398 1262 c 1,5,-1
 387 1395 l 1,6,-1
 524 1411 l 1,7,-1
 511 1269 l 1,8,9
 667 1258 667 1258 764 1165 c 1,10,-1
 737 869 l 1,11,-1
 664 878 l 1,12,-1
 638 1096 l 1,13,14
 620 1130 620 1130 576 1159 c 128,-1,15
 532 1188 532 1188 482 1197 c 1,16,-1
 482 721 l 1,17,18
 497 712 497 712 531 691.5 c 128,-1,19
 565 671 565 671 582 661 c 128,-1,20
 599 651 599 651 630 631 c 128,-1,21
 661 611 661 611 678 598 c 128,-1,22
 695 585 695 585 720.5 564 c 128,-1,23
 746 543 746 543 760 526 c 0,24,25
 837 432 837 432 837 316 c 128,-1,26
 837 200 837 200 748 106 c 128,-1,27
 659 12 659 12 516 -15 c 1,28,-1
 527 -164 l 1,29,-1
 382 -179 l 1,30,-1
 392 -25 l 1,31,32
 295 -21 295 -21 211.5 19.5 c 128,-1,33
 128 60 128 60 80 119 c 1,34,-1
 102 395 l 1,35,-1
 177 384 l 1,36,-1
 210 181 l 1,37,38
 238 132 238 132 295.5 98.5 c 128,-1,39
 353 65 353 65 422 58 c 1,40,-1
 422 564 l 1,41,42
 287 644 287 644 251.5 677 c 128,-1,43
 216 710 216 710 190 739.5 c 128,-1,44
 164 769 164 769 150 797.5 c 128,-1,45
 136 826 136 826 126 862.5 c 128,-1,0
 116 899 116 899 116 951.5 c 128,-1,1
426 756 m 1,46,-1
 426 1199 l 1,47,48
 350 1192 350 1192 301 1140.5 c 128,-1,49
 252 1089 252 1089 252 1007 c 128,-1,50
 252 925 252 925 297.5 868 c 128,-1,51
 343 811 343 811 426 756 c 1,46,-1
484 527 m 1,52,-1
 484 59 l 1,53,54
 567 68 567 68 628.5 122.5 c 128,-1,55
 690 177 690 177 690 266.5 c 128,-1,56
 690 356 690 356 633 413.5 c 128,-1,57
 576 471 576 471 484 527 c 1,52,-1
EndSplineSet
Colour: ffffff
EndChar

StartChar: dotaccent
Encoding: 729 729 84
Width: 365
VWidth: 0
Flags: HMW
LayerCount: 2
Fore
SplineSet
-85 203.5 m 128,-1,1
 -85 250 -85 250 -62 278 c 128,-1,2
 -39 306 -39 306 -1 306 c 128,-1,3
 37 306 37 306 61 278 c 128,-1,4
 85 250 85 250 85 203 c 128,-1,5
 85 156 85 156 62 127 c 128,-1,6
 39 98 39 98 -0.5 98 c 128,-1,7
 -40 98 -40 98 -62.5 127.5 c 128,-1,0
 -85 157 -85 157 -85 203.5 c 128,-1,1
EndSplineSet
Colour: ffffff
EndChar

StartChar: dotaccentcomb
Encoding: 775 775 85
Width: 26
VWidth: 0
Flags: HMW
LayerCount: 2
Fore
SplineSet
129 1451.5 m 128,-1,1
 129 1498 129 1498 152 1526 c 128,-1,2
 175 1554 175 1554 213 1554 c 128,-1,3
 251 1554 251 1554 275 1526 c 128,-1,4
 299 1498 299 1498 299 1451 c 128,-1,5
 299 1404 299 1404 276 1375 c 128,-1,6
 253 1346 253 1346 213.5 1346 c 128,-1,7
 174 1346 174 1346 151.5 1375.5 c 128,-1,0
 129 1405 129 1405 129 1451.5 c 128,-1,1
EndSplineSet
Colour: ffffff
EndChar

StartChar: dotbelowcomb
Encoding: 803 803 86
Width: 226
VWidth: 0
Flags: HMW
LayerCount: 2
Fore
SplineSet
21 -274.5 m 128,-1,1
 21 -228 21 -228 44 -200.5 c 128,-1,2
 67 -173 67 -173 105.5 -173 c 128,-1,3
 144 -173 144 -173 168 -200.5 c 128,-1,4
 192 -228 192 -228 192 -275 c 128,-1,5
 192 -322 192 -322 168.5 -351 c 128,-1,6
 145 -380 145 -380 105.5 -380 c 128,-1,7
 66 -380 66 -380 43.5 -350.5 c 128,-1,0
 21 -321 21 -321 21 -274.5 c 128,-1,1
EndSplineSet
Colour: ffffff
EndChar

StartChar: dotlessi
Encoding: 305 305 87
Width: 555
VWidth: 0
Flags: HMW
LayerCount: 2
Fore
SplineSet
80 0 m 1,0,-1
 92 55 l 1,1,-1
 243 87 l 1,2,-1
 243 772 l 1,3,-1
 91 814 l 1,4,-1
 99 865 l 1,5,-1
 358 887 l 1,6,-1
 374 871 l 1,7,-1
 374 87 l 1,8,-1
 534 57 l 1,9,-1
 523 0 l 1,10,-1
 80 0 l 1,0,-1
EndSplineSet
Colour: ffffff
EndChar

StartChar: e
Encoding: 101 101 88
Width: 812
VWidth: 0
Flags: HMW
LayerCount: 2
Fore
SplineSet
595 625.5 m 128,-1,1
 595 701 595 701 552.5 755 c 128,-1,2
 510 809 510 809 432 809 c 128,-1,3
 354 809 354 809 297.5 730.5 c 128,-1,4
 241 652 241 652 237 507 c 1,5,-1
 588 530 l 1,6,0
 595 550 595 550 595 625.5 c 128,-1,1
94 420 m 0,7,8
 94 528 94 528 128 618.5 c 128,-1,9
 162 709 162 709 218 766 c 0,10,11
 336 886 336 886 486 886 c 0,12,13
 601 886 601 886 668.5 810 c 128,-1,14
 736 734 736 734 736 582 c 0,15,16
 736 517 736 517 719 451 c 1,17,-1
 235 445 l 1,18,19
 239 296 239 296 308.5 187 c 128,-1,20
 378 78 378 78 509 78 c 128,-1,21
 640 78 640 78 743 148 c 1,22,-1
 762 104 l 1,23,24
 647 -30 647 -30 453 -30 c 0,25,26
 306 -30 306 -30 200 84.5 c 128,-1,27
 94 199 94 199 94 420 c 0,7,8
EndSplineSet
Colour: ffffff
EndChar

StartChar: eacute
Encoding: 233 233 89
Width: 812
VWidth: 0
Flags: HMW
LayerCount: 2
Fore
SplineSet
421 1020 m 1,0,-1
 549 1350 l 1,1,-1
 652 1311 l 1,2,-1
 470 990 l 1,3,-1
 421 1020 l 1,0,-1
595 625.5 m 128,-1,5
 595 701 595 701 552.5 755 c 128,-1,6
 510 809 510 809 432 809 c 128,-1,7
 354 809 354 809 297.5 730.5 c 128,-1,8
 241 652 241 652 237 507 c 1,9,-1
 588 530 l 1,10,4
 595 550 595 550 595 625.5 c 128,-1,5
94 420 m 0,11,12
 94 528 94 528 128 618.5 c 128,-1,13
 162 709 162 709 218 766 c 0,14,15
 336 886 336 886 486 886 c 0,16,17
 601 886 601 886 668.5 810 c 128,-1,18
 736 734 736 734 736 582 c 0,19,20
 736 517 736 517 719 451 c 1,21,-1
 235 445 l 1,22,23
 239 296 239 296 308.5 187 c 128,-1,24
 378 78 378 78 509 78 c 128,-1,25
 640 78 640 78 743 148 c 1,26,-1
 762 104 l 1,27,28
 647 -30 647 -30 453 -30 c 0,29,30
 306 -30 306 -30 200 84.5 c 128,-1,31
 94 199 94 199 94 420 c 0,11,12
EndSplineSet
Colour: ffffff
EndChar

StartChar: egrave
Encoding: 232 232 90
Width: 812
VWidth: 0
Flags: HMW
LayerCount: 2
Fore
SplineSet
284 1319 m 1,0,-1
 388 1356 l 1,1,-1
 521 1021 l 1,2,-1
 470 990 l 1,3,-1
 284 1319 l 1,0,-1
595 625.5 m 128,-1,5
 595 701 595 701 552.5 755 c 128,-1,6
 510 809 510 809 432 809 c 128,-1,7
 354 809 354 809 297.5 730.5 c 128,-1,8
 241 652 241 652 237 507 c 1,9,-1
 588 530 l 1,10,4
 595 550 595 550 595 625.5 c 128,-1,5
94 420 m 0,11,12
 94 528 94 528 128 618.5 c 128,-1,13
 162 709 162 709 218 766 c 0,14,15
 336 886 336 886 486 886 c 0,16,17
 601 886 601 886 668.5 810 c 128,-1,18
 736 734 736 734 736 582 c 0,19,20
 736 517 736 517 719 451 c 1,21,-1
 235 445 l 1,22,23
 239 296 239 296 308.5 187 c 128,-1,24
 378 78 378 78 509 78 c 128,-1,25
 640 78 640 78 743 148 c 1,26,-1
 762 104 l 1,27,28
 647 -30 647 -30 453 -30 c 0,29,30
 306 -30 306 -30 200 84.5 c 128,-1,31
 94 199 94 199 94 420 c 0,11,12
EndSplineSet
Colour: ffffff
EndChar

StartChar: eight
Encoding: 56 56 91
Width: 938
VWidth: 0
Flags: HMW
LayerCount: 2
Fore
SplineSet
293 957.5 m 128,-1,1
 293 880 293 880 351.5 812 c 128,-1,2
 410 744 410 744 547 656 c 1,3,4
 674 740 674 740 674 890 c 0,5,6
 674 995 674 995 615 1068 c 128,-1,7
 556 1141 556 1141 474 1141 c 128,-1,8
 392 1141 392 1141 342.5 1088 c 128,-1,0
 293 1035 293 1035 293 957.5 c 128,-1,1
267 294.5 m 128,-1,10
 267 192 267 192 343 119.5 c 128,-1,11
 419 47 419 47 510 47 c 128,-1,12
 601 47 601 47 655.5 96.5 c 128,-1,13
 710 146 710 146 710 229.5 c 128,-1,14
 710 313 710 313 638 386 c 128,-1,15
 566 459 566 459 410 557 c 1,16,17
 341 506 341 506 304 451.5 c 128,-1,9
 267 397 267 397 267 294.5 c 128,-1,10
127 281 m 0,18,19
 127 454 127 454 357 590 c 1,20,-1
 357 597 l 1,21,22
 173 722 173 722 173 897 c 0,23,24
 173 1023 173 1023 266.5 1112.5 c 128,-1,25
 360 1202 360 1202 500 1202 c 128,-1,26
 640 1202 640 1202 719 1123.5 c 128,-1,27
 798 1045 798 1045 798 937.5 c 128,-1,28
 798 830 798 830 742.5 749 c 128,-1,29
 687 668 687 668 604 625 c 1,30,-1
 601 619 l 1,31,32
 727 534 727 534 783.5 461.5 c 128,-1,33
 840 389 840 389 840 291 c 0,34,35
 840 152 840 152 732.5 62.5 c 128,-1,36
 625 -27 625 -27 470 -27 c 128,-1,37
 315 -27 315 -27 221 59.5 c 128,-1,38
 127 146 127 146 127 281 c 0,18,19
EndSplineSet
Substitution2: "'sups' Superscript lookup 0 subtable" eight.superior
Colour: ffffff
EndChar

StartChar: eight.osf
Encoding: 65536 -1 92
Width: 815
VWidth: 0
Flags: HMW
LayerCount: 2
Fore
SplineSet
225 963.5 m 128,-1,1
 225 884 225 884 281.5 812 c 128,-1,2
 338 740 338 740 471 655 c 1,3,4
 589 758 589 758 589 899 c 0,5,6
 589 994 589 994 532.5 1067.5 c 128,-1,7
 476 1141 476 1141 400 1141 c 128,-1,8
 324 1141 324 1141 274.5 1092 c 128,-1,0
 225 1043 225 1043 225 963.5 c 128,-1,1
195 299 m 128,-1,10
 195 204 195 204 266.5 126.5 c 128,-1,11
 338 49 338 49 429 49 c 128,-1,12
 520 49 520 49 576.5 102.5 c 128,-1,13
 633 156 633 156 633 242 c 128,-1,14
 633 328 633 328 566 397 c 128,-1,15
 499 466 499 466 337 568 c 1,16,17
 278 528 278 528 236.5 461 c 128,-1,9
 195 394 195 394 195 299 c 128,-1,10
289 604 m 1,18,19
 113 718 113 718 113 918 c 0,20,21
 113 1026 113 1026 200.5 1114 c 128,-1,22
 288 1202 288 1202 422 1202 c 128,-1,23
 556 1202 556 1202 629 1127 c 128,-1,24
 702 1052 702 1052 702 935 c 0,25,26
 702 754 702 754 526 628 c 1,27,-1
 525 622 l 1,28,29
 756 476 756 476 756 295 c 0,30,31
 756 158 756 158 645 65.5 c 128,-1,32
 534 -27 534 -27 386 -27 c 128,-1,33
 238 -27 238 -27 152.5 58.5 c 128,-1,34
 67 144 67 144 67 281 c 0,35,36
 67 453 67 453 289 597 c 1,37,-1
 289 604 l 1,18,19
EndSplineSet
Colour: ffffff
EndChar

StartChar: emdash
Encoding: 8212 8212 93
Width: 1301
VWidth: 0
Flags: HMW
LayerCount: 2
Fore
SplineSet
86 420 m 1,0,-1
 100 503 l 1,1,-1
 1220 509 l 1,2,-1
 1206 426 l 1,3,-1
 86 420 l 1,0,-1
EndSplineSet
Colour: ffffff
EndChar

StartChar: emptyset
Encoding: 8709 8709 94
Width: 1012
VWidth: 0
Flags: HMW
LayerCount: 2
Fore
SplineSet
507 -37 m 0,0,1
 310 -37 310 -37 181 95 c 1,2,-1
 88 -4 l 1,3,-1
 21 96 l 1,4,-1
 121 171 l 1,5,6
 48 289 48 289 48 428.5 c 128,-1,7
 48 568 48 568 113.5 681 c 128,-1,8
 179 794 179 794 285.5 862 c 128,-1,9
 392 930 392 930 507 930 c 0,10,11
 700 930 700 930 825 803 c 1,12,-1
 912 898 l 1,13,-1
 979 799 l 1,14,-1
 885 727 l 1,15,16
 961 604 961 604 961 459 c 128,-1,17
 961 314 961 314 906 205 c 128,-1,18
 851 96 851 96 746 29.5 c 128,-1,19
 641 -37 641 -37 507 -37 c 0,0,1
845 444 m 0,20,21
 845 573 845 573 794 667 c 1,22,-1
 248 177 l 1,23,24
 348 52 348 52 504.5 52 c 128,-1,25
 661 52 661 52 753 151.5 c 128,-1,26
 845 251 845 251 845 444 c 0,20,21
509.5 836 m 128,-1,28
 356 836 356 836 259.5 729 c 128,-1,29
 163 622 163 622 163 443 c 0,30,31
 163 321 163 321 212 230 c 1,32,-1
 758 719 l 1,33,27
 663 836 663 836 509.5 836 c 128,-1,28
EndSplineSet
Colour: ffffff
EndChar

StartChar: endash
Encoding: 8211 8211 95
Width: 792
VWidth: 0
Flags: HMW
LayerCount: 2
Fore
SplineSet
86 420 m 1,0,-1
 99 503 l 1,1,-1
 710 509 l 1,2,-1
 697 426 l 1,3,-1
 86 420 l 1,0,-1
EndSplineSet
Colour: ffffff
EndChar

StartChar: eng
Encoding: 331 331 96
Width: 982
VWidth: 0
Flags: HMW
LayerCount: 2
Fore
SplineSet
686 890 m 128,-1,1
 785 890 785 890 847 817 c 128,-1,2
 909 744 909 744 909 600 c 2,3,-1
 909 150 l 1,4,5
 906 -195 906 -195 650 -356 c 1,6,-1
 606 -383 l 1,7,-1
 565 -315 l 1,8,9
 722 -198 722 -198 762 -12 c 0,10,11
 780 68 780 68 779 165 c 2,12,-1
 778 568 l 2,13,14
 778 677 778 677 730.5 729 c 128,-1,15
 683 781 683 781 610.5 781 c 128,-1,16
 538 781 538 781 484 755.5 c 128,-1,17
 430 730 430 730 370 670 c 1,18,-1
 370 86 l 1,19,-1
 516 58 l 1,20,-1
 506 0 l 1,21,-1
 79 0 l 1,22,-1
 87 52 l 1,23,-1
 240 86 l 1,24,-1
 240 755 l 1,25,-1
 85 794 l 1,26,-1
 92 846 l 1,27,-1
 357 876 l 1,28,-1
 369 862 l 1,29,-1
 359 730 l 1,30,-1
 367 730 l 1,31,32
 417 792 417 792 502 841 c 128,-1,0
 587 890 587 890 686 890 c 128,-1,1
EndSplineSet
Colour: ffffff
EndChar

StartChar: equal
Encoding: 61 61 97
Width: 800
VWidth: 0
Flags: HMW
LayerCount: 2
Fore
SplineSet
90 569 m 1,0,-1
 101 655 l 1,1,-1
 716 655 l 1,2,-1
 705 569 l 1,3,-1
 90 569 l 1,0,-1
87 330 m 1,4,-1
 98 415 l 1,5,-1
 713 415 l 1,6,-1
 702 330 l 1,7,-1
 87 330 l 1,4,-1
EndSplineSet
Colour: ffffff
EndChar

StartChar: eth
Encoding: 240 240 98
Width: 931
VWidth: 0
Flags: HMW
LayerCount: 2
Fore
SplineSet
506 50 m 0,0,1
 581 50 581 50 630 100 c 0,2,3
 721 193 721 193 721 407 c 128,-1,4
 721 621 721 621 639 747 c 128,-1,5
 557 873 557 873 456 875 c 1,6,-1
 451 875 l 1,7,8
 380 874 380 874 332 821 c 0,9,10
 246 724 246 724 246.5 505.5 c 128,-1,11
 247 287 247 287 320 168.5 c 128,-1,12
 393 50 393 50 506 50 c 0,0,1
107 451 m 0,13,14
 107 672 107 672 208 810.5 c 128,-1,15
 309 949 309 949 469 949 c 0,16,17
 530 949 530 949 587.5 912.5 c 128,-1,18
 645 876 645 876 667 820 c 1,19,-1
 674 821 l 1,20,21
 643 936 643 936 541 1086 c 1,22,-1
 309 1040 l 1,23,-1
 320 1103 l 1,24,-1
 507 1141 l 1,25,26
 438 1233 438 1233 361 1303 c 1,27,-1
 453 1303 l 1,28,29
 530 1255 530 1255 611 1164 c 1,30,-1
 767 1197 l 1,31,-1
 758 1133 l 1,32,-1
 655 1112 l 1,33,34
 858 843 858 843 858 465 c 0,35,36
 858 239 858 239 753 106 c 128,-1,37
 648 -27 648 -27 483 -27 c 0,38,39
 266 -27 266 -27 165 178 c 0,40,41
 107 296 107 296 107 451 c 0,13,14
EndSplineSet
Colour: ffffff
EndChar

StartChar: exclam
Encoding: 33 33 99
Width: 447
VWidth: 0
Flags: HMW
LayerCount: 2
Fore
SplineSet
162 1254 m 0,0,1
 162 1272 162 1272 195.5 1282.5 c 128,-1,2
 229 1293 229 1293 262 1293 c 0,3,4
 321 1293 321 1293 321 1254 c 0,5,6
 321 983 321 983 269 361 c 1,7,-1
 202 376 l 1,8,9
 162 1018 162 1018 162 1254 c 0,0,1
146 77.5 m 128,-1,11
 146 124 146 124 172 154 c 128,-1,12
 198 184 198 184 236.5 184 c 128,-1,13
 275 184 275 184 302 153.5 c 128,-1,14
 329 123 329 123 329 76 c 128,-1,15
 329 29 329 29 304 -3 c 128,-1,16
 279 -35 279 -35 237 -35 c 128,-1,17
 195 -35 195 -35 170.5 -2 c 128,-1,10
 146 31 146 31 146 77.5 c 128,-1,11
EndSplineSet
Colour: ffffff
EndChar

StartChar: exclamdown
Encoding: 161 161 100
Width: 434
VWidth: 0
Flags: HMW
LayerCount: 2
Fore
SplineSet
127 799 m 128,-1,1
 127 846 127 846 152 878 c 128,-1,2
 177 910 177 910 218.5 910 c 128,-1,3
 260 910 260 910 285 877 c 128,-1,4
 310 844 310 844 310 797.5 c 128,-1,5
 310 751 310 751 283.5 721.5 c 128,-1,6
 257 692 257 692 218.5 692 c 128,-1,7
 180 692 180 692 153.5 722 c 128,-1,0
 127 752 127 752 127 799 c 128,-1,1
135 -377 m 0,8,9
 135 -86 135 -86 186 524 c 1,10,-1
 189 529 l 1,11,-1
 253 515 l 1,12,-1
 253 512 l 1,13,14
 295 -158 295 -158 295 -375 c 2,15,-1
 295 -377 l 1,16,17
 289 -396 289 -396 257.5 -406.5 c 128,-1,18
 226 -417 226 -417 194 -417 c 0,19,20
 135 -417 135 -417 135 -377 c 0,8,9
EndSplineSet
Colour: ffffff
EndChar

StartChar: f
Encoding: 102 102 101
Width: 651
VWidth: 0
Flags: HMW
LayerCount: 2
Fore
SplineSet
234 791 m 1,0,-1
 85 791 l 1,1,-1
 97 845 l 1,2,-1
 235 867 l 1,3,4
 255 1084 255 1084 361 1195 c 0,5,6
 467 1305 467 1305 582 1305 c 0,7,8
 662 1305 662 1305 711 1274 c 128,-1,9
 760 1243 760 1243 760 1202 c 0,10,11
 760 1127 760 1127 691 1099 c 1,12,13
 606 1220 606 1220 514 1220 c 0,14,15
 452 1220 452 1220 411 1160 c 128,-1,16
 370 1100 370 1100 369 981 c 2,17,-1
 368 861 l 1,18,-1
 626 861 l 1,19,-1
 613 791 l 1,20,-1
 368 791 l 1,21,-1
 368 91 l 1,22,-1
 614 61 l 1,23,-1
 607 0 l 1,24,-1
 70 0 l 1,25,-1
 82 51 l 1,26,-1
 234 87 l 1,27,-1
 234 791 l 1,0,-1
EndSplineSet
Colour: ffffff
EndChar

StartChar: f.alt2
Encoding: 65537 -1 102
Width: 627
VWidth: 0
Flags: HMW
LayerCount: 2
Fore
SplineSet
234 791 m 1,0,-1
 85 791 l 1,1,-1
 97 845 l 1,2,-1
 235 867 l 1,3,4
 252 1176 252 1176 424 1278 c 0,5,6
 467 1304 467 1304 507 1304 c 0,7,8
 640 1304 640 1304 640 1220 c 0,9,10
 640 1163 640 1163 583 1136 c 1,11,12
 529 1214 529 1214 458 1214 c 0,13,14
 372 1214 372 1214 369 981 c 1,15,-1
 368 861 l 1,16,-1
 626 861 l 1,17,-1
 613 791 l 1,18,-1
 368 791 l 1,19,-1
 368 91 l 1,20,-1
 614 61 l 1,21,-1
 607 0 l 1,22,-1
 70 0 l 1,23,-1
 82 51 l 1,24,-1
 234 87 l 1,25,-1
 234 791 l 1,0,-1
EndSplineSet
Colour: ffffff
EndChar

StartChar: five
Encoding: 53 53 103
Width: 959
VWidth: 0
Flags: HMW
LayerCount: 2
Fore
SplineSet
385 58 m 128,-1,1
 503 58 503 58 566 126.5 c 128,-1,2
 629 195 629 195 629 308 c 0,3,4
 629 456 629 456 505.5 540.5 c 128,-1,5
 382 625 382 625 165 639 c 1,6,-1
 280 1171 l 1,7,-1
 729 1198 l 1,8,-1
 708 1049 l 1,9,-1
 323 1032 l 1,10,-1
 279 771 l 1,11,12
 650 748 650 748 748 516 c 0,13,14
 776 448 776 448 776 368 c 0,15,16
 776 211 776 211 654.5 97.5 c 128,-1,17
 533 -16 533 -16 358 -16 c 128,-1,18
 183 -16 183 -16 75 88 c 1,19,-1
 103 369 l 1,20,-1
 170 355 l 1,21,-1
 188 155 l 1,22,0
 267 58 267 58 385 58 c 128,-1,1
EndSplineSet
Substitution2: "'sups' Superscript lookup 0 subtable" five.superior
Colour: ffffff
EndChar

StartChar: five.osf
Encoding: 65538 -1 104
Width: 850
VWidth: 0
Flags: HMW
LayerCount: 2
Fore
SplineSet
-54 -147 m 0,0,1
 -54 -102 -54 -102 -24.5 -66.5 c 128,-1,2
 5 -31 5 -31 46 -26 c 1,3,4
 75 -107 75 -107 131.5 -164 c 128,-1,5
 188 -221 188 -221 282 -221 c 128,-1,6
 376 -221 376 -221 450.5 -146.5 c 128,-1,7
 525 -72 525 -72 525 74 c 128,-1,8
 525 220 525 220 414.5 307 c 128,-1,9
 304 394 304 394 98 413 c 1,10,-1
 193 923 l 1,11,-1
 638 961 l 1,12,-1
 617 821 l 1,13,-1
 250 796 l 1,14,-1
 208 537 l 1,15,16
 427 509 427 509 551.5 405 c 128,-1,17
 676 301 676 301 676 133 c 0,18,19
 676 21 676 21 618.5 -77 c 128,-1,20
 561 -175 561 -175 456 -236 c 0,21,22
 352 -297 352 -297 228 -297 c 128,-1,23
 104 -297 104 -297 25 -254.5 c 128,-1,24
 -54 -212 -54 -212 -54 -147 c 0,0,1
EndSplineSet
Colour: ffffff
EndChar

StartChar: four
Encoding: 52 52 105
Width: 972
VWidth: 0
Flags: HMW
LayerCount: 2
Fore
SplineSet
548 462 m 1,0,-1
 548 948 l 1,1,-1
 186 462 l 1,2,-1
 548 462 l 1,0,-1
695 683 m 2,3,-1
 695 462 l 1,4,-1
 950 462 l 1,5,-1
 934 357 l 1,6,-1
 695 357 l 1,7,-1
 695 89 l 1,8,-1
 901 64 l 1,9,-1
 890 0 l 1,10,-1
 298 0 l 1,11,-1
 305 57 l 1,12,-1
 552 95 l 1,13,-1
 552 361 l 1,14,-1
 57 361 l 1,15,-1
 38 415 l 1,16,-1
 655 1191 l 1,17,-1
 704 1176 l 1,18,19
 695 998 695 998 695 683 c 2,3,-1
EndSplineSet
Substitution2: "'sups' Superscript lookup 0 subtable" four.superior
Colour: ffffff
EndChar

StartChar: four.osf
Encoding: 65539 -1 106
Width: 944
VWidth: 0
Flags: HMW
LayerCount: 2
Fore
SplineSet
556 205 m 1,0,-1
 556 714 l 1,1,-1
 195 205 l 1,2,-1
 556 205 l 1,0,-1
697 454 m 2,3,-1
 697 205 l 1,4,-1
 952 205 l 1,5,-1
 936 105 l 1,6,-1
 698 105 l 1,7,-1
 698 -269 l 1,8,-1
 558 -300 l 1,9,-1
 558 108 l 1,10,-1
 67 108 l 1,11,-1
 49 159 l 1,12,-1
 658 978 l 1,13,-1
 707 963 l 1,14,15
 697 765 697 765 697 454 c 2,3,-1
EndSplineSet
Colour: ffffff
EndChar

StartChar: fraction
Encoding: 8260 8260 107
Width: 1738
VWidth: 0
Flags: HMW
LayerCount: 2
Fore
SplineSet
164 -26 m 1,0,-1
 540 588 l 1,1,-1
 895 1211 l 1,2,-1
 1025 1207 l 1,3,-1
 1025 1192 l 1,4,-1
 657 591 l 1,5,-1
 310 -40 l 1,6,-1
 164 -26 l 1,0,-1
EndSplineSet
Colour: ffffff
EndChar

StartChar: g
Encoding: 103 103 108
Width: 865
VWidth: 0
Flags: HMW
LayerCount: 2
Fore
SplineSet
252 603 m 128,-1,1
 252 503 252 503 306.5 431 c 128,-1,2
 361 359 361 359 433 359 c 128,-1,3
 505 359 505 359 549 411.5 c 128,-1,4
 593 464 593 464 593 566 c 128,-1,5
 593 668 593 668 544.5 746.5 c 128,-1,6
 496 825 496 825 415.5 825 c 128,-1,7
 335 825 335 825 293.5 764 c 128,-1,0
 252 703 252 703 252 603 c 128,-1,1
186 -116 m 0,8,9
 186 -299 186 -299 462 -299 c 0,10,11
 567 -299 567 -299 640 -250 c 128,-1,12
 713 -201 713 -201 713 -119 c 128,-1,13
 713 -37 713 -37 669 -10 c 128,-1,14
 625 17 625 17 492 17 c 2,15,-1
 280 17 l 1,16,17
 251 10 251 10 218.5 -25.5 c 128,-1,18
 186 -61 186 -61 186 -116 c 0,8,9
124 162 m 0,19,20
 124 197 124 197 170.5 243.5 c 128,-1,21
 217 290 217 290 276 322 c 1,22,-1
 276 327 l 1,23,24
 227 345 227 345 176 416 c 128,-1,25
 125 487 125 487 125 578 c 0,26,27
 125 702 125 702 220 793.5 c 128,-1,28
 315 885 315 885 430.5 885 c 128,-1,29
 546 885 546 885 635 822 c 1,30,-1
 854 838 l 1,31,-1
 870 820 l 1,32,-1
 835 725 l 1,33,-1
 823 723 l 1,34,-1
 682 764 l 1,35,-1
 679 753 l 1,36,37
 693 728 693 728 708 678.5 c 128,-1,38
 723 629 723 629 723 588 c 0,39,40
 723 506 723 506 674.5 436 c 128,-1,41
 626 366 626 366 554 328.5 c 128,-1,42
 482 291 482 291 421 291 c 128,-1,43
 360 291 360 291 315 306 c 1,44,45
 249 243 249 243 249 210 c 0,46,47
 249 132 249 132 419 132 c 2,48,-1
 573 132 l 2,49,50
 701 132 701 132 753.5 106.5 c 128,-1,51
 806 81 806 81 824 42 c 128,-1,52
 842 3 842 3 841 -70 c 128,-1,53
 840 -143 840 -143 777.5 -219 c 128,-1,54
 715 -295 715 -295 612.5 -341 c 128,-1,55
 510 -387 510 -387 376 -387 c 128,-1,56
 242 -387 242 -387 146 -329.5 c 128,-1,57
 50 -272 50 -272 50 -165 c 0,58,59
 50 -93 50 -93 106.5 -47 c 128,-1,60
 163 -1 163 -1 220 28 c 1,61,-1
 220 35 l 1,62,63
 124 80 124 80 124 162 c 0,19,20
EndSplineSet
Colour: ffffff
EndChar

StartChar: gdotaccent
Encoding: 289 289 109
Width: 865
VWidth: 0
Flags: HMW
LayerCount: 2
Fore
SplineSet
347 1093.5 m 128,-1,1
 347 1140 347 1140 370 1168 c 128,-1,2
 393 1196 393 1196 431 1196 c 128,-1,3
 469 1196 469 1196 493 1168 c 128,-1,4
 517 1140 517 1140 517 1093 c 128,-1,5
 517 1046 517 1046 494 1017 c 128,-1,6
 471 988 471 988 431.5 988 c 128,-1,7
 392 988 392 988 369.5 1017.5 c 128,-1,0
 347 1047 347 1047 347 1093.5 c 128,-1,1
252 603 m 128,-1,9
 252 503 252 503 306.5 431 c 128,-1,10
 361 359 361 359 433 359 c 128,-1,11
 505 359 505 359 549 411.5 c 128,-1,12
 593 464 593 464 593 566 c 128,-1,13
 593 668 593 668 544.5 746.5 c 128,-1,14
 496 825 496 825 415.5 825 c 128,-1,15
 335 825 335 825 293.5 764 c 128,-1,8
 252 703 252 703 252 603 c 128,-1,9
186 -116 m 0,16,17
 186 -299 186 -299 462 -299 c 0,18,19
 567 -299 567 -299 640 -250 c 128,-1,20
 713 -201 713 -201 713 -119 c 128,-1,21
 713 -37 713 -37 669 -10 c 128,-1,22
 625 17 625 17 492 17 c 2,23,-1
 280 17 l 1,24,25
 251 10 251 10 218.5 -25.5 c 128,-1,26
 186 -61 186 -61 186 -116 c 0,16,17
124 162 m 0,27,28
 124 197 124 197 170.5 243.5 c 128,-1,29
 217 290 217 290 276 322 c 1,30,-1
 276 327 l 1,31,32
 227 345 227 345 176 416 c 128,-1,33
 125 487 125 487 125 578 c 0,34,35
 125 702 125 702 220 793.5 c 128,-1,36
 315 885 315 885 430.5 885 c 128,-1,37
 546 885 546 885 635 822 c 1,38,-1
 854 838 l 1,39,-1
 870 820 l 1,40,-1
 835 725 l 1,41,-1
 823 723 l 1,42,-1
 682 764 l 1,43,-1
 679 753 l 1,44,45
 693 728 693 728 708 678.5 c 128,-1,46
 723 629 723 629 723 588 c 0,47,48
 723 506 723 506 674.5 436 c 128,-1,49
 626 366 626 366 554 328.5 c 128,-1,50
 482 291 482 291 421 291 c 128,-1,51
 360 291 360 291 315 306 c 1,52,53
 249 243 249 243 249 210 c 0,54,55
 249 132 249 132 419 132 c 2,56,-1
 573 132 l 2,57,58
 701 132 701 132 753.5 106.5 c 128,-1,59
 806 81 806 81 824 42 c 128,-1,60
 842 3 842 3 841 -70 c 128,-1,61
 840 -143 840 -143 777.5 -219 c 128,-1,62
 715 -295 715 -295 612.5 -341 c 128,-1,63
 510 -387 510 -387 376 -387 c 128,-1,64
 242 -387 242 -387 146 -329.5 c 128,-1,65
 50 -272 50 -272 50 -165 c 0,66,67
 50 -93 50 -93 106.5 -47 c 128,-1,68
 163 -1 163 -1 220 28 c 1,69,-1
 220 35 l 1,70,71
 124 80 124 80 124 162 c 0,27,28
EndSplineSet
Colour: ffffff
EndChar

StartChar: germandbls
Encoding: 223 223 110
Width: 1130
VWidth: 0
Flags: HMW
LayerCount: 2
Fore
SplineSet
233 804 m 1,0,-1
 86 804 l 1,1,-1
 97 853 l 1,2,-1
 235 877 l 1,3,4
 250 1128 250 1128 410 1244 c 0,5,6
 492 1304 492 1304 604 1304 c 128,-1,7
 716 1304 716 1304 793 1234 c 0,8,9
 870 1166 870 1166 870 1064 c 128,-1,10
 870 962 870 962 794 877 c 0,11,12
 762 842 762 842 730 810 c 0,13,14
 653 733 653 733 653 681.5 c 128,-1,15
 653 630 653 630 697.5 585 c 128,-1,16
 742 540 742 540 805 504.5 c 128,-1,17
 868 469 868 469 931 431 c 128,-1,18
 994 393 994 393 1038.5 337.5 c 128,-1,19
 1083 282 1083 282 1083 214 c 0,20,21
 1083 106 1083 106 994.5 36.5 c 128,-1,22
 906 -33 906 -33 786 -33 c 128,-1,23
 666 -33 666 -33 586.5 21.5 c 128,-1,24
 507 76 507 76 507 158 c 0,25,26
 507 208 507 208 537.5 236 c 128,-1,27
 568 264 568 264 613 269 c 1,28,29
 654 41 654 41 817 41 c 0,30,31
 883 41 883 41 924.5 73.5 c 128,-1,32
 966 106 966 106 966 151.5 c 128,-1,33
 966 197 966 197 935 231.5 c 128,-1,34
 904 266 904 266 858 292.5 c 128,-1,35
 812 319 812 319 758 353 c 128,-1,36
 704 387 704 387 658 421.5 c 128,-1,37
 612 456 612 456 581 508 c 128,-1,38
 550 560 550 560 550 615.5 c 128,-1,39
 550 671 550 671 570 716.5 c 128,-1,40
 590 762 590 762 618 796 c 0,41,42
 648 830 648 830 676 862 c 0,43,44
 744 940 744 940 744 1019.5 c 128,-1,45
 744 1099 744 1099 684 1159 c 128,-1,46
 624 1219 624 1219 540.5 1219 c 128,-1,47
 457 1219 457 1219 412.5 1148.5 c 128,-1,48
 368 1078 368 1078 368 945 c 2,49,-1
 368 0 l 1,50,-1
 70 0 l 1,51,-1
 82 52 l 1,52,-1
 233 88 l 1,53,-1
 233 804 l 1,0,-1
EndSplineSet
Colour: ffffff
EndChar

StartChar: grave
Encoding: 96 96 111
Width: 579
VWidth: 0
Flags: HMW
LayerCount: 2
Fore
SplineSet
150 1661 m 1,0,-1
 254 1698 l 1,1,-1
 387 1363 l 1,2,-1
 336 1332 l 1,3,-1
 150 1661 l 1,0,-1
EndSplineSet
Colour: ffffff
EndChar

StartChar: greater
Encoding: 62 62 112
Width: 697
VWidth: 0
Flags: HMW
LayerCount: 2
Fore
SplineSet
67 -25 m 1,0,-1
 558 437 l 1,1,-1
 87 914 l 1,2,-1
 122 974 l 1,3,-1
 743 456 l 1,4,-1
 744 427 l 1,5,-1
 109 -82 l 1,6,-1
 67 -25 l 1,0,-1
EndSplineSet
Colour: ffffff
EndChar

StartChar: guilsinglleft
Encoding: 8249 8249 113
Width: 432
VWidth: 0
Flags: HMW
LayerCount: 2
Fore
SplineSet
51 469 m 1,0,-1
 319 821 l 1,1,-1
 355 774 l 1,2,-1
 179 461 l 1,3,-1
 356 128 l 1,4,-1
 314 77 l 1,5,-1
 53 449 l 1,6,-1
 51 469 l 1,0,-1
EndSplineSet
Colour: ffffff
EndChar

StartChar: h
Encoding: 104 104 114
Width: 1046
VWidth: 0
Flags: HMW
LayerCount: 2
Fore
SplineSet
347 733 m 1,0,1
 490 891 490 891 666 891 c 0,2,3
 762 891 762 891 823 821 c 128,-1,4
 884 751 884 751 884 588 c 2,5,-1
 884 86 l 1,6,-1
 1026 58 l 1,7,-1
 1017 0 l 1,8,-1
 606 0 l 1,9,-1
 615 54 l 1,10,-1
 752 86 l 1,11,-1
 755 561 l 1,12,-1
 755 568 l 2,13,14
 755 681 755 681 706 732 c 128,-1,15
 657 783 657 783 581 783 c 0,16,17
 455 783 455 783 352 670 c 1,18,-1
 352 87 l 1,19,-1
 497 58 l 1,20,-1
 487 0 l 1,21,-1
 55 0 l 1,22,-1
 66 57 l 1,23,-1
 220 87 l 1,24,-1
 220 1154 l 1,25,-1
 63 1196 l 1,26,-1
 72 1250 l 1,27,-1
 336 1271 l 1,28,-1
 352 1254 l 1,29,-1
 352 839 l 1,30,-1
 339 733 l 1,31,-1
 347 733 l 1,0,1
EndSplineSet
Colour: ffffff
EndChar

StartChar: hbar
Encoding: 295 295 115
Width: 1046
VWidth: 0
Flags: HMW
LayerCount: 2
Fore
SplineSet
335 733 m 1,0,1
 478 891 478 891 654 891 c 0,2,3
 750 891 750 891 811 821 c 128,-1,4
 872 751 872 751 872 588 c 2,5,-1
 872 86 l 1,6,-1
 1014 58 l 1,7,-1
 1005 0 l 1,8,-1
 594 0 l 1,9,-1
 603 54 l 1,10,-1
 740 86 l 1,11,-1
 743 561 l 1,12,-1
 743 568 l 2,13,14
 743 681 743 681 694 732 c 128,-1,15
 645 783 645 783 569 783 c 0,16,17
 443 783 443 783 340 670 c 1,18,-1
 340 87 l 1,19,-1
 485 58 l 1,20,-1
 475 0 l 1,21,-1
 43 0 l 1,22,-1
 54 57 l 1,23,-1
 208 87 l 1,24,-1
 208 978 l 1,25,-1
 30 978 l 1,26,-1
 39 1043 l 1,27,-1
 208 1043 l 1,28,-1
 208 1154 l 1,29,-1
 51 1196 l 1,30,-1
 60 1250 l 1,31,-1
 324 1271 l 1,32,-1
 340 1254 l 1,33,-1
 340 1043 l 1,34,-1
 667 1043 l 1,35,-1
 659 978 l 1,36,-1
 340 978 l 1,37,-1
 340 839 l 1,38,-1
 327 733 l 1,39,-1
 335 733 l 1,0,1
EndSplineSet
Colour: ffffff
EndChar

StartChar: hungarumlaut
Encoding: 733 733 116
Width: 744
VWidth: 0
Flags: HMW
LayerCount: 2
Fore
SplineSet
323 1401 m 1,0,-1
 574 1601 l 1,1,-1
 639 1527 l 1,2,-1
 348 1359 l 1,3,-1
 323 1401 l 1,0,-1
113 1401 m 1,4,-1
 370 1609 l 1,5,-1
 437 1531 l 1,6,-1
 137 1359 l 1,7,-1
 113 1401 l 1,4,-1
EndSplineSet
Colour: ffffff
EndChar

StartChar: hyphen
Encoding: 45 45 117
Width: 573
VWidth: 0
Flags: HMW
LayerCount: 2
Fore
SplineSet
81 409 m 1,0,-1
 92 489 l 1,1,-1
 500 507 l 1,2,-1
 489 426 l 1,3,-1
 81 409 l 1,0,-1
EndSplineSet
Colour: ffffff
EndChar

StartChar: i
Encoding: 105 105 118
Width: 555
VWidth: 0
Flags: HMW
LayerCount: 2
Back
SplineSet
4.58008 -395.961 m 5,0,1
 49.3211 -362.489 49.3211 -362.489 84.7541 -327.597 c 0
 120.187 -292.705 120.187 -292.705 156.487 -240 c 0
 192.786 -187.295 192.786 -187.295 216.836 -126.787 c 0
 240.886 -66.2788 240.886 -66.2788 256.077 18.0973 c 0
 271.268 102.473 271.268 102.473 271.268 201.034 c 2,2,-1
 271.268 954.783 l 1,3,-1
 81.9395 1006.19 l 1,4,-1
 93.1367 1073.37 l 1,5,-1
 416.826 1099.32 l 1,6,-1
 437.693 1077.95 l 1,7,-1
 437.693 189.328 l 2,8,9
 437.693 -241.77 437.693 -241.77 111.968 -446.854 c 1,10,-1
 56.4932 -481.463 l 1,11,-1
 4.58008 -395.961 l 5,0,1
228.008 1495.79 m 4,12,13
 228.008 1556.85 228.008 1556.85 260.661 1594.01 c 0
 293.314 1631.17 293.314 1631.17 345.574 1631.17 c 0,14,15
 396.891 1631.17 396.891 1631.17 430.27 1593.46 c 0
 463.65 1555.74 463.65 1555.74 463.65 1495.28 c 0,16,17
 463.65 1432.01 463.65 1432.01 430.955 1392.39 c 0
 398.26 1352.78 398.26 1352.78 345.065 1352.78 c 0,18,19
 292.287 1352.78 292.287 1352.78 260.148 1392.95 c 0
 228.008 1433.13 228.008 1433.13 228.008 1495.79 c 4,12,13
EndSplineSet
Fore
SplineSet
213 1198.5 m 128,-1,1
 213 1245 213 1245 236 1273 c 128,-1,2
 259 1301 259 1301 297 1301 c 128,-1,3
 335 1301 335 1301 359 1273 c 128,-1,4
 383 1245 383 1245 383 1198 c 128,-1,5
 383 1151 383 1151 360 1122 c 128,-1,6
 337 1093 337 1093 297.5 1093 c 128,-1,7
 258 1093 258 1093 235.5 1122.5 c 128,-1,0
 213 1152 213 1152 213 1198.5 c 128,-1,1
80 0 m 1,8,-1
 92 55 l 1,9,-1
 243 87 l 1,10,-1
 243 772 l 1,11,-1
 91 814 l 1,12,-1
 99 865 l 1,13,-1
 358 887 l 1,14,-1
 374 871 l 1,15,-1
 374 87 l 1,16,-1
 534 57 l 1,17,-1
 523 0 l 1,18,-1
 80 0 l 1,8,-1
EndSplineSet
Colour: ffffff
EndChar

StartChar: igrave
Encoding: 236 236 119
Width: 555
VWidth: 0
Flags: HMW
LayerCount: 2
Fore
SplineSet
122 1319 m 1,0,-1
 226 1356 l 1,1,-1
 359 1021 l 1,2,-1
 308 990 l 1,3,-1
 122 1319 l 1,0,-1
80 0 m 1,4,-1
 92 55 l 1,5,-1
 243 87 l 1,6,-1
 243 772 l 1,7,-1
 91 814 l 1,8,-1
 99 865 l 1,9,-1
 358 887 l 1,10,-1
 374 871 l 1,11,-1
 374 87 l 1,12,-1
 534 57 l 1,13,-1
 523 0 l 1,14,-1
 80 0 l 1,4,-1
EndSplineSet
Colour: ffffff
EndChar

StartChar: infinity
Encoding: 8734 8734 120
Width: 1376
VWidth: 0
Flags: HMW
LayerCount: 2
Fore
SplineSet
1052 331 m 128,-1,1
 1133 331 1133 331 1184 388 c 128,-1,2
 1235 445 1235 445 1235 525 c 128,-1,3
 1235 605 1235 605 1157.5 671.5 c 128,-1,4
 1080 738 1080 738 984 738 c 0,5,6
 848 738 848 738 730 600 c 1,7,8
 820 458 820 458 895.5 394.5 c 128,-1,0
 971 331 971 331 1052 331 c 128,-1,1
139 550.5 m 128,-1,10
 139 458 139 458 212.5 397.5 c 128,-1,11
 286 337 286 337 380.5 337 c 128,-1,12
 475 337 475 337 546 373.5 c 128,-1,13
 617 410 617 410 653 464 c 1,14,15
 550 620 550 620 481.5 681.5 c 128,-1,16
 413 743 413 743 328 743 c 128,-1,17
 243 743 243 743 191 693 c 128,-1,9
 139 643 139 643 139 550.5 c 128,-1,10
64 511.5 m 128,-1,19
 64 654 64 654 154.5 758 c 128,-1,20
 245 862 245 862 379 862 c 0,21,22
 475 862 475 862 550 815 c 128,-1,23
 625 768 625 768 695 655 c 1,24,-1
 701 657 l 1,25,26
 846 858 846 858 1021 858 c 0,27,28
 1141 858 1141 858 1219.5 773.5 c 128,-1,29
 1298 689 1298 689 1298 549 c 128,-1,30
 1298 409 1298 409 1206 312.5 c 128,-1,31
 1114 216 1114 216 985 216 c 0,32,33
 818 216 818 216 688 415 c 1,34,-1
 682 415 l 1,35,36
 557 212 557 212 366 212 c 0,37,38
 230 212 230 212 147 290.5 c 128,-1,18
 64 369 64 369 64 511.5 c 128,-1,19
EndSplineSet
Colour: ffffff
EndChar

StartChar: integral
Encoding: 8747 8747 121
Width: 918
VWidth: 0
Flags: HMW
LayerCount: 2
Fore
SplineSet
10 -280 m 0,0,1
 10 -205 10 -205 79 -177 c 1,2,3
 163 -298 163 -298 257 -298 c 0,4,5
 318 -298 318 -298 357 -238.5 c 128,-1,6
 396 -179 396 -179 402 -58 c 1,7,-1
 405 834 l 2,8,9
 405 1106 405 1106 568 1236 c 0,10,11
 654 1304 654 1304 742 1304.5 c 128,-1,12
 830 1305 830 1305 879.5 1274 c 128,-1,13
 929 1243 929 1243 929 1202 c 0,14,15
 929 1128 929 1128 859 1099 c 1,16,17
 774 1220 774 1220 681 1220 c 0,18,19
 619 1220 619 1220 578.5 1159 c 128,-1,20
 538 1098 538 1098 536 981 c 1,21,-1
 537 82 l 2,22,23
 537 -36 537 -36 503.5 -129 c 128,-1,24
 470 -222 470 -222 417 -276 c 0,25,26
 310 -384 310 -384 189 -384 c 0,27,28
 109 -384 109 -384 59.5 -353 c 128,-1,29
 10 -322 10 -322 10 -280 c 0,0,1
EndSplineSet
Colour: ffffff
EndChar

StartChar: j
Encoding: 106 106 122
Width: 460
VWidth: 0
Flags: HMW
LayerCount: 2
Fore
SplineSet
182 1190.5 m 128,-1,1
 182 1240 182 1240 208 1269.5 c 128,-1,2
 234 1299 234 1299 275 1299 c 128,-1,3
 316 1299 316 1299 342.5 1269 c 128,-1,4
 369 1239 369 1239 369 1189.5 c 128,-1,5
 369 1140 369 1140 343 1108.5 c 128,-1,6
 317 1077 317 1077 275 1077 c 128,-1,7
 233 1077 233 1077 207.5 1109 c 128,-1,0
 182 1141 182 1141 182 1190.5 c 128,-1,1
216 160 m 2,8,-1
 216 760 l 1,9,-1
 65 801 l 1,10,-1
 74 855 l 1,11,-1
 332 875 l 1,12,-1
 349 858 l 1,13,-1
 349 151 l 2,14,15
 349 -191 349 -191 89 -356 c 1,16,-1
 45 -383 l 1,17,-1
 4 -315 l 1,18,19
 160 -198 160 -198 199 -16 c 0,20,21
 216 62 216 62 216 160 c 2,8,-1
EndSplineSet
Colour: ffffff
EndChar

StartChar: k
Encoding: 107 107 123
Width: 977
VWidth: 0
Flags: HMW
LayerCount: 2
Fore
SplineSet
864.5 -20 m 128,-1,1
 817 -20 817 -20 783 -8.5 c 128,-1,2
 749 3 749 3 694 51.5 c 128,-1,3
 639 100 639 100 516 258 c 2,4,-1
 382 429 l 1,5,-1
 382 447 l 1,6,-1
 668 781 l 1,7,-1
 534 818 l 1,8,-1
 542 873 l 1,9,-1
 935 873 l 1,10,-1
 925 819 l 1,11,-1
 775 782 l 1,12,-1
 510 473 l 1,13,-1
 610 355 l 2,14,15
 637 323 637 323 680.5 269.5 c 128,-1,16
 724 216 724 216 741 196 c 0,17,18
 803 123 803 123 846 97 c 128,-1,19
 889 71 889 71 942 64 c 2,20,-1
 981 59 l 1,21,-1
 972 0 l 1,22,0
 912 -20 912 -20 864.5 -20 c 128,-1,1
59 0 m 1,23,-1
 69 55 l 1,24,-1
 223 87 l 1,25,-1
 223 1151 l 1,26,-1
 67 1192 l 1,27,-1
 73 1244 l 1,28,-1
 336 1266 l 1,29,-1
 352 1249 l 1,30,-1
 352 87 l 1,31,-1
 512 57 l 1,32,-1
 503 0 l 1,33,-1
 59 0 l 1,23,-1
EndSplineSet
Colour: ffffff
EndChar

StartChar: l
Encoding: 108 108 124
Width: 540
VWidth: 0
Flags: HMW
LayerCount: 2
Fore
SplineSet
59 0 m 1,0,-1
 69 55 l 1,1,-1
 223 87 l 1,2,-1
 223 1156 l 1,3,-1
 67 1197 l 1,4,-1
 73 1249 l 1,5,-1
 335 1270 l 1,6,-1
 352 1254 l 1,7,-1
 352 87 l 1,8,-1
 513 57 l 1,9,-1
 501 0 l 1,10,-1
 59 0 l 1,0,-1
EndSplineSet
Colour: ffffff
EndChar

StartChar: logicalnot
Encoding: 172 172 125
Width: 931
VWidth: 0
Flags: HMW
LayerCount: 2
Fore
SplineSet
747 584 m 1,0,-1
 78 584 l 1,1,-1
 90 664 l 1,2,-1
 835 664 l 1,3,-1
 836 351 l 1,4,-1
 747 332 l 1,5,-1
 747 584 l 1,0,-1
EndSplineSet
Colour: ffffff
EndChar

StartChar: lozenge
Encoding: 9674 9674 126
Width: 941
VWidth: 0
Flags: HMW
LayerCount: 2
Fore
SplineSet
230 474 m 1,0,-1
 472 759 l 1,1,-1
 715 472 l 1,2,-1
 474 180 l 1,3,-1
 230 474 l 1,0,-1
EndSplineSet
Colour: ffffff
EndChar

StartChar: lslash
Encoding: 322 322 127
Width: 548
VWidth: 0
Flags: HMW
LayerCount: 2
Fore
SplineSet
52 443 m 1,0,-1
 68 549 l 1,1,-1
 213 662 l 1,2,-1
 213 1156 l 1,3,-1
 58 1197 l 1,4,-1
 64 1249 l 1,5,-1
 326 1270 l 1,6,-1
 343 1254 l 1,7,-1
 343 763 l 1,8,-1
 484 873 l 1,9,-1
 467 768 l 1,10,-1
 343 671 l 1,11,-1
 343 87 l 1,12,-1
 503 57 l 1,13,-1
 492 0 l 1,14,-1
 50 0 l 1,15,-1
 60 55 l 1,16,-1
 213 87 l 1,17,-1
 213 569 l 1,18,-1
 52 443 l 1,0,-1
EndSplineSet
Colour: ffffff
EndChar

StartChar: m
Encoding: 109 109 128
Width: 1592
VWidth: 0
Flags: HMW
LayerCount: 2
Fore
SplineSet
671.5 889 m 128,-1,1
 755 889 755 889 813 846.5 c 128,-1,2
 871 804 871 804 889 723 c 1,3,-1
 900 723 l 1,4,5
 952 790 952 790 1032.5 837.5 c 128,-1,6
 1113 885 1113 885 1201 885 c 0,7,8
 1327 885 1327 885 1382 810 c 128,-1,9
 1437 735 1437 735 1437 597 c 2,10,-1
 1437 87 l 1,11,-1
 1579 60 l 1,12,-1
 1566 2 l 1,13,-1
 1169 2 l 1,14,-1
 1175 54 l 1,15,-1
 1305 86 l 1,16,-1
 1305 573 l 2,17,18
 1305 672 1305 672 1259.5 726 c 128,-1,19
 1214 780 1214 780 1129 780 c 0,20,21
 1018 780 1018 780 905 660 c 1,22,-1
 905 86 l 1,23,-1
 1044 58 l 1,24,-1
 1036 0 l 1,25,-1
 638 0 l 1,26,-1
 646 54 l 1,27,-1
 779 86 l 1,28,-1
 779 573 l 2,29,30
 779 667 779 667 732.5 724 c 128,-1,31
 686 781 686 781 612 781 c 0,32,33
 465 781 465 781 373 666 c 1,34,-1
 373 86 l 1,35,-1
 516 58 l 1,36,-1
 506 0 l 1,37,-1
 81 0 l 1,38,-1
 90 54 l 1,39,-1
 242 86 l 1,40,-1
 242 753 l 1,41,-1
 85 793 l 1,42,-1
 91 845 l 1,43,-1
 360 875 l 1,44,-1
 372 861 l 1,45,-1
 361 728 l 1,46,-1
 369 728 l 1,47,48
 423 794 423 794 505.5 841.5 c 128,-1,0
 588 889 588 889 671.5 889 c 128,-1,1
EndSplineSet
Colour: ffffff
EndChar

StartChar: macron
Encoding: 175 175 129
Width: 667
VWidth: 0
Flags: HMW
LayerCount: 2
Fore
SplineSet
108 1380 m 1,0,-1
 119 1456 l 1,1,-1
 560 1456 l 1,2,-1
 550 1380 l 1,3,-1
 108 1380 l 1,0,-1
EndSplineSet
Colour: ffffff
EndChar

StartChar: minus
Encoding: 8722 8722 130
Width: 804
VWidth: 0
Flags: HMW
LayerCount: 2
Fore
SplineSet
90 421 m 1,0,-1
 107 505 l 1,1,-1
 718 508 l 1,2,-1
 701 424 l 1,3,-1
 90 421 l 1,0,-1
EndSplineSet
Colour: ffffff
EndChar

StartChar: mu
Encoding: 956 956 131
Width: 1017
VWidth: 0
Flags: HMW
LayerCount: 2
Fore
SplineSet
203 494 m 2,0,-1
 203 761 l 1,1,-1
 58 803 l 1,2,-1
 66 857 l 1,3,-1
 315 878 l 1,4,-1
 332 860 l 1,5,-1
 332 316 l 2,6,7
 332 82 332 82 502 82 c 0,8,9
 603 82 603 82 709 186 c 1,10,-1
 709 759 l 1,11,-1
 551 795 l 1,12,-1
 557 854 l 1,13,-1
 823 878 l 1,14,-1
 837 860 l 1,15,-1
 837 222 l 2,16,17
 837 146 837 146 859 112.5 c 128,-1,18
 881 79 881 79 938 68 c 1,19,-1
 990 57 l 1,20,-1
 984 -2 l 1,21,22
 919 -21 919 -21 855.5 -21 c 128,-1,23
 792 -21 792 -21 756.5 18.5 c 128,-1,24
 721 58 721 58 721 119 c 2,25,-1
 721 131 l 1,26,-1
 709 131 l 1,27,28
 587 -24 587 -24 431 -24 c 0,29,30
 321 -24 321 -24 277 49 c 1,31,-1
 271 49 l 1,32,33
 272 37 272 37 274.5 -12 c 128,-1,34
 277 -61 277 -61 279 -86 c 2,35,-1
 294 -388 l 1,36,-1
 183 -362 l 1,37,38
 203 18 203 18 203 494 c 2,0,-1
EndSplineSet
Colour: ffffff
EndChar

StartChar: multiply
Encoding: 215 215 132
Width: 779
VWidth: 0
Flags: HMW
LayerCount: 2
Fore
SplineSet
65 302 m 1,0,-1
 235 462 l 1,1,-1
 66 625 l 1,2,-1
 137 681 l 1,3,-1
 295 514 l 1,4,-1
 464 686 l 1,5,-1
 520 615 l 1,6,-1
 352 458 l 1,7,-1
 525 292 l 1,8,-1
 455 236 l 1,9,-1
 291 407 l 1,10,-1
 122 232 l 1,11,-1
 65 302 l 1,0,-1
EndSplineSet
Colour: ffffff
EndChar

StartChar: n
Encoding: 110 110 133
Width: 1071
VWidth: 0
Flags: HMW
LayerCount: 2
Fore
SplineSet
686 890 m 128,-1,1
 785 890 785 890 847 817 c 128,-1,2
 909 744 909 744 909 600 c 2,3,-1
 909 86 l 1,4,-1
 1050 58 l 1,5,-1
 1043 0 l 1,6,-1
 630 0 l 1,7,-1
 638 52 l 1,8,-1
 778 86 l 1,9,-1
 778 568 l 2,10,11
 778 676 778 676 730.5 728.5 c 128,-1,12
 683 781 683 781 610.5 781 c 128,-1,13
 538 781 538 781 484 755.5 c 128,-1,14
 430 730 430 730 370 670 c 1,15,-1
 370 86 l 1,16,-1
 516 58 l 1,17,-1
 506 0 l 1,18,-1
 79 0 l 1,19,-1
 87 52 l 1,20,-1
 240 86 l 1,21,-1
 240 755 l 1,22,-1
 85 794 l 1,23,-1
 92 846 l 1,24,-1
 357 876 l 1,25,-1
 369 862 l 1,26,-1
 359 730 l 1,27,-1
 367 730 l 1,28,29
 417 792 417 792 502 841 c 128,-1,0
 587 890 587 890 686 890 c 128,-1,1
EndSplineSet
Colour: ffffff
EndChar

StartChar: nine
Encoding: 57 57 134
Width: 937
VWidth: 0
Flags: HMW
LayerCount: 2
Fore
SplineSet
473 1144 m 0,0,1
 264 1144 264 1144 264 862 c 0,2,3
 264 728 264 728 322 646.5 c 128,-1,4
 380 565 380 565 488 565 c 0,5,6
 551 565 551 565 603.5 590.5 c 128,-1,7
 656 616 656 616 679 651 c 1,8,9
 688 702 688 702 688 793 c 0,10,11
 688 945 688 945 626 1044.5 c 128,-1,12
 564 1144 564 1144 473 1144 c 0,0,1
106 824.5 m 128,-1,14
 106 984 106 984 219 1096.5 c 128,-1,15
 332 1209 332 1209 488 1209 c 0,16,17
 705 1209 705 1209 797 1019 c 0,18,19
 850 909 850 909 850 742 c 128,-1,20
 850 575 850 575 776 409 c 128,-1,21
 702 243 702 243 560 125 c 128,-1,22
 418 7 418 7 236 -27 c 1,23,-1
 217 31 l 1,24,25
 483 108 483 108 595 316 c 0,26,27
 655 427 655 427 676 576 c 1,28,-1
 666 576 l 1,29,30
 557 472 557 472 411.5 472 c 128,-1,31
 266 472 266 472 186 568.5 c 128,-1,13
 106 665 106 665 106 824.5 c 128,-1,14
EndSplineSet
Substitution2: "'sups' Superscript lookup 0 subtable" nine.superior
Colour: ffffff
EndChar

StartChar: nine.osf
Encoding: 65540 -1 135
Width: 796
VWidth: 0
Flags: HMW
LayerCount: 2
Fore
SplineSet
203 602 m 0,0,1
 203 465 203 465 255 390 c 128,-1,2
 307 315 307 315 409 315 c 0,3,4
 470 315 470 315 516.5 339 c 128,-1,5
 563 363 563 363 587 398 c 1,6,7
 595 445 595 445 595 569.5 c 128,-1,8
 595 694 595 694 537 793.5 c 128,-1,9
 479 893 479 893 389 893 c 0,10,11
 203 893 203 893 203 602 c 0,0,1
52 576.5 m 128,-1,13
 52 735 52 735 155.5 847 c 128,-1,14
 259 959 259 959 408 959 c 0,15,16
 668 958 668 958 732 680 c 0,17,18
 750 604 750 604 749 511 c 0,19,20
 749 346 749 346 671 185.5 c 128,-1,21
 593 25 593 25 457.5 -95.5 c 128,-1,22
 322 -216 322 -216 157 -271 c 1,23,-1
 135 -213 l 1,24,25
 489 -53 489 -53 583 322 c 1,26,-1
 574 322 l 1,27,28
 478 223 478 223 338.5 223 c 128,-1,29
 199 223 199 223 125.5 320.5 c 128,-1,12
 52 418 52 418 52 576.5 c 128,-1,13
EndSplineSet
Colour: ffffff
EndChar

StartChar: notequal
Encoding: 8800 8800 136
Width: 800
VWidth: 0
Flags: HMW
LayerCount: 2
Fore
SplineSet
20 567 m 1,0,-1
 32 652 l 1,1,-1
 463 652 l 1,2,-1
 612 869 l 1,3,-1
 710 872 l 1,4,-1
 561 652 l 1,5,-1
 743 652 l 1,6,-1
 732 567 l 1,7,-1
 498 567 l 1,8,-1
 384 412 l 1,9,-1
 741 412 l 1,10,-1
 730 327 l 1,11,-1
 332 327 l 1,12,-1
 148 58 l 1,13,-1
 50 54 l 1,14,-1
 234 327 l 1,15,-1
 17 327 l 1,16,-1
 29 412 l 1,17,-1
 301 412 l 1,18,-1
 412 567 l 1,19,-1
 20 567 l 1,0,-1
EndSplineSet
Colour: ffffff
EndChar

StartChar: numbersign
Encoding: 35 35 137
Width: 914
VWidth: 0
Flags: HMW
LayerCount: 2
Back
SplineSet
261.599 313.002 m 1,0,-1
 229.535 350.154 l 1,1,-1
 414.791 909.487 l 1,2,-1
 482.48 1069.3 l 1,3,-1
 382.219 1069.3 l 1,4,-1
 390.871 1112.56 l 1,5,-1
 488.08 1112.56 l 1,6,-1
 508.946 1233.18 l 1,7,-1
 546.608 1239.79 l 1,8,-1
 526.25 1112.56 l 1,9,-1
 682.497 1112.56 l 1,10,-1
 701.837 1233.18 l 1,11,-1
 738.48 1238.27 l 1,12,-1
 718.633 1112.56 l 1,13,-1
 825.511 1112.56 l 1,14,-1
 815.841 1069.3 l 1,15,-1
 714.561 1069.3 l 1,16,-1
 690.131 915.594 l 1,17,-1
 789.376 915.594 l 1,18,-1
 781.232 873.861 l 1,19,-1
 683.006 873.861 l 1,20,-1
 666.211 747.642 l 1,21,-1
 625.495 743.062 l 1,22,-1
 646.361 873.861 l 1,23,-1
 491.642 873.861 l 1,24,-1
 472.302 747.642 l 1,25,-1
 431.078 743.062 l 1,26,-1
 451.945 873.861 l 1,27,-1
 261.599 313.002 l 1,0,-1
285.52 713.543 m 1,28,-1
 450.926 756.803 l 1,29,-1
 981.757 910.505 l 1,30,-1
 816.858 867.244 l 1,31,-1
 285.52 713.543 l 1,28,-1
EndSplineSet
Fore
SplineSet
593 -19 m 1,0,-1
 499 -26 l 1,1,-1
 552 326 l 1,2,-1
 327 326 l 1,3,-1
 275 -19 l 1,4,-1
 182 -26 l 1,5,-1
 235 326 l 1,6,-1
 -30 326 l 1,7,-1
 -3 427 l 1,8,-1
 250 427 l 1,9,-1
 293 712 l 1,10,-1
 41 712 l 1,11,-1
 69 813 l 1,12,-1
 308 813 l 1,13,-1
 359 1150 l 1,14,-1
 452 1160 l 1,15,-1
 400 813 l 1,16,-1
 625 813 l 1,17,-1
 676 1150 l 1,18,-1
 769 1159 l 1,19,-1
 717 813 l 1,20,-1
 979 813 l 1,21,-1
 954 712 l 1,22,-1
 702 712 l 1,23,-1
 660 427 l 1,24,-1
 905 427 l 1,25,-1
 879 326 l 1,26,-1
 645 326 l 1,27,-1
 593 -19 l 1,0,-1
567 427 m 1,28,-1
 610 712 l 1,29,-1
 385 712 l 1,30,-1
 342 427 l 1,31,-1
 567 427 l 1,28,-1
EndSplineSet
Colour: ffffff
EndChar

StartChar: o
Encoding: 111 111 138
Width: 944
VWidth: 0
Flags: HMW
LayerCount: 2
Fore
SplineSet
235 495 m 128,-1,1
 235 369 235 369 266 273.5 c 128,-1,2
 297 178 297 178 363.5 116 c 128,-1,3
 430 54 430 54 527.5 54 c 128,-1,4
 625 54 625 54 686 148.5 c 128,-1,5
 747 243 747 243 747 392 c 0,6,7
 746 541 746 541 678 668 c 0,8,9
 644 730 644 730 590 768 c 128,-1,10
 536 806 536 806 469 806 c 0,11,12
 360 806 360 806 297.5 713.5 c 128,-1,0
 235 621 235 621 235 495 c 128,-1,1
94 422.5 m 128,-1,14
 94 630 94 630 215.5 760.5 c 128,-1,15
 337 891 337 891 512 891 c 0,16,17
 625 891 625 891 711.5 831 c 128,-1,18
 798 771 798 771 843 669 c 128,-1,19
 888 567 888 567 888 439 c 0,20,21
 888 234 888 234 771.5 103.5 c 128,-1,22
 655 -27 655 -27 482 -27 c 128,-1,23
 309 -27 309 -27 201.5 94 c 128,-1,13
 94 215 94 215 94 422.5 c 128,-1,14
EndSplineSet
Colour: ffffff
EndChar

StartChar: oe
Encoding: 339 339 139
Width: 1416
VWidth: 0
Flags: HMW
LayerCount: 2
Fore
SplineSet
1200 633.5 m 128,-1,1
 1200 711 1200 711 1157 758 c 128,-1,2
 1114 805 1114 805 1039.5 805 c 128,-1,3
 965 805 965 805 905 726 c 128,-1,4
 845 647 845 647 841 505 c 1,5,-1
 1192 527 l 1,6,0
 1200 556 1200 556 1200 633.5 c 128,-1,1
213 502.5 m 128,-1,8
 213 376 213 376 243.5 279 c 128,-1,9
 274 182 274 182 337.5 119.5 c 128,-1,10
 401 57 401 57 489.5 57 c 128,-1,11
 578 57 578 57 638 154.5 c 128,-1,12
 698 252 698 252 698 371.5 c 128,-1,13
 698 491 698 491 670.5 584.5 c 128,-1,14
 643 678 643 678 581.5 742.5 c 128,-1,15
 520 807 520 807 423.5 807 c 128,-1,16
 327 807 327 807 270 718 c 128,-1,7
 213 629 213 629 213 502.5 c 128,-1,8
443 -27 m 0,17,18
 274 -27 274 -27 172 96.5 c 128,-1,19
 70 220 70 220 70 417 c 0,20,21
 70 527 70 527 103 618.5 c 128,-1,22
 136 710 136 710 192 768 c 0,23,24
 309 890 309 890 466 890 c 0,25,26
 566 890 566 890 653.5 839.5 c 128,-1,27
 741 789 741 789 778 701 c 1,28,29
 825 780 825 780 907.5 833 c 128,-1,30
 990 886 990 886 1098 886 c 128,-1,31
 1206 886 1206 886 1273 814 c 128,-1,32
 1340 742 1340 742 1340 590 c 0,33,34
 1340 513 1340 513 1323 447 c 1,35,-1
 840 442 l 1,36,37
 840 287 840 287 914 180 c 128,-1,38
 988 73 988 73 1112 73 c 128,-1,39
 1236 73 1236 73 1346 148 c 1,40,-1
 1368 104 l 1,41,42
 1253 -30 1253 -30 1057 -30 c 0,43,44
 957 -30 957 -30 881.5 21.5 c 128,-1,45
 806 73 806 73 760 161 c 1,46,47
 647 -27 647 -27 443 -27 c 0,17,18
EndSplineSet
Colour: ffffff
EndChar

StartChar: ogonek
Encoding: 731 731 140
Width: 486
VWidth: 0
Flags: HMW
LayerCount: 2
Fore
SplineSet
125 -220 m 128,-1,1
 125 -164 125 -164 152.5 -116.5 c 128,-1,2
 180 -69 180 -69 259 3 c 1,3,-1
 318 3 l 1,4,5
 248 -96 248 -96 248 -157 c 0,6,7
 248 -266 248 -266 381 -344 c 1,8,-1
 347 -387 l 1,9,10
 243 -376 243 -376 184 -326 c 128,-1,0
 125 -276 125 -276 125 -220 c 128,-1,1
EndSplineSet
Colour: ffffff
EndChar

StartChar: one
Encoding: 49 49 141
Width: 889
VWidth: 0
Flags: HMW
LayerCount: 2
Fore
SplineSet
398 1060 m 1,0,-1
 139 1060 l 1,1,-1
 144 1121 l 1,2,-1
 530 1185 l 1,3,-1
 557 1185 l 1,4,-1
 557 98 l 1,5,-1
 825 70 l 1,6,-1
 816 1 l 1,7,-1
 120 1 l 1,8,-1
 124 61 l 1,9,-1
 398 103 l 1,10,-1
 398 1060 l 1,0,-1
EndSplineSet
Substitution2: "'sups' Superscript lookup 0 subtable" one.superior
Colour: ffffff
EndChar

StartChar: one.osf
Encoding: 65541 -1 142
Width: 608
VWidth: 0
Flags: HMW
LayerCount: 2
Fore
SplineSet
402 946 m 1,0,-1
 402 98 l 1,1,-1
 598 69 l 1,2,-1
 590 1 l 1,3,-1
 58 1 l 1,4,-1
 64 61 l 1,5,-1
 262 103 l 1,6,-1
 262 820 l 1,7,-1
 82 821 l 1,8,-1
 89 882 l 1,9,-1
 375 946 l 1,10,-1
 402 946 l 1,0,-1
EndSplineSet
Colour: ffffff
EndChar

StartChar: onehalf
Encoding: 189 189 143
Width: 1737
VWidth: 0
Flags: HMW
LayerCount: 2
Fore
SplineSet
172 -26 m 1,0,-1
 548 588 l 1,1,-1
 902 1211 l 1,2,-1
 1038 1207 l 1,3,-1
 1036 1190 l 1,4,-1
 670 591 l 1,5,-1
 322 -40 l 1,6,-1
 172 -26 l 1,0,-1
146 1163 m 1,7,-1
 -4 1163 l 1,8,-1
 -0 1224 l 1,9,-1
 268 1260 l 1,10,-1
 287 1260 l 1,11,-1
 287 630 l 1,12,-1
 442 620 l 1,13,-1
 437 550 l 1,14,-1
 -15 550 l 1,15,-1
 -12 610 l 1,16,-1
 146 633 l 1,17,-1
 146 1163 l 1,7,-1
1107 490 m 0,18,19
 1108 646 1108 646 974 646 c 0,20,21
 900 646 900 646 869 606 c 1,22,-1
 845 467 l 1,23,-1
 790 472 l 1,24,-1
 785 636 l 1,25,26
 812 676 812 676 881.5 701 c 128,-1,27
 951 726 951 726 1044 726 c 128,-1,28
 1137 726 1137 726 1198.5 675 c 128,-1,29
 1260 624 1260 624 1260 527.5 c 128,-1,30
 1260 431 1260 431 1194 355 c 128,-1,31
 1128 279 1128 279 1053.5 222 c 128,-1,32
 979 165 979 165 928 128 c 1,33,-1
 893 104 l 1,34,-1
 1186 104 l 1,35,-1
 1248 254 l 1,36,-1
 1294 242 l 1,37,-1
 1274 1 l 1,38,-1
 746 1 l 1,39,-1
 748 78 l 1,40,-1
 902 202 l 2,41,42
 1010 290 1010 290 1058.5 356 c 128,-1,43
 1107 422 1107 422 1107 490 c 0,18,19
EndSplineSet
Colour: ffffff
EndChar

StartChar: onequarter
Encoding: 188 188 144
Width: 1737
VWidth: 0
Flags: HMW
LayerCount: 2
Fore
SplineSet
182 -26 m 1,0,-1
 558 588 l 1,1,-1
 912 1211 l 1,2,-1
 1048 1207 l 1,3,-1
 1046 1190 l 1,4,-1
 680 591 l 1,5,-1
 332 -40 l 1,6,-1
 182 -26 l 1,0,-1
146 1163 m 1,7,-1
 -4 1163 l 1,8,-1
 -0 1224 l 1,9,-1
 268 1260 l 1,10,-1
 287 1260 l 1,11,-1
 287 630 l 1,12,-1
 442 620 l 1,13,-1
 437 550 l 1,14,-1
 -15 550 l 1,15,-1
 -12 610 l 1,16,-1
 146 633 l 1,17,-1
 146 1163 l 1,7,-1
952 274 m 1,18,-1
 952 532 l 1,19,-1
 748 274 l 1,20,-1
 952 274 l 1,18,-1
1080 425 m 2,21,-1
 1080 274 l 1,22,-1
 1228 274 l 1,23,-1
 1219 188 l 1,24,-1
 1080 188 l 1,25,-1
 1080 74 l 1,26,-1
 1199 55 l 1,27,-1
 1193 -0 l 1,28,-1
 799 -0 l 1,29,-1
 804 50 l 1,30,-1
 954 76 l 1,31,-1
 954 192 l 1,32,-1
 652 192 l 1,33,-1
 642 250 l 1,34,-1
 1038 730 l 1,35,-1
 1088 721 l 1,36,37
 1080 626 1080 626 1080 425 c 2,21,-1
EndSplineSet
Colour: ffffff
EndChar

StartChar: one.superior
Encoding: 185 185 145
Width: 563
VWidth: 0
Flags: HMW
LayerCount: 2
Fore
SplineSet
230 1161 m 1,0,-1
 80 1161 l 1,1,-1
 84 1222 l 1,2,-1
 352 1258 l 1,3,-1
 371 1258 l 1,4,-1
 371 628 l 1,5,-1
 526 618 l 1,6,-1
 521 548 l 1,7,-1
 69 548 l 1,8,-1
 72 608 l 1,9,-1
 230 631 l 1,10,-1
 230 1161 l 1,0,-1
EndSplineSet
Colour: ffffff
EndChar

StartChar: ordfeminine
Encoding: 170 170 146
Width: 847
VWidth: 0
Flags: HMW
LayerCount: 2
Fore
SplineSet
275 725 m 0,0,1
 275 625 275 625 366 625 c 0,2,3
 451 625 451 625 514 715 c 1,4,-1
 514 900 l 1,5,6
 393 881 393 881 334 840 c 128,-1,7
 275 799 275 799 275 725 c 0,0,1
143 690 m 0,8,9
 143 794 143 794 234.5 869 c 128,-1,10
 326 944 326 944 514 950 c 1,11,-1
 514 980 l 2,12,13
 514 1095 514 1095 487.5 1148.5 c 128,-1,14
 461 1202 461 1202 382 1202 c 0,15,16
 339 1202 339 1202 322 1182 c 0,17,18
 292 1145 292 1145 281 1023 c 1,19,20
 236 1020 236 1020 203.5 1043.5 c 128,-1,21
 171 1067 171 1067 171 1111 c 0,22,23
 171 1174 171 1174 256 1221 c 0,24,25
 340 1268 340 1268 438 1268 c 0,26,27
 636 1268 636 1268 637 1022 c 2,28,-1
 637 756 l 2,29,30
 637 692 637 692 649 666 c 128,-1,31
 661 640 661 640 711 631 c 2,32,-1
 759 622 l 1,33,-1
 752 574 l 1,34,35
 713 543 713 543 654 543 c 128,-1,36
 595 543 595 543 561 576 c 128,-1,37
 527 609 527 609 527 651 c 2,38,-1
 527 662 l 1,39,-1
 521 662 l 1,40,41
 501 617 501 617 446.5 577 c 128,-1,42
 392 537 392 537 316 537 c 128,-1,43
 240 537 240 537 191.5 578.5 c 128,-1,44
 143 620 143 620 143 690 c 0,8,9
EndSplineSet
Colour: ffffff
EndChar

StartChar: ordmasculine
Encoding: 186 186 147
Width: 944
VWidth: 0
Flags: HMW
LayerCount: 2
Fore
SplineSet
261 964 m 0,0,1
 261 800 261 800 315 702 c 128,-1,2
 369 604 369 604 484 604 c 0,3,4
 568 604 568 604 611.5 677 c 128,-1,5
 655 750 655 750 655 850 c 128,-1,6
 655 950 655 950 634.5 1023.5 c 128,-1,7
 614 1097 614 1097 563.5 1147.5 c 128,-1,8
 513 1198 513 1198 432 1198 c 128,-1,9
 351 1198 351 1198 306 1127 c 128,-1,10
 261 1056 261 1056 261 964 c 0,0,1
126 866.5 m 128,-1,12
 126 1003 126 1003 175.5 1092 c 128,-1,13
 225 1181 225 1181 303.5 1225.5 c 128,-1,14
 382 1270 382 1270 475 1270 c 0,15,16
 617 1270 617 1270 703.5 1167.5 c 128,-1,17
 790 1065 790 1065 790 905 c 128,-1,18
 790 745 790 745 692 640.5 c 128,-1,19
 594 536 594 536 451 536 c 128,-1,20
 308 536 308 536 217 633 c 128,-1,11
 126 730 126 730 126 866.5 c 128,-1,12
EndSplineSet
Colour: ffffff
EndChar

StartChar: oslash
Encoding: 248 248 148
Width: 944
VWidth: 0
Flags: HMW
LayerCount: 2
Fore
SplineSet
88 417 m 0,0,1
 88 642 88 642 211 772.5 c 128,-1,2
 334 903 334 903 507 903 c 0,3,4
 642 903 642 903 739 816 c 1,5,-1
 783 873 l 1,6,-1
 918 880 l 1,7,-1
 803 741 l 1,8,9
 883 618 883 618 883 428.5 c 128,-1,10
 883 239 883 239 766 106 c 128,-1,11
 649 -27 649 -27 492.5 -27 c 128,-1,12
 336 -27 336 -27 235 58 c 1,13,-1
 193 6 l 1,14,-1
 56 0 l 1,15,-1
 170 129 l 1,16,17
 88 246 88 246 88 417 c 0,0,1
741 386 m 128,-1,19
 741 524 741 524 692 638 c 1,20,-1
 309 176 l 1,21,22
 387 54 387 54 517 54 c 0,23,24
 620 54 620 54 680.5 151 c 128,-1,18
 741 248 741 248 741 386 c 128,-1,19
470.5 819 m 128,-1,26
 355 819 355 819 293 723.5 c 128,-1,27
 231 628 231 628 231 485 c 128,-1,28
 231 342 231 342 281 230 c 1,29,-1
 663 695 l 1,30,25
 586 819 586 819 470.5 819 c 128,-1,26
EndSplineSet
Colour: ffffff
EndChar

StartChar: p
Encoding: 112 112 149
Width: 978
VWidth: 0
Flags: HMW
LayerCount: 2
Fore
SplineSet
554 781 m 0,0,1
 455 781 455 781 340 662 c 1,2,-1
 340 -286 l 1,3,-1
 496 -312 l 1,4,-1
 486 -373 l 1,5,-1
 52 -373 l 1,6,-1
 58 -315 l 1,7,-1
 210 -285 l 1,8,-1
 210 754 l 1,9,-1
 56 792 l 1,10,-1
 64 845 l 1,11,-1
 329 873 l 1,12,-1
 342 859 l 1,13,-1
 333 722 l 1,14,-1
 340 722 l 1,15,16
 388 788 388 788 459.5 837 c 128,-1,17
 531 886 531 886 620 886 c 0,18,19
 756 886 756 886 838 781 c 128,-1,20
 920 676 920 676 920 462.5 c 128,-1,21
 920 249 920 249 796.5 114.5 c 128,-1,22
 673 -20 673 -20 482 -20 c 0,23,24
 440 -20 440 -20 380 -9 c 1,25,-1
 375 87 l 1,26,27
 434 64 434 64 538.5 64 c 128,-1,28
 643 64 643 64 710.5 155 c 128,-1,29
 778 246 778 246 778 404 c 0,30,31
 778 781 778 781 554 781 c 0,0,1
EndSplineSet
Colour: ffffff
EndChar

StartChar: paragraph
Encoding: 182 182 150
Width: 1291
VWidth: 0
Flags: HMW
LayerCount: 2
Fore
SplineSet
936 1245 m 1,0,-1
 1238 1245 l 1,1,-1
 1231 1188 l 1,2,-1
 1058 1157 l 1,3,-1
 1058 89 l 1,4,-1
 1244 63 l 1,5,-1
 1235 -1 l 1,6,-1
 936 0 l 1,7,-1
 936 1245 l 1,0,-1
649 1171 m 0,8,9
 313 1171 313 1171 313 852 c 0,10,11
 313 717 313 717 399.5 627 c 128,-1,12
 486 537 486 537 642 537 c 1,13,-1
 624 463 l 1,14,15
 144 463 144 463 144 836 c 0,16,17
 144 1011 144 1011 280 1128 c 128,-1,18
 416 1245 416 1245 604 1245 c 2,19,-1
 869 1245 l 1,20,-1
 869 0 l 1,21,-1
 504 0 l 1,22,-1
 510 58 l 1,23,-1
 739 97 l 1,24,-1
 739 1169 l 1,25,26
 698 1171 698 1171 649 1171 c 0,8,9
EndSplineSet
Colour: ffffff
EndChar

StartChar: parenright
Encoding: 41 41 151
Width: 474
VWidth: 0
Flags: HMW
LayerCount: 2
Fore
SplineSet
428 450 m 0,0,1
 428 85 428 85 249 -193 c 0,2,3
 180 -300 180 -300 96 -375 c 1,4,-1
 48 -330 l 1,5,6
 283 51 283 51 283 456 c 0,7,8
 283 758 283 758 199 950 c 0,9,10
 135 1095 135 1095 54 1201 c 1,11,-1
 91 1256 l 1,12,13
 428 970 428 970 428 450 c 0,0,1
EndSplineSet
Colour: ffffff
EndChar

StartChar: partialdiff
Encoding: 8706 8706 152
Width: 923
VWidth: 0
Flags: HMW
LayerCount: 2
Fore
SplineSet
504 50 m 0,0,1
 579 50 579 50 628 100 c 0,2,3
 718 192 718 192 718 406.5 c 128,-1,4
 718 621 718 621 636.5 747 c 128,-1,5
 555 873 555 873 454 875 c 1,6,-1
 449 875 l 1,7,8
 378 874 378 874 330 821 c 0,9,10
 244 724 244 724 244.5 505.5 c 128,-1,11
 245 287 245 287 318 168.5 c 128,-1,12
 391 50 391 50 504 50 c 0,0,1
467 949 m 0,13,14
 528 949 528 949 585 912.5 c 128,-1,15
 642 876 642 876 664 820 c 1,16,-1
 672 821 l 1,17,18
 640 952 640 952 542 1091 c 128,-1,19
 444 1230 444 1230 359 1303 c 1,20,-1
 450 1303 l 1,21,22
 651 1180 651 1180 753.5 961 c 128,-1,23
 856 742 856 742 856 490.5 c 128,-1,24
 856 239 856 239 750.5 106 c 128,-1,25
 645 -27 645 -27 480 -27 c 0,26,27
 386 -27 386 -27 312 13 c 0,28,29
 238 53 238 53 194 121 c 0,30,31
 104 258 104 258 104.5 465 c 128,-1,32
 105 672 105 672 206 810.5 c 128,-1,33
 307 949 307 949 467 949 c 0,13,14
EndSplineSet
Colour: ffffff
EndChar

StartChar: percent
Encoding: 37 37 153
Width: 1738
VWidth: 0
Flags: HMW
LayerCount: 2
Fore
SplineSet
781 269 m 0,0,1
 781 215 781 215 793.5 157 c 128,-1,2
 806 99 806 99 833 57.5 c 128,-1,3
 860 16 860 16 898 16 c 128,-1,4
 936 16 936 16 963 58 c 0,5,6
 1012 134 1012 134 1012 256.5 c 128,-1,7
 1012 379 1012 379 979.5 462.5 c 128,-1,8
 947 546 947 546 894 546 c 0,9,10
 811 546 811 546 787 368 c 0,11,12
 781 324 781 324 781 269 c 0,0,1
652 270.5 m 128,-1,14
 652 402 652 402 726.5 496.5 c 128,-1,15
 801 591 801 591 900.5 591 c 128,-1,16
 1000 591 1000 591 1069 500 c 128,-1,17
 1138 409 1138 409 1138 279.5 c 128,-1,18
 1138 150 1138 150 1062.5 57 c 128,-1,19
 987 -36 987 -36 892 -36 c 128,-1,20
 797 -36 797 -36 724.5 51.5 c 128,-1,13
 652 139 652 139 652 270.5 c 128,-1,14
542 899 m 0,21,22
 542 773 542 773 465 678.5 c 128,-1,23
 388 584 388 584 293 584 c 128,-1,24
 198 584 198 584 127 671.5 c 128,-1,25
 56 759 56 759 56 891.5 c 128,-1,26
 56 1024 56 1024 130.5 1118.5 c 128,-1,27
 205 1213 205 1213 298 1213 c 0,28,29
 322 1213 322 1213 334 1209 c 1,30,-1
 334 1153 l 1,31,32
 314 1168 314 1168 289.5 1168 c 128,-1,33
 265 1168 265 1168 242.5 1142.5 c 128,-1,34
 220 1117 220 1117 202 1054.5 c 128,-1,35
 184 992 184 992 184 896 c 128,-1,36
 184 800 184 800 214.5 718.5 c 128,-1,37
 245 637 245 637 297 637 c 0,38,39
 336 636 336 636 364 678 c 0,40,41
 414 753 414 753 414 918 c 128,-1,42
 414 1083 414 1083 368 1196 c 1,43,-1
 895 1211 l 1,44,-1
 1025 1207 l 1,45,-1
 1023 1191 l 1,46,-1
 657 591 l 1,47,-1
 310 -40 l 1,48,-1
 164 -26 l 1,49,-1
 540 588 l 1,50,-1
 856 1143 l 1,51,-1
 479 1150 l 1,52,53
 506 1119 506 1119 524 1033.5 c 128,-1,54
 542 948 542 948 542 899 c 0,21,22
EndSplineSet
Colour: ffffff
EndChar

StartChar: period
Encoding: 46 46 154
Width: 391
VWidth: 0
Flags: HMW
LayerCount: 2
Fore
SplineSet
109 80 m 128,-1,1
 109 129 109 129 133.5 157.5 c 128,-1,2
 158 186 158 186 199 186 c 128,-1,3
 240 186 240 186 266 157 c 128,-1,4
 292 128 292 128 292 79 c 128,-1,5
 292 30 292 30 267 -1 c 128,-1,6
 242 -32 242 -32 200.5 -32 c 128,-1,7
 159 -32 159 -32 134 -0.5 c 128,-1,0
 109 31 109 31 109 80 c 128,-1,1
EndSplineSet
Colour: ffffff
EndChar

StartChar: periodcentered
Encoding: 183 183 155
Width: 402
VWidth: 0
Flags: HMW
LayerCount: 2
Fore
SplineSet
111 502 m 128,-1,1
 111 551 111 551 136.5 579.5 c 128,-1,2
 162 608 162 608 203 608 c 128,-1,3
 244 608 244 608 269.5 579.5 c 128,-1,4
 295 551 295 551 295 502 c 128,-1,5
 295 453 295 453 270 422 c 128,-1,6
 245 391 245 391 203 391 c 128,-1,7
 161 391 161 391 136 422 c 128,-1,0
 111 453 111 453 111 502 c 128,-1,1
EndSplineSet
Colour: ffffff
EndChar

StartChar: perthousand
Encoding: 8240 8240 156
Width: 1797
VWidth: 0
Flags: HMW
LayerCount: 2
Fore
SplineSet
1353 268 m 128,-1,1
 1353 214 1353 214 1365.5 156 c 128,-1,2
 1378 98 1378 98 1405 56.5 c 128,-1,3
 1432 15 1432 15 1470 15 c 0,4,5
 1508 14 1508 14 1535 56 c 0,6,7
 1584 131 1584 131 1584 254.5 c 128,-1,8
 1584 378 1584 378 1551.5 461.5 c 128,-1,9
 1519 545 1519 545 1466 545 c 0,10,11
 1383 544 1383 544 1359 366 c 0,12,0
 1353 322 1353 322 1353 268 c 128,-1,1
1223 269.5 m 128,-1,14
 1223 401 1223 401 1297.5 495.5 c 128,-1,15
 1372 590 1372 590 1472 590 c 128,-1,16
 1572 590 1572 590 1641 499 c 128,-1,17
 1710 408 1710 408 1710 278.5 c 128,-1,18
 1710 149 1710 149 1634.5 56 c 128,-1,19
 1559 -37 1559 -37 1464 -37 c 128,-1,20
 1369 -37 1369 -37 1296 50.5 c 128,-1,13
 1223 138 1223 138 1223 269.5 c 128,-1,14
781 269 m 0,21,22
 781 215 781 215 793.5 157 c 128,-1,23
 806 99 806 99 833 57.5 c 128,-1,24
 860 16 860 16 898 16 c 128,-1,25
 936 16 936 16 963 58 c 0,26,27
 1012 134 1012 134 1012 256.5 c 128,-1,28
 1012 379 1012 379 979.5 462.5 c 128,-1,29
 947 546 947 546 894 546 c 0,30,31
 811 546 811 546 787 368 c 0,32,33
 781 324 781 324 781 269 c 0,21,22
652 270.5 m 128,-1,35
 652 402 652 402 726.5 496.5 c 128,-1,36
 801 591 801 591 900.5 591 c 128,-1,37
 1000 591 1000 591 1069 500 c 128,-1,38
 1138 409 1138 409 1138 279.5 c 128,-1,39
 1138 150 1138 150 1062.5 57 c 128,-1,40
 987 -36 987 -36 892 -36 c 128,-1,41
 797 -36 797 -36 724.5 51.5 c 128,-1,34
 652 139 652 139 652 270.5 c 128,-1,35
542 899 m 0,42,43
 542 773 542 773 465 678.5 c 128,-1,44
 388 584 388 584 293 584 c 128,-1,45
 198 584 198 584 127 671.5 c 128,-1,46
 56 759 56 759 56 891.5 c 128,-1,47
 56 1024 56 1024 130.5 1118.5 c 128,-1,48
 205 1213 205 1213 298 1213 c 0,49,50
 322 1213 322 1213 334 1209 c 1,51,-1
 334 1153 l 1,52,53
 314 1168 314 1168 289.5 1168 c 128,-1,54
 265 1168 265 1168 242.5 1142.5 c 128,-1,55
 220 1117 220 1117 202 1054.5 c 128,-1,56
 184 992 184 992 184 896 c 128,-1,57
 184 800 184 800 214.5 718.5 c 128,-1,58
 245 637 245 637 297 637 c 0,59,60
 336 636 336 636 364 678 c 0,61,62
 414 753 414 753 414 918 c 128,-1,63
 414 1083 414 1083 368 1196 c 1,64,-1
 895 1211 l 1,65,-1
 1025 1207 l 1,66,-1
 1025 1192 l 1,67,-1
 657 591 l 1,68,-1
 310 -40 l 1,69,-1
 164 -26 l 1,70,-1
 540 588 l 1,71,-1
 856 1143 l 1,72,-1
 479 1150 l 1,73,74
 506 1119 506 1119 524 1033.5 c 128,-1,75
 542 948 542 948 542 899 c 0,42,43
EndSplineSet
Colour: ffffff
EndChar

StartChar: plus
Encoding: 43 43 157
Width: 680
VWidth: 0
Flags: HMW
LayerCount: 2
Fore
SplineSet
308 503 m 1,0,-1
 308 742 l 1,1,-1
 396 730 l 1,2,-1
 397 503 l 1,3,-1
 617 503 l 1,4,-1
 606 417 l 1,5,-1
 397 417 l 1,6,-1
 399 173 l 1,7,-1
 308 186 l 1,8,-1
 308 417 l 1,9,-1
 87 417 l 1,10,-1
 99 503 l 1,11,-1
 308 503 l 1,0,-1
EndSplineSet
Colour: ffffff
EndChar

StartChar: product
Encoding: 8719 8719 158
Width: 1446
VWidth: 0
Flags: HMW
LayerCount: 2
Fore
SplineSet
83 1187 m 1,0,-1
 90 1244 l 1,1,-1
 1412 1244 l 1,2,-1
 1403 1187 l 1,3,-1
 1236 1156 l 1,4,-1
 1236 90 l 1,5,-1
 1419 63 l 1,6,-1
 1410 0 l 1,7,-1
 911 0 l 1,8,-1
 922 58 l 1,9,-1
 1087 96 l 1,10,-1
 1087 1161 l 1,11,-1
 414 1160 l 1,12,-1
 414 90 l 1,13,-1
 600 63 l 1,14,-1
 588 0 l 1,15,-1
 90 0 l 1,16,-1
 97 58 l 1,17,-1
 264 96 l 1,18,-1
 264 1154 l 1,19,-1
 83 1187 l 1,0,-1
EndSplineSet
Colour: ffffff
EndChar

StartChar: q
Encoding: 113 113 159
Width: 963
VWidth: 0
Flags: HMW
LayerCount: 2
Fore
SplineSet
88 407 m 0,0,1
 88 506 88 506 125 596.5 c 128,-1,2
 162 687 162 687 221.5 750.5 c 128,-1,3
 281 814 281 814 358 852 c 0,4,5
 436 890 436 890 524 889.5 c 128,-1,6
 612 889 612 889 694 845 c 1,7,-1
 788 878 l 1,8,-1
 811 878 l 1,9,-1
 811 -280 l 1,10,-1
 972 -306 l 1,11,-1
 963 -367 l 1,12,-1
 519 -367 l 1,13,-1
 527 -308 l 1,14,-1
 678 -280 l 1,15,-1
 678 691 l 1,16,17
 647 739 647 739 592 774 c 128,-1,18
 537 809 537 809 464 809 c 0,19,20
 364 809 364 809 295.5 713.5 c 128,-1,21
 227 618 227 618 227 446 c 128,-1,22
 227 274 227 274 290.5 176 c 128,-1,23
 354 78 354 78 465 78 c 0,24,25
 504 78 504 78 558.5 91 c 128,-1,26
 613 104 613 104 647 127 c 1,27,-1
 651 71 l 1,28,29
 606 28 606 28 537.5 3.5 c 128,-1,30
 469 -21 469 -21 405 -21 c 0,31,32
 264 -21 264 -21 176 86 c 128,-1,33
 88 193 88 193 88 407 c 0,0,1
EndSplineSet
Colour: ffffff
EndChar

StartChar: question
Encoding: 63 63 160
Width: 619
VWidth: 0
Flags: HMW
LayerCount: 2
Fore
SplineSet
191 77.5 m 128,-1,1
 191 124 191 124 217.5 154 c 128,-1,2
 244 184 244 184 282.5 184 c 128,-1,3
 321 184 321 184 347.5 153.5 c 128,-1,4
 374 123 374 123 374 76 c 128,-1,5
 374 29 374 29 349 -3 c 128,-1,6
 324 -35 324 -35 282.5 -35 c 128,-1,7
 241 -35 241 -35 216 -2 c 128,-1,0
 191 31 191 31 191 77.5 c 128,-1,1
99 1073 m 1,8,9
 40 1100 40 1100 40 1169 c 0,10,11
 40 1207 40 1207 95.5 1247 c 128,-1,12
 151 1287 151 1287 238 1287 c 0,13,14
 366 1287 366 1287 466.5 1170 c 128,-1,15
 567 1053 567 1053 567 893 c 0,16,17
 567 801 567 801 515.5 750.5 c 128,-1,18
 464 700 464 700 409 667.5 c 128,-1,19
 354 635 354 635 328 615 c 0,20,21
 268 570 268 570 268 513.5 c 128,-1,22
 268 457 268 457 303 371 c 1,23,-1
 245 354 l 1,24,25
 214 389 214 389 189 449 c 128,-1,26
 164 509 164 509 164 567.5 c 128,-1,27
 164 626 164 626 196 671 c 128,-1,28
 228 716 228 716 273 743 c 128,-1,29
 318 770 318 770 364 796 c 0,30,31
 474 857 474 857 473.5 939.5 c 128,-1,32
 473 1022 473 1022 418 1084.5 c 128,-1,33
 363 1147 363 1147 291 1147 c 0,34,35
 169 1147 169 1147 99 1073 c 1,8,9
EndSplineSet
Colour: ffffff
EndChar

StartChar: quotedbl
Encoding: 34 34 161
Width: 437
VWidth: 0
Flags: HMW
LayerCount: 2
Fore
SplineSet
289 1303 m 1,0,-1
 436 1291 l 1,1,-1
 400 899 l 1,2,-1
 326 891 l 1,3,-1
 289 1303 l 1,0,-1
103 1303 m 1,4,-1
 248 1291 l 1,5,-1
 212 899 l 1,6,-1
 139 891 l 1,7,-1
 103 1303 l 1,4,-1
EndSplineSet
Colour: ffffff
EndChar

StartChar: quotereversed
Encoding: 8219 8219 162
Width: 393
VWidth: 0
Flags: HMW
LayerCount: 2
Fore
SplineSet
51 1080 m 0,0,1
 51 1181 51 1181 99.5 1234 c 128,-1,2
 148 1287 148 1287 206.5 1287 c 128,-1,3
 265 1287 265 1287 298 1243.5 c 128,-1,4
 331 1200 331 1200 309 1142 c 1,5,6
 251 1150 251 1150 210 1113.5 c 128,-1,7
 169 1077 169 1077 169 1020 c 0,8,9
 169 888 169 888 349 829 c 1,10,-1
 330 773 l 1,11,12
 108 836 108 836 62 1001 c 0,13,14
 51 1040 51 1040 51 1080 c 0,0,1
EndSplineSet
Colour: ffffff
EndChar

StartChar: quotesingle
Encoding: 39 39 163
Width: 333
VWidth: 0
Flags: HMW
LayerCount: 2
Fore
SplineSet
111 1303 m 1,0,-1
 257 1291 l 1,1,-1
 221 899 l 1,2,-1
 148 891 l 1,3,-1
 111 1303 l 1,0,-1
EndSplineSet
Colour: ffffff
EndChar

StartChar: r
Encoding: 114 114 164
Width: 738
VWidth: 0
Flags: HMW
LayerCount: 2
Back
SplineSet
474.94 422.059 m 1,0,1
 468.19 427.845 468.19 427.845 453.492 443.012 c 0
 438.793 458.18 438.793 458.18 428.67 465.325 c 0
 418.546 472.47 418.546 472.47 408.603 472.47 c 1,2,3
 454.493 472.47 454.493 472.47 449.905 458.197 c 0
 449.129 455.782 449.129 455.782 446.758 453.016 c 0,4,5
 440.89 446.171 440.89 446.171 434.951 486.654 c 0
 430.214 518.949 430.214 518.949 412.925 761.52 c 0
 409.272 812.769 409.272 812.769 407.345 813.131 c 0
 406.821 813.229 406.821 813.229 406.366 810.095 c 2,6,-1
 308.14 587.098 l 1,7,-1
 455.174 583.688 l 1,8,-1
 595.026 541.52 l 1,9,-1
 254.7 535.92 l 1,10,-1
 256.859 419.665 l 1,11,-1
 357.234 444.522 l 1,12,13
 358.979 455.199 358.979 455.199 364.507 491.341 c 0
 370.034 527.484 370.034 527.484 375.145 559.109 c 0
 380.256 590.735 380.256 590.735 388.237 637.831 c 0
 396.217 684.927 396.217 684.927 404.366 724.566 c 0
 412.515 764.206 412.515 764.206 422.522 808.851 c 0
 432.53 853.496 432.53 853.496 443.289 887.745 c 0
 454.049 921.994 454.049 921.994 465.655 950.784 c 0
 477.261 979.573 477.261 979.573 490.204 995.027 c 0
 503.147 1010.48 503.147 1010.48 516.025 1010.48 c 1,14,15
 525.48 1011.49 l 1
 509.628 1014.43 509.628 1014.43 494.714 1003.76 c 0
 484.762 996.641 484.762 996.641 484.762 984.531 c 1,16,17
 483.94 978.12 l 1
 483.303 979.29 l 2
 476.034 993.283 476.034 993.283 463.528 984.841 c 1,18,19
 453.894 1002.77 453.894 1002.77 505.806 1027.67 c 0
 521.316 1035.11 521.316 1035.11 551.372 1046.94 c 0
 574.941 1056.23 574.941 1056.23 575.042 1057.78 c 0
 575.091 1058.54 575.091 1058.54 571.961 1058.54 c 0,20,21
 552.384 1058.54 552.384 1058.54 536.315 1047.68 c 0
 520.247 1036.82 520.247 1036.82 508.964 1014.99 c 0
 497.681 993.161 497.681 993.161 489.598 971.523 c 0
 481.515 949.885 481.515 949.885 475.364 916.737 c 0
 469.212 883.588 469.212 883.588 466.122 862.455 c 0
 463.032 841.322 463.032 841.322 459.189 808.907 c 1,22,-1
 448.831 433.355 l 1,23,-1
 604.782 421.141 l 1,24,25
 615.635 458.412 615.635 458.412 628 478.141 c 0
 640.366 497.87 640.366 497.87 664.416 524.076 c 0,26,27
 704.811 568.094 704.811 568.094 747.274 568.092 c 0,28,29
 781.45 568.093 781.45 568.093 802.166 546.862 c 0,30,31
 822.881 525.629 822.881 525.629 822.879 496.63 c 0,32,33
 822.879 484.808 822.879 484.808 743.471 470.984 c 0
 664.062 457.16 664.062 457.16 575.984 444.023 c 0
 487.905 430.886 487.905 430.886 474.94 422.059 c 1,0,1
EndSplineSet
Fore
SplineSet
592 895 m 128,-1,1
 654 895 654 895 684 867 c 128,-1,2
 714 839 714 839 714 793 c 128,-1,3
 714 747 714 747 652 704 c 1,4,5
 601 756 601 756 543 756 c 128,-1,6
 485 756 485 756 435.5 672 c 128,-1,7
 386 588 386 588 369 464 c 1,8,-1
 369 88 l 1,9,-1
 599 61 l 1,10,-1
 591 -0 l 1,11,-1
 76 -0 l 1,12,-1
 84 52 l 1,13,-1
 239 86 l 1,14,-1
 239 757 l 1,15,-1
 79 796 l 1,16,-1
 88 848 l 1,17,-1
 347 877 l 1,18,-1
 363 860 l 1,19,-1
 349 615 l 1,20,-1
 363 615 l 1,21,22
 399 744 399 744 464.5 819.5 c 128,-1,0
 530 895 530 895 592 895 c 128,-1,1
EndSplineSet
Colour: ffffff
EndChar

StartChar: radical
Encoding: 8730 8730 165
Width: 1000
VWidth: 0
Flags: HMW
LayerCount: 2
Fore
SplineSet
15 458 m 1,0,-1
 25 517 l 1,1,-1
 278 533 l 1,2,-1
 452 55 l 1,3,-1
 918 1296 l 1,4,-1
 1016 1303 l 1,5,-1
 475 -116 l 1,6,-1
 382 -133 l 1,7,-1
 161 434 l 1,8,-1
 15 458 l 1,0,-1
EndSplineSet
Colour: ffffff
EndChar

StartChar: registered
Encoding: 174 174 166
Width: 1351
VWidth: 0
Flags: HMW
LayerCount: 2
Fore
SplineSet
249 1040.5 m 128,-1,1
 249 842 249 842 361 723 c 128,-1,2
 473 604 473 604 650 604 c 128,-1,3
 827 604 827 604 949.5 719 c 128,-1,4
 1072 834 1072 834 1072 1025.5 c 128,-1,5
 1072 1217 1072 1217 953 1337 c 128,-1,6
 834 1457 834 1457 655.5 1459 c 128,-1,7
 477 1461 477 1461 363 1350 c 128,-1,0
 249 1239 249 1239 249 1040.5 c 128,-1,1
177 1022 m 0,8,9
 177 1252 177 1252 312 1386 c 128,-1,10
 447 1520 447 1520 652 1520 c 0,11,12
 947 1520 947 1520 1078 1294 c 0,13,14
 1144 1180 1144 1180 1144 1029 c 128,-1,15
 1144 878 1144 878 1075 766.5 c 128,-1,16
 1006 655 1006 655 893 598.5 c 128,-1,17
 780 542 780 542 646.5 542 c 128,-1,18
 513 542 513 542 407.5 600.5 c 128,-1,19
 302 659 302 659 239.5 769.5 c 128,-1,20
 177 880 177 880 177 1022 c 0,8,9
574 1284 m 1,21,-1
 574 1062 l 1,22,-1
 665 1062 l 1,23,24
 750 1108 750 1108 750 1181 c 0,25,26
 750 1285 750 1285 619 1285 c 2,27,-1
 606 1285 l 1,28,-1
 584 1284 l 2,29,30
 578 1284 578 1284 574 1284 c 1,21,-1
633 1338 m 128,-1,32
 734 1338 734 1338 793.5 1303.5 c 128,-1,33
 853 1269 853 1269 853 1209 c 0,34,35
 853 1091 853 1091 722 1034 c 1,36,-1
 721 1033 l 1,37,-1
 805 926 l 1,38,39
 846 872 846 872 870.5 851.5 c 128,-1,40
 895 831 895 831 941 814 c 1,41,-1
 935 773 l 1,42,43
 913 765 913 765 866.5 765 c 128,-1,44
 820 765 820 765 783.5 795.5 c 128,-1,45
 747 826 747 826 708 899 c 2,46,-1
 647 1010 l 1,47,-1
 574 1010 l 1,48,-1
 574 835 l 1,49,-1
 659 817 l 1,50,-1
 654 774 l 1,51,-1
 398 774 l 1,52,-1
 403 813 l 1,53,-1
 478 834 l 1,54,-1
 478 1266 l 1,55,-1
 401 1279 l 1,56,-1
 406 1317 l 1,57,31
 532 1338 532 1338 633 1338 c 128,-1,32
EndSplineSet
Colour: ffffff
EndChar

StartChar: ring
Encoding: 730 730 167
Width: 517
VWidth: 0
Flags: HMW
LayerCount: 2
Fore
SplineSet
171 1538 m 128,-1,1
 171 1488 171 1488 197.5 1447.5 c 128,-1,2
 224 1407 224 1407 268 1407 c 128,-1,3
 312 1407 312 1407 336 1437.5 c 128,-1,4
 360 1468 360 1468 360 1522 c 128,-1,5
 360 1576 360 1576 332.5 1616 c 128,-1,6
 305 1656 305 1656 260.5 1656 c 128,-1,7
 216 1656 216 1656 193.5 1622 c 128,-1,0
 171 1588 171 1588 171 1538 c 128,-1,1
104 1525 m 128,-1,9
 104 1598 104 1598 152.5 1649 c 128,-1,10
 201 1700 201 1700 271.5 1700 c 128,-1,11
 342 1700 342 1700 385 1654.5 c 128,-1,12
 428 1609 428 1609 428 1538 c 128,-1,13
 428 1467 428 1467 380.5 1414.5 c 128,-1,14
 333 1362 333 1362 261 1362 c 128,-1,15
 189 1362 189 1362 146.5 1407 c 128,-1,8
 104 1452 104 1452 104 1525 c 128,-1,9
EndSplineSet
Colour: ffffff
EndChar

StartChar: s
Encoding: 115 115 168
Width: 692
VWidth: 0
Flags: HMW
LayerCount: 2
Fore
SplineSet
177 264 m 1,0,1
 224 40 224 40 372 40 c 0,2,3
 444 40 444 40 486.5 74 c 128,-1,4
 529 108 529 108 529 152 c 128,-1,5
 529 196 529 196 506 228 c 0,6,7
 484 260 484 260 446 286 c 0,8,9
 408 314 408 314 363 340 c 0,10,11
 255 404 255 404 181.5 468 c 128,-1,12
 108 532 108 532 108 631.5 c 128,-1,13
 108 731 108 731 177.5 810 c 128,-1,14
 247 889 247 889 385 889 c 0,15,16
 483 889 483 889 549 839 c 0,17,18
 615 790 615 790 615 724 c 0,19,20
 615 606 615 606 510 597 c 1,21,-1
 502 636 l 1,22,23
 459 825 459 825 347 825 c 0,24,25
 286 825 286 825 250 790.5 c 128,-1,26
 214 756 214 756 214 707.5 c 128,-1,27
 214 659 214 659 238 623 c 128,-1,28
 262 587 262 587 300 558.5 c 128,-1,29
 338 530 338 530 384 502 c 0,30,31
 501 432 501 432 561 382 c 0,32,33
 647 308 647 308 647 206 c 128,-1,34
 647 104 647 104 557.5 34.5 c 128,-1,35
 468 -35 468 -35 348 -35 c 128,-1,36
 228 -35 228 -35 149.5 18.5 c 128,-1,37
 71 72 71 72 71 154 c 0,38,39
 71 199 71 199 101 229 c 128,-1,40
 131 259 131 259 177 264 c 1,0,1
EndSplineSet
Colour: ffffff
EndChar

StartChar: section
Encoding: 167 167 169
Width: 875
VWidth: 0
Flags: HMW
LayerCount: 2
Fore
SplineSet
461 1270 m 128,-1,1
 650 1270 650 1270 760 1165 c 1,2,-1
 733 869 l 1,3,-1
 660 878 l 1,4,-1
 634 1096 l 1,5,6
 613 1136 613 1136 557.5 1168 c 128,-1,7
 502 1200 502 1200 431 1200 c 128,-1,8
 360 1200 360 1200 304 1147.5 c 128,-1,9
 248 1095 248 1095 248 1017.5 c 128,-1,10
 248 940 248 940 281 887.5 c 128,-1,11
 314 835 314 835 367 796.5 c 128,-1,12
 420 758 420 758 484 720 c 0,13,14
 657 618 657 618 723 561 c 0,15,16
 838 462 838 462 830 318 c 1,17,-1
 453 546 l 1,18,19
 235 673 235 673 174 755 c 0,20,21
 113 836 113 836 113 938 c 0,22,23
 112 1040 112 1040 166 1118 c 0,24,0
 272 1270 272 1270 461 1270 c 128,-1,1
455 -299 m 128,-1,26
 541 -299 541 -299 613.5 -242 c 128,-1,27
 686 -185 686 -185 686 -80.5 c 128,-1,28
 686 24 686 24 570 108 c 0,29,30
 519 145 519 145 457 181 c 0,31,32
 298 272 298 272 223 338 c 0,33,34
 110 436 110 436 118 576 c 1,35,-1
 464 369 l 2,36,37
 481 359 481 359 520 337 c 128,-1,38
 559 315 559 315 578.5 303 c 128,-1,39
 598 291 598 291 632.5 269.5 c 128,-1,40
 667 248 667 248 686.5 232 c 128,-1,41
 706 216 706 216 732 192 c 0,42,43
 766 162 766 162 798.5 104.5 c 128,-1,44
 831 47 831 47 831 -25 c 0,45,46
 831 -180 831 -180 710 -280.5 c 128,-1,47
 589 -381 589 -381 409 -381 c 0,48,49
 305 -381 305 -381 215 -340.5 c 128,-1,50
 125 -300 125 -300 75 -238 c 1,51,-1
 96 39 l 1,52,-1
 172 29 l 1,53,-1
 204 -176 l 1,54,55
 235 -230 235 -230 302 -264.5 c 128,-1,25
 369 -299 369 -299 455 -299 c 128,-1,26
EndSplineSet
Colour: ffffff
EndChar

StartChar: seven
Encoding: 55 55 170
Width: 919
VWidth: 0
Flags: HMW
LayerCount: 2
Fore
SplineSet
874 1182 m 1,0,-1
 874 1130 l 1,1,-1
 441 -33 l 1,2,-1
 282 -16 l 1,3,-1
 756 1047 l 1,4,-1
 205 1047 l 1,5,-1
 137 820 l 1,6,-1
 83 829 l 1,7,-1
 111 1182 l 1,8,-1
 874 1182 l 1,0,-1
EndSplineSet
Substitution2: "'sups' Superscript lookup 0 subtable" seven.superior
Colour: ffffff
EndChar

StartChar: seven.osf
Encoding: 65542 -1 171
Width: 723
VWidth: 0
Flags: HMW
LayerCount: 2
Fore
SplineSet
136 -185 m 0,0,1
 136 37 136 37 594 806 c 1,2,-1
 143 806 l 1,3,-1
 80 597 l 1,4,-1
 28 607 l 1,5,-1
 60 933 l 1,6,-1
 704 933 l 1,7,-1
 710 859 l 1,8,9
 483 450 483 450 440 336 c 128,-1,10
 397 222 397 222 350 77 c 128,-1,11
 303 -68 303 -68 286 -299 c 1,12,-1
 255 -304 l 1,13,14
 136 -304 136 -304 136 -185 c 0,0,1
EndSplineSet
Colour: ffffff
EndChar

StartChar: six
Encoding: 54 54 172
Width: 940
VWidth: 0
Flags: HMW
LayerCount: 2
Fore
SplineSet
283 407 m 0,0,1
 283 251 283 251 345 147.5 c 128,-1,2
 407 44 407 44 499 44 c 0,3,4
 712 44 712 44 712 327 c 0,5,6
 712 450 712 450 652 534.5 c 128,-1,7
 592 619 592 619 484 619 c 0,8,9
 420 619 420 619 365.5 594.5 c 128,-1,10
 311 570 311 570 290 540 c 1,11,12
 283 492 283 492 283 407 c 0,0,1
120 422 m 0,13,14
 120 673 120 673 286.5 902 c 128,-1,15
 453 1131 453 1131 694 1214 c 1,16,-1
 723 1164 l 1,17,18
 373 1008 373 1008 293 609 c 1,19,-1
 302 609 l 1,20,21
 410 709 410 709 555.5 709 c 128,-1,22
 701 709 701 709 788 612 c 128,-1,23
 875 515 875 515 875 356 c 128,-1,24
 875 197 875 197 761.5 88 c 128,-1,25
 648 -21 648 -21 484 -21 c 0,26,27
 212 -20 212 -20 140 254 c 0,28,29
 120 332 120 332 120 422 c 0,13,14
EndSplineSet
Substitution2: "'sups' Superscript lookup 0 subtable" six.superior
Colour: ffffff
EndChar

StartChar: six.osf
Encoding: 65543 -1 173
Width: 807
VWidth: 0
Flags: HMW
LayerCount: 2
Fore
SplineSet
239 407 m 0,0,1
 239 250 239 250 294.5 149 c 128,-1,2
 350 48 350 48 438.5 48 c 128,-1,3
 527 48 527 48 575 127.5 c 128,-1,4
 623 207 623 207 623 331 c 128,-1,5
 623 455 623 455 573 537 c 128,-1,6
 523 619 523 619 417 619 c 0,7,8
 366 619 366 619 320.5 596.5 c 128,-1,9
 275 574 275 574 249 544 c 1,10,11
 239 476 239 476 239 407 c 0,0,1
493 711 m 128,-1,13
 624 711 624 711 699.5 614 c 128,-1,14
 775 517 775 517 775 393.5 c 128,-1,15
 775 270 775 270 726.5 179 c 128,-1,16
 678 88 678 88 596 34 c 0,17,18
 514 -20 514 -20 420 -21 c 0,19,20
 233 -21 233 -21 157 107.5 c 128,-1,21
 81 236 81 236 81 408 c 128,-1,22
 81 580 81 580 154 743 c 128,-1,23
 227 906 227 906 359.5 1035.5 c 128,-1,24
 492 1165 492 1165 651 1218 c 1,25,-1
 679 1167 l 1,26,27
 414 1054 414 1054 300 770 c 0,28,29
 270 694 270 694 253 614 c 1,30,-1
 261 614 l 1,31,12
 362 711 362 711 493 711 c 128,-1,13
EndSplineSet
Colour: ffffff
EndChar

StartChar: slash
Encoding: 47 47 174
Width: 610
VWidth: 0
Flags: HMW
LayerCount: 2
Fore
SplineSet
35 -361 m 1,0,-1
 498 1238 l 1,1,-1
 605 1244 l 1,2,-1
 139 -355 l 1,3,-1
 35 -361 l 1,0,-1
EndSplineSet
Colour: ffffff
EndChar

StartChar: softhyphen
Encoding: 173 173 175
Width: 573
VWidth: 0
Flags: HMW
LayerCount: 2
Fore
SplineSet
82 420 m 1,0,-1
 90 509 l 1,1,-1
 498 570 l 1,2,-1
 490 480 l 1,3,-1
 82 420 l 1,0,-1
EndSplineSet
Colour: ffffff
EndChar

StartChar: sterling
Encoding: 163 163 177
Width: 1092
VWidth: 0
Flags: HMW
LayerCount: 2
Fore
SplineSet
672 1251 m 0,0,1
 808 1251 808 1251 904 1211 c 1,2,-1
 873 892 l 1,3,-1
 806 902 l 1,4,-1
 775 1141 l 1,5,6
 715 1171 715 1171 661 1171 c 0,7,8
 606 1171 606 1171 574 1159 c 0,9,10
 504 1133 504 1133 480.5 1032 c 128,-1,11
 457 931 457 931 455 702 c 1,12,-1
 455 648 l 1,13,-1
 674 661 l 1,14,-1
 664 581 l 1,15,-1
 453 568 l 1,16,-1
 453 516 l 1,17,18
 450 215 450 215 391 78 c 1,19,-1
 890 77 l 1,20,-1
 1001 336 l 1,21,-1
 1064 322 l 1,22,-1
 1030 0 l 1,23,-1
 82 0 l 1,24,-1
 89 58 l 1,25,-1
 257 96 l 1,26,27
 292 221 292 221 297 461 c 1,28,-1
 298 561 l 1,29,-1
 120 552 l 1,30,-1
 131 631 l 1,31,-1
 301 641 l 1,32,-1
 304 786 l 1,33,34
 316 1251 316 1251 672 1251 c 0,0,1
EndSplineSet
Colour: ffffff
EndChar

StartChar: summation
Encoding: 8721 8721 178
Width: 1104
VWidth: 0
Flags: HMW
LayerCount: 2
Fore
SplineSet
47 0 m 1,0,-1
 47 58 l 1,1,-1
 555 619 l 1,2,-1
 555 629 l 1,3,-1
 40 1194 l 1,4,-1
 51 1244 l 1,5,-1
 1038 1244 l 1,6,-1
 1007 925 l 1,7,-1
 941 934 l 1,8,-1
 911 1173 l 1,9,-1
 221 1173 l 1,10,-1
 687 676 l 1,11,-1
 683 637 l 1,12,-1
 208 108 l 1,13,-1
 929 108 l 1,14,-1
 1015 357 l 1,15,-1
 1077 347 l 1,16,-1
 1047 0 l 1,17,-1
 47 0 l 1,0,-1
EndSplineSet
Colour: ffffff
EndChar

StartChar: t
Encoding: 116 116 179
Width: 640
VWidth: 0
Flags: HMW
LayerCount: 2
Fore
SplineSet
380 -24 m 0,0,1
 187 -24 187 -24 189 251 c 2,2,-1
 193 771 l 1,3,-1
 66 771 l 1,4,-1
 66 811 l 1,5,6
 201 872 201 872 280 1068 c 1,7,-1
 327 1068 l 1,8,-1
 327 840 l 1,9,-1
 610 840 l 1,10,-1
 602 768 l 1,11,-1
 326 768 l 1,12,-1
 323 310 l 2,13,14
 323 188 323 188 355 143 c 128,-1,15
 387 98 387 98 457 98 c 0,16,17
 528 98 528 98 594 146 c 2,18,-1
 616 163 l 1,19,-1
 635 119 l 1,20,21
 589 53 589 53 521.5 14.5 c 128,-1,22
 454 -24 454 -24 380 -24 c 0,0,1
EndSplineSet
Colour: ffffff
EndChar

StartChar: tbar
Encoding: 359 359 180
Width: 654
VWidth: 0
Flags: HMW
LayerCount: 2
Fore
SplineSet
386 -24 m 0,0,1
 193 -24 193 -24 195 251 c 2,2,-1
 197 486 l 1,3,-1
 72 486 l 1,4,-1
 81 580 l 1,5,-1
 198 580 l 1,6,-1
 199 771 l 1,7,-1
 72 771 l 1,8,-1
 72 811 l 1,9,10
 207 872 207 872 286 1068 c 1,11,-1
 333 1068 l 1,12,-1
 333 840 l 1,13,-1
 616 840 l 1,14,-1
 608 768 l 1,15,-1
 332 768 l 1,16,-1
 331 580 l 1,17,-1
 608 580 l 1,18,-1
 601 486 l 1,19,-1
 330 486 l 1,20,-1
 329 310 l 2,21,22
 329 188 329 188 361 143 c 128,-1,23
 393 98 393 98 463 98 c 0,24,25
 534 98 534 98 600 146 c 2,26,-1
 622 163 l 1,27,-1
 641 119 l 1,28,29
 595 53 595 53 527.5 14.5 c 128,-1,30
 460 -24 460 -24 386 -24 c 0,0,1
EndSplineSet
Colour: ffffff
EndChar

StartChar: tcaron
Encoding: 357 357 181
Width: 640
VWidth: 0
Flags: HMW
LayerCount: 2
Fore
SplineSet
734 800 m 0,0,1
 734 853 734 853 702 888.5 c 128,-1,2
 670 924 670 924 622 924 c 0,3,4
 607 924 607 924 593 921 c 1,5,6
 585 945 585 945 585 977.5 c 128,-1,7
 585 1010 585 1010 617.5 1039 c 128,-1,8
 650 1068 650 1068 702.5 1068 c 128,-1,9
 755 1068 755 1068 803.5 1014 c 128,-1,10
 852 960 852 960 852 869 c 0,11,12
 852 778 852 778 812 715 c 0,13,14
 739 600 739 600 572 552 c 1,15,-1
 554 610 l 1,16,17
 734 669 734 669 734 800 c 0,0,1
380 -24 m 0,18,19
 187 -24 187 -24 189 251 c 2,20,-1
 193 771 l 1,21,-1
 66 771 l 1,22,-1
 66 811 l 1,23,24
 201 872 201 872 280 1068 c 1,25,-1
 327 1068 l 1,26,-1
 327 840 l 1,27,-1
 610 840 l 1,28,-1
 602 768 l 1,29,-1
 326 768 l 1,30,-1
 323 310 l 2,31,32
 323 188 323 188 355 143 c 128,-1,33
 387 98 387 98 457 98 c 0,34,35
 528 98 528 98 594 146 c 2,36,-1
 616 163 l 1,37,-1
 635 119 l 1,38,39
 589 53 589 53 521.5 14.5 c 128,-1,40
 454 -24 454 -24 380 -24 c 0,18,19
EndSplineSet
Colour: ffffff
EndChar

StartChar: thorn
Encoding: 254 254 182
Width: 961
VWidth: 0
Flags: HMW
LayerCount: 2
Fore
SplineSet
595 898 m 128,-1,1
 736 898 736 898 820.5 785.5 c 128,-1,2
 905 673 905 673 905 465 c 128,-1,3
 905 257 905 257 785.5 120 c 128,-1,4
 666 -17 666 -17 483 -17 c 0,5,6
 425 -17 425 -17 377 -4 c 1,7,-1
 373 82 l 1,8,9
 424 66 424 66 501 66 c 0,10,11
 627 66 627 66 693.5 162 c 128,-1,12
 760 258 760 258 760 425 c 128,-1,13
 760 592 760 592 704.5 692 c 128,-1,14
 649 792 649 792 537 792 c 0,15,16
 475 792 475 792 425 760.5 c 128,-1,17
 375 729 375 729 326 678 c 1,18,-1
 326 -283 l 1,19,-1
 482 -309 l 1,20,-1
 472 -370 l 1,21,-1
 39 -370 l 1,22,-1
 45 -311 l 1,23,-1
 197 -282 l 1,24,-1
 194 1154 l 1,25,-1
 44 1196 l 1,26,-1
 52 1250 l 1,27,-1
 313 1270 l 1,28,-1
 329 1254 l 1,29,-1
 329 849 l 1,30,-1
 317 740 l 1,31,-1
 326 740 l 1,32,0
 454 898 454 898 595 898 c 128,-1,1
EndSplineSet
Colour: ffffff
EndChar

StartChar: three
Encoding: 51 51 183
Width: 959
VWidth: 0
Flags: HMW
LayerCount: 2
Fore
SplineSet
614 929 m 0,0,1
 614 1011 614 1011 566.5 1074 c 128,-1,2
 519 1137 519 1137 426 1137 c 128,-1,3
 333 1137 333 1137 263 1057 c 1,4,-1
 220 833 l 1,5,-1
 156 844 l 1,6,-1
 149 1092 l 1,7,8
 195 1136 195 1136 284.5 1173.5 c 128,-1,9
 374 1211 374 1211 492.5 1211 c 128,-1,10
 611 1211 611 1211 696 1142 c 128,-1,11
 781 1073 781 1073 781 959 c 0,12,13
 782 797 782 797 606 689 c 0,14,15
 560 661 560 661 512 643 c 1,16,-1
 512 633 l 1,17,18
 651 613 651 613 739 537 c 128,-1,19
 827 461 827 461 827 350 c 128,-1,20
 827 239 827 239 765 151.5 c 128,-1,21
 703 64 703 64 602 15.5 c 128,-1,22
 501 -33 501 -33 393 -33 c 128,-1,23
 285 -33 285 -33 201 3.5 c 128,-1,24
 117 40 117 40 88 90 c 1,25,-1
 133 353 l 1,26,-1
 200 342 l 1,27,-1
 210 138 l 1,28,29
 233 98 233 98 287.5 67 c 128,-1,30
 342 36 342 36 405 36 c 0,31,32
 520 36 520 36 590.5 105.5 c 128,-1,33
 661 175 661 175 661 290.5 c 128,-1,34
 661 406 661 406 566 479 c 128,-1,35
 471 552 471 552 325 555 c 1,36,-1
 319 605 l 1,37,38
 614 735 614 735 614 929 c 0,0,1
EndSplineSet
Substitution2: "'sups' Superscript lookup 0 subtable" three.superior
Colour: ffffff
EndChar

StartChar: three.osf
Encoding: 65544 -1 184
Width: 717
VWidth: 0
Flags: HMW
LayerCount: 2
Fore
SplineSet
-17 -135 m 0,0,1
 -17 -97 -17 -97 15.5 -62.5 c 128,-1,2
 48 -28 48 -28 96 -24 c 1,3,4
 111 -106 111 -106 158 -163 c 128,-1,5
 205 -220 205 -220 283 -220 c 0,6,7
 399 -220 399 -220 458 -149 c 128,-1,8
 517 -78 517 -78 517 34.5 c 128,-1,9
 517 147 517 147 429.5 223.5 c 128,-1,10
 342 300 342 300 199 305 c 1,11,-1
 194 355 l 1,12,13
 296 394 296 394 358 449 c 0,14,15
 472 551 472 551 472 676 c 0,16,17
 472 760 472 760 434.5 817.5 c 128,-1,18
 397 875 397 875 318 875 c 0,19,20
 182 875 182 875 115 686 c 1,21,-1
 48 708 l 1,22,23
 73 809 73 809 162 894 c 128,-1,24
 251 979 251 979 367.5 979 c 128,-1,25
 484 979 484 979 554.5 906 c 128,-1,26
 625 833 625 833 625 722 c 0,27,28
 625 564 625 564 461 442 c 0,29,30
 420 412 420 412 380 394 c 1,31,-1
 380 386 l 1,32,33
 493 376 493 376 579.5 286 c 128,-1,34
 666 196 666 196 666 88.5 c 128,-1,35
 666 -19 666 -19 611 -104.5 c 128,-1,36
 556 -190 556 -190 461 -242.5 c 128,-1,37
 366 -295 366 -295 255 -295 c 128,-1,38
 144 -295 144 -295 63.5 -248.5 c 128,-1,39
 -17 -202 -17 -202 -17 -135 c 0,0,1
EndSplineSet
Colour: ffffff
EndChar

StartChar: threequarters
Encoding: 190 190 185
Width: 1737
VWidth: 0
Flags: HMW
LayerCount: 2
Fore
SplineSet
952 274 m 1,0,-1
 952 532 l 1,1,-1
 748 274 l 1,2,-1
 952 274 l 1,0,-1
1080 425 m 2,3,-1
 1080 274 l 1,4,-1
 1228 274 l 1,5,-1
 1219 188 l 1,6,-1
 1080 188 l 1,7,-1
 1080 74 l 1,8,-1
 1199 55 l 1,9,-1
 1193 -0 l 1,10,-1
 799 -0 l 1,11,-1
 804 50 l 1,12,-1
 954 76 l 1,13,-1
 954 192 l 1,14,-1
 652 192 l 1,15,-1
 642 250 l 1,16,-1
 1038 730 l 1,17,-1
 1088 721 l 1,18,19
 1080 626 1080 626 1080 425 c 2,3,-1
189 -26 m 1,20,-1
 566 588 l 1,21,-1
 919 1211 l 1,22,-1
 1056 1207 l 1,23,-1
 1053 1190 l 1,24,-1
 687 591 l 1,25,-1
 340 -40 l 1,26,-1
 189 -26 l 1,20,-1
226 576 m 0,27,28
 280 576 280 576 322 617.5 c 128,-1,29
 364 659 364 659 364 724.5 c 128,-1,30
 364 790 364 790 297 832 c 128,-1,31
 230 874 230 874 140 876 c 1,32,-1
 132 915 l 1,33,34
 236 956 236 956 279 998.5 c 128,-1,35
 322 1041 322 1041 322 1090 c 128,-1,36
 322 1139 322 1139 293.5 1176.5 c 128,-1,37
 265 1214 265 1214 205.5 1214 c 128,-1,38
 146 1214 146 1214 122 1188 c 1,39,-1
 94 1046 l 1,40,-1
 32 1052 l 1,41,-1
 28 1208 l 1,42,43
 54 1239 54 1239 120 1262.5 c 128,-1,44
 186 1286 186 1286 268.5 1286 c 128,-1,45
 351 1286 351 1286 410.5 1242 c 128,-1,46
 470 1198 470 1198 470 1126.5 c 128,-1,47
 470 1055 470 1055 419.5 1008 c 128,-1,48
 369 961 369 961 292 937 c 1,49,-1
 292 930 l 1,50,51
 395 918 395 918 452.5 867.5 c 128,-1,52
 510 817 510 817 510 730 c 128,-1,53
 510 643 510 643 416.5 575.5 c 128,-1,54
 323 508 323 508 198 508 c 0,55,56
 125 508 125 508 68.5 532 c 128,-1,57
 12 556 12 556 -8 595 c 1,58,-1
 26 766 l 1,59,-1
 85 759 l 1,60,-1
 91 632 l 1,61,62
 128 576 128 576 226 576 c 0,27,28
EndSplineSet
Colour: ffffff
EndChar

StartChar: three.superior
Encoding: 179 179 186
Width: 650
VWidth: 0
Flags: HMW
LayerCount: 2
Fore
SplineSet
290 579 m 0,0,1
 344 579 344 579 385.5 620 c 128,-1,2
 427 661 427 661 427 726.5 c 128,-1,3
 427 792 427 792 360.5 834 c 128,-1,4
 294 876 294 876 204 878 c 1,5,-1
 196 918 l 1,6,7
 293 956 293 956 339.5 997 c 128,-1,8
 386 1038 386 1038 386 1089.5 c 128,-1,9
 386 1141 386 1141 357 1179 c 128,-1,10
 328 1217 328 1217 269.5 1217 c 128,-1,11
 211 1217 211 1217 186 1190 c 1,12,-1
 158 1049 l 1,13,-1
 95 1055 l 1,14,-1
 91 1210 l 1,15,16
 117 1241 117 1241 183 1264.5 c 128,-1,17
 249 1288 249 1288 331.5 1288 c 128,-1,18
 414 1288 414 1288 473.5 1244.5 c 128,-1,19
 533 1201 533 1201 533 1129.5 c 128,-1,20
 533 1058 533 1058 482.5 1011 c 128,-1,21
 432 964 432 964 355 940 c 1,22,-1
 355 933 l 1,23,24
 458 921 458 921 516 870.5 c 128,-1,25
 574 820 574 820 574 733 c 128,-1,26
 574 646 574 646 480.5 578.5 c 128,-1,27
 387 511 387 511 262 511 c 0,28,29
 189 511 189 511 132.5 535 c 128,-1,30
 76 559 76 559 56 598 c 1,31,-1
 89 768 l 1,32,-1
 148 762 l 1,33,-1
 154 634 l 1,34,35
 192 579 192 579 290 579 c 0,0,1
EndSplineSet
Colour: ffffff
EndChar

StartChar: tilde
Encoding: 732 732 187
Width: 798
VWidth: 0
Flags: HMW
LayerCount: 2
Fore
SplineSet
108 1381 m 1,0,1
 127 1447 127 1447 149 1474 c 0,2,3
 197 1533 197 1533 255 1520 c 1,4,-1
 458 1478 l 1,5,6
 502 1466 502 1466 534 1532 c 1,7,-1
 576 1530 l 1,8,9
 546 1426 546 1426 480 1396 c 0,10,11
 452 1384 452 1384 421 1391 c 2,12,-1
 220 1433 l 1,13,14
 179 1443 179 1443 141 1371 c 1,15,-1
 108 1381 l 1,0,1
EndSplineSet
Colour: ffffff
EndChar

StartChar: trademark
Encoding: 8482 8482 188
Width: 1138
VWidth: 0
Flags: HMW
LayerCount: 2
Fore
SplineSet
352 1197 m 1,0,-1
 352 741 l 1,1,-1
 434 728 l 1,2,-1
 428 684 l 1,3,-1
 180 684 l 1,4,-1
 183 725 l 1,5,-1
 260 743 l 1,6,-1
 260 1197 l 1,7,-1
 121 1197 l 1,8,-1
 101 1084 l 1,9,-1
 49 1089 l 1,10,-1
 45 1244 l 1,11,-1
 577 1244 l 1,12,-1
 562 1083 l 1,13,-1
 509 1088 l 1,14,-1
 497 1197 l 1,15,-1
 352 1197 l 1,0,-1
580 684 m 1,16,-1
 584 723 l 1,17,-1
 659 741 l 1,18,-1
 694 1187 l 1,19,-1
 611 1204 l 1,20,-1
 615 1244 l 1,21,-1
 817 1244 l 1,22,-1
 850 1158 l 1,23,-1
 961 824 l 1,24,-1
 1095 1175 l 1,25,-1
 1125 1244 l 1,26,-1
 1322 1244 l 1,27,-1
 1318 1204 l 1,28,-1
 1242 1188 l 1,29,-1
 1266 738 l 1,30,-1
 1347 726 l 1,31,-1
 1345 684 l 1,32,-1
 1100 684 l 1,33,-1
 1104 723 l 1,34,-1
 1180 741 l 1,35,-1
 1154 1168 l 1,36,-1
 985 710 l 1,37,-1
 915 704 l 1,38,-1
 751 1156 l 1,39,-1
 719 738 l 1,40,-1
 801 726 l 1,41,-1
 796 684 l 1,42,-1
 580 684 l 1,16,-1
EndSplineSet
Colour: ffffff
EndChar

StartChar: two
Encoding: 50 50 189
Width: 959
VWidth: 0
Flags: HMW
LayerCount: 2
Back
SplineSet
874.37 0 m 5,0,-1
 96.7002 0 l 1,1,-1
 90.5918 103.824 l 1,2,-1
 330.815 312.493 l 2,3,4
 394.941 367.459 394.941 367.459 435.658 405.121 c 128,-1,5
 476.374 442.783 476.374 442.783 529.813 500.803 c 128,-1,6
 583.252 558.821 583.252 558.821 613.789 606.663 c 128,-1,7
 644.326 654.505 644.326 654.505 666.72 715.069 c 128,-1,8
 689.114 775.633 689.114 775.633 689.112 835.689 c 0,9,10
 689.113 1093.23 689.113 1093.23 480.445 1092.2 c 0,11,12
 313.51 1092.2 313.51 1092.2 211.722 833.654 c 1,13,-1
 128.255 864.191 l 1,14,15
 143.522 929.336 143.522 929.336 180.676 993.972 c 128,-1,16
 217.828 1058.6 217.828 1058.6 270.25 1111.54 c 128,-1,17
 322.672 1164.47 322.672 1164.47 393.924 1197.55 c 128,-1,18
 465.177 1230.64 465.177 1230.64 541.52 1230.63 c 0,19,20
 705.398 1230.63 705.398 1230.63 789.885 1140.04 c 128,-1,21
 874.371 1049.44 874.371 1049.44 874.37 880.477 c 0,22,23
 874.37 827.547 874.37 827.547 859.102 774.617 c 128,-1,24
 843.832 721.685 843.832 721.685 821.439 676.898 c 128,-1,25
 799.042 632.105 799.042 632.105 762.402 583.252 c 128,-1,26
 725.757 534.394 725.757 534.394 692.167 498.259 c 128,-1,27
 658.576 462.122 658.576 462.122 610.735 417.337 c 128,-1,28
 562.894 372.548 562.894 372.548 529.813 345.065 c 128,-1,29
 496.729 317.583 496.729 317.583 447.872 276.867 c 128,-1,30
 399.014 236.15 399.014 236.15 376.62 216.811 c 2,31,-1
 283.992 136.397 l 1,32,-1
 763.42 136.397 l 1,33,-1
 861.137 317.583 l 1,34,-1
 931.372 307.404 l 1,35,-1
 874.37 0 l 5,0,-1
EndSplineSet
Fore
SplineSet
669 864 m 128,-1,1
 669 965 669 965 617.5 1046.5 c 128,-1,2
 566 1128 566 1128 455 1128 c 0,3,4
 380 1128 380 1128 326.5 1097 c 128,-1,5
 273 1066 273 1066 249 1021 c 1,6,-1
 208 780 l 1,7,-1
 151 788 l 1,8,-1
 141 1057 l 1,9,10
 184 1115 184 1115 288 1162 c 128,-1,11
 392 1209 392 1209 501 1209 c 0,12,13
 659 1209 659 1209 751 1120 c 128,-1,14
 843 1031 843 1031 843 860 c 0,15,16
 843 776 843 776 820.5 722.5 c 128,-1,17
 798 669 798 669 782.5 637.5 c 128,-1,18
 767 606 767 606 736.5 567.5 c 128,-1,19
 706 529 706 529 684 502 c 0,20,21
 662 476 662 476 621 436 c 0,22,23
 521 342 521 342 320 180 c 1,24,-1
 241 118 l 1,25,-1
 740 118 l 1,26,-1
 835 361 l 1,27,-1
 890 353 l 1,28,-1
 843 0 l 1,29,-1
 76 0 l 1,30,-1
 70 74 l 1,31,-1
 308 278 l 2,32,33
 490 432 490 432 574 552 c 0,34,35
 624 622 624 622 646.5 692.5 c 128,-1,0
 669 763 669 763 669 864 c 128,-1,1
EndSplineSet
Substitution2: "'sups' Superscript lookup 0 subtable" two.superior
Colour: ffffff
EndChar

StartChar: two.osf
Encoding: 65545 -1 190
Width: 803
VWidth: 0
Flags: HMW
LayerCount: 2
Fore
SplineSet
537 668 m 0,0,1
 537 770 537 770 493.5 826 c 128,-1,2
 450 882 450 882 375.5 882 c 128,-1,3
 301 882 301 882 236.5 817.5 c 128,-1,4
 172 753 172 753 146 662 c 1,5,-1
 81 686 l 1,6,7
 99 786 99 786 196.5 882 c 128,-1,8
 294 978 294 978 424.5 979.5 c 128,-1,9
 555 981 555 981 627.5 903.5 c 128,-1,10
 700 826 700 826 700 699 c 0,11,12
 700 512 700 512 483 326 c 0,13,14
 398 253 398 253 306 181 c 2,15,-1
 223 116 l 1,16,-1
 636 116 l 1,17,-1
 714 295 l 1,18,-1
 769 287 l 1,19,-1
 723 0 l 1,20,-1
 60 0 l 1,21,-1
 54 74 l 1,22,-1
 301 278 l 2,23,24
 537 472 537 472 537 668 c 0,0,1
EndSplineSet
Colour: ffffff
EndChar

StartChar: two.superior
Encoding: 178 178 191
Width: 631
VWidth: 0
Flags: HMW
LayerCount: 2
Fore
SplineSet
405 1038 m 0,0,1
 406 1194 406 1194 272 1194 c 0,2,3
 198 1194 198 1194 167 1154 c 1,4,-1
 143 1014 l 1,5,-1
 88 1019 l 1,6,-1
 83 1184 l 1,7,8
 110 1224 110 1224 179.5 1249 c 128,-1,9
 249 1274 249 1274 342 1274 c 128,-1,10
 435 1274 435 1274 496.5 1223 c 128,-1,11
 558 1172 558 1172 558 1084.5 c 128,-1,12
 558 997 558 997 524 948 c 0,13,14
 466 864 466 864 391 802 c 128,-1,15
 316 740 316 740 226 675 c 1,16,-1
 191 652 l 1,17,-1
 484 652 l 1,18,-1
 546 802 l 1,19,-1
 592 790 l 1,20,-1
 572 548 l 1,21,-1
 44 548 l 1,22,-1
 46 626 l 1,23,-1
 200 750 l 2,24,25
 308 838 308 838 356.5 904 c 128,-1,26
 405 970 405 970 405 1038 c 0,0,1
EndSplineSet
Colour: ffffff
EndChar

StartChar: u
Encoding: 117 117 192
Width: 1013
VWidth: 0
Flags: HMW
LayerCount: 2
Fore
SplineSet
199 275 m 2,0,-1
 199 757 l 1,1,-1
 54 800 l 1,2,-1
 62 853 l 1,3,-1
 311 874 l 1,4,-1
 327 857 l 1,5,-1
 327 317 l 2,6,7
 327 86 327 86 499 86 c 0,8,9
 614 86 614 86 705 187 c 1,10,-1
 705 754 l 1,11,-1
 548 790 l 1,12,-1
 554 850 l 1,13,-1
 820 874 l 1,14,-1
 834 857 l 1,15,-1
 834 223 l 2,16,17
 834 148 834 148 855 114.5 c 128,-1,18
 876 81 876 81 933 70 c 1,19,-1
 987 58 l 1,20,-1
 980 -1 l 1,21,22
 912 -21 912 -21 850.5 -21 c 128,-1,23
 789 -21 789 -21 753 19 c 128,-1,24
 717 59 717 59 717 120 c 2,25,-1
 717 132 l 1,26,-1
 705 132 l 1,27,28
 600 -24 600 -24 427 -24 c 0,29,30
 199 -24 199 -24 199 275 c 2,0,-1
EndSplineSet
Colour: ffffff
EndChar

StartChar: underscore
Encoding: 95 95 193
Width: 869
VWidth: 0
Flags: HMW
LayerCount: 2
Fore
SplineSet
14 -133 m 1,0,-1
 26 -47 l 1,1,-1
 854 -47 l 1,2,-1
 844 -133 l 1,3,-1
 14 -133 l 1,0,-1
EndSplineSet
Colour: ffffff
EndChar

StartChar: uniF001
Encoding: 61441 61441 194
Width: 1171
VWidth: 0
Flags: HMW
LayerCount: 2
Fore
SplineSet
829 1193 m 128,-1,1
 829 1242 829 1242 854 1270 c 128,-1,2
 879 1298 879 1298 919.5 1298 c 128,-1,3
 960 1298 960 1298 986.5 1269 c 128,-1,4
 1013 1240 1013 1240 1013 1191.5 c 128,-1,5
 1013 1143 1013 1143 987 1112 c 128,-1,6
 961 1081 961 1081 919.5 1081 c 128,-1,7
 878 1081 878 1081 853.5 1112.5 c 128,-1,0
 829 1144 829 1144 829 1193 c 128,-1,1
697 0 m 1,8,-1
 710 55 l 1,9,-1
 860 87 l 1,10,-1
 860 760 l 1,11,-1
 708 801 l 1,12,-1
 716 853 l 1,13,-1
 975 875 l 1,14,-1
 991 857 l 1,15,-1
 991 87 l 1,16,-1
 1152 57 l 1,17,-1
 1140 0 l 1,18,-1
 697 0 l 1,8,-1
234 779 m 1,19,-1
 85 779 l 1,20,-1
 97 833 l 1,21,-1
 235 855 l 1,22,23
 249 1084 249 1084 355.5 1194.5 c 128,-1,24
 462 1305 462 1305 578 1305 c 0,25,26
 657 1305 657 1305 704.5 1274 c 128,-1,27
 752 1243 752 1243 752 1202 c 0,28,29
 752 1127 752 1127 683 1099 c 1,30,31
 608 1220 608 1220 513 1220 c 0,32,33
 451 1220 451 1220 410.5 1160 c 128,-1,34
 370 1100 370 1100 369 981 c 2,35,-1
 368 849 l 1,36,-1
 626 849 l 1,37,-1
 613 779 l 1,38,-1
 368 779 l 1,39,-1
 368 91 l 1,40,-1
 614 61 l 1,41,-1
 607 0 l 1,42,-1
 70 0 l 1,43,-1
 82 51 l 1,44,-1
 234 87 l 1,45,-1
 234 779 l 1,19,-1
EndSplineSet
Colour: ffffff
EndChar

StartChar: uniF002
Encoding: 61442 61442 195
Width: 1154
VWidth: 0
Flags: HMW
LayerCount: 2
Fore
SplineSet
234 779 m 1,0,-1
 85 779 l 1,1,-1
 97 833 l 1,2,-1
 235 855 l 1,3,4
 238 1108 238 1108 367 1237 c 0,5,6
 434 1304 434 1304 505 1304 c 0,7,8
 640 1304 640 1304 640 1220 c 0,9,10
 640 1163 640 1163 583 1136 c 1,11,12
 560 1169 560 1169 522.5 1191.5 c 128,-1,13
 485 1214 485 1214 447 1214 c 128,-1,14
 409 1214 409 1214 387 1144 c 128,-1,15
 365 1074 365 1074 367 965 c 1,16,-1
 368 849 l 1,17,-1
 626 849 l 1,18,-1
 613 779 l 1,19,-1
 368 779 l 1,20,-1
 368 91 l 1,21,-1
 614 61 l 1,22,-1
 607 0 l 1,23,-1
 70 0 l 1,24,-1
 82 51 l 1,25,-1
 234 87 l 1,26,-1
 234 779 l 1,0,-1
681 0 m 1,27,-1
 692 55 l 1,28,-1
 845 87 l 1,29,-1
 845 1156 l 1,30,-1
 689 1197 l 1,31,-1
 696 1249 l 1,32,-1
 958 1270 l 1,33,-1
 975 1254 l 1,34,-1
 975 87 l 1,35,-1
 1135 57 l 1,36,-1
 1124 0 l 1,37,-1
 681 0 l 1,27,-1
EndSplineSet
Colour: ffffff
EndChar

StartChar: v
Encoding: 118 118 196
Width: 921
VWidth: 0
Flags: HMW
LayerCount: 2
Fore
SplineSet
30 806 m 1,0,-1
 37 861 l 1,1,-1
 443 861 l 1,2,-1
 438 808 l 1,3,-1
 292 771 l 1,4,-1
 501 161 l 1,5,-1
 713 769 l 1,6,-1
 553 806 l 1,7,-1
 564 861 l 1,8,-1
 923 861 l 1,9,-1
 914 808 l 1,10,-1
 805 771 l 1,11,-1
 524 -11 l 1,12,-1
 434 -26 l 1,13,-1
 152 769 l 1,14,-1
 30 806 l 1,0,-1
EndSplineSet
Colour: ffffff
EndChar

StartChar: w
Encoding: 119 119 197
Width: 1237
VWidth: 0
Flags: HMW
LayerCount: 2
Fore
SplineSet
22 808 m 1,0,-1
 29 863 l 1,1,-1
 412 863 l 1,2,-1
 405 809 l 1,3,-1
 270 777 l 1,4,-1
 391 360 l 1,5,-1
 428 203 l 1,6,-1
 591 798 l 1,7,-1
 705 817 l 1,8,-1
 843 345 l 1,9,-1
 875 193 l 1,10,-1
 1036 775 l 1,11,-1
 885 808 l 1,12,-1
 892 863 l 1,13,-1
 1248 863 l 1,14,-1
 1240 809 l 1,15,-1
 1132 777 l 1,16,-1
 910 -9 l 1,17,-1
 825 -25 l 1,18,-1
 634 630 l 1,19,-1
 462 -9 l 1,20,-1
 375 -25 l 1,21,-1
 138 775 l 1,22,-1
 22 808 l 1,0,-1
EndSplineSet
Colour: ffffff
EndChar

StartChar: wacute
Encoding: 7811 7811 198
Width: 1237
VWidth: 0
Flags: HMW
LayerCount: 2
Fore
SplineSet
590 1020 m 1,0,-1
 718 1350 l 1,1,-1
 821 1311 l 1,2,-1
 639 990 l 1,3,-1
 590 1020 l 1,0,-1
22 808 m 1,4,-1
 29 863 l 1,5,-1
 412 863 l 1,6,-1
 405 809 l 1,7,-1
 270 777 l 1,8,-1
 391 360 l 1,9,-1
 428 203 l 1,10,-1
 591 798 l 1,11,-1
 705 817 l 1,12,-1
 843 345 l 1,13,-1
 875 193 l 1,14,-1
 1036 775 l 1,15,-1
 885 808 l 1,16,-1
 892 863 l 1,17,-1
 1248 863 l 1,18,-1
 1240 809 l 1,19,-1
 1132 777 l 1,20,-1
 910 -9 l 1,21,-1
 825 -25 l 1,22,-1
 634 630 l 1,23,-1
 462 -9 l 1,24,-1
 375 -25 l 1,25,-1
 138 775 l 1,26,-1
 22 808 l 1,4,-1
EndSplineSet
Colour: ffffff
EndChar

StartChar: wgrave
Encoding: 7809 7809 199
Width: 1237
VWidth: 0
Flags: HMW
LayerCount: 2
Fore
SplineSet
453 1319 m 1,0,-1
 557 1356 l 1,1,-1
 690 1021 l 1,2,-1
 639 990 l 1,3,-1
 453 1319 l 1,0,-1
22 808 m 1,4,-1
 29 863 l 1,5,-1
 412 863 l 1,6,-1
 405 809 l 1,7,-1
 270 777 l 1,8,-1
 391 360 l 1,9,-1
 428 203 l 1,10,-1
 591 798 l 1,11,-1
 705 817 l 1,12,-1
 843 345 l 1,13,-1
 875 193 l 1,14,-1
 1036 775 l 1,15,-1
 885 808 l 1,16,-1
 892 863 l 1,17,-1
 1248 863 l 1,18,-1
 1240 809 l 1,19,-1
 1132 777 l 1,20,-1
 910 -9 l 1,21,-1
 825 -25 l 1,22,-1
 634 630 l 1,23,-1
 462 -9 l 1,24,-1
 375 -25 l 1,25,-1
 138 775 l 1,26,-1
 22 808 l 1,4,-1
EndSplineSet
Colour: ffffff
EndChar

StartChar: x
Encoding: 120 120 200
Width: 934
VWidth: 0
Flags: HMW
LayerCount: 2
Fore
SplineSet
17 0 m 1,0,-1
 26 52 l 1,1,-1
 134 86 l 1,2,-1
 400 431 l 1,3,-1
 154 783 l 1,4,-1
 36 815 l 1,5,-1
 43 870 l 1,6,-1
 437 870 l 1,7,-1
 427 817 l 1,8,-1
 312 785 l 1,9,-1
 496 527 l 1,10,-1
 693 781 l 1,11,-1
 555 815 l 1,12,-1
 567 870 l 1,13,-1
 916 870 l 1,14,-1
 905 816 l 1,15,-1
 801 783 l 1,16,-1
 550 459 l 1,17,-1
 812 84 l 1,18,-1
 926 52 l 1,19,-1
 918 0 l 1,20,-1
 513 0 l 1,21,-1
 525 51 l 1,22,-1
 652 84 l 1,23,-1
 456 362 l 1,24,-1
 244 86 l 1,25,-1
 386 54 l 1,26,-1
 377 0 l 1,27,-1
 17 0 l 1,0,-1
EndSplineSet
Colour: ffffff
EndChar

StartChar: y
Encoding: 121 121 201
Width: 936
VWidth: 0
Flags: HMW
LayerCount: 2
Fore
SplineSet
30 -266.5 m 128,-1,1
 30 -215 30 -215 75 -176 c 1,2,3
 144 -229 144 -229 233 -229 c 0,4,5
 344 -229 344 -229 415 -49 c 1,6,-1
 438 12 l 1,7,-1
 160 772 l 1,8,-1
 36 805 l 1,9,-1
 45 861 l 1,10,-1
 428 861 l 1,11,-1
 422 808 l 1,12,-1
 295 775 l 1,13,-1
 510 195 l 1,14,-1
 740 771 l 1,15,-1
 610 806 l 1,16,-1
 621 861 l 1,17,-1
 938 861 l 1,18,-1
 933 808 l 1,19,-1
 832 772 l 1,20,-1
 502 -53 l 2,21,22
 430 -233 430 -233 359 -306 c 128,-1,23
 288 -379 288 -379 175 -379 c 0,24,25
 113 -379 113 -379 71.5 -348.5 c 128,-1,0
 30 -318 30 -318 30 -266.5 c 128,-1,1
EndSplineSet
Colour: ffffff
EndChar

StartChar: yacute
Encoding: 253 253 202
Width: 936
VWidth: 0
Flags: HMW
LayerCount: 2
Fore
SplineSet
443 1020 m 1,0,-1
 571 1350 l 1,1,-1
 674 1311 l 1,2,-1
 492 990 l 1,3,-1
 443 1020 l 1,0,-1
30 -266.5 m 128,-1,5
 30 -215 30 -215 75 -176 c 1,6,7
 144 -229 144 -229 233 -229 c 0,8,9
 344 -229 344 -229 415 -49 c 1,10,-1
 438 12 l 1,11,-1
 160 772 l 1,12,-1
 36 805 l 1,13,-1
 45 861 l 1,14,-1
 428 861 l 1,15,-1
 422 808 l 1,16,-1
 295 775 l 1,17,-1
 510 195 l 1,18,-1
 740 771 l 1,19,-1
 610 806 l 1,20,-1
 621 861 l 1,21,-1
 938 861 l 1,22,-1
 933 808 l 1,23,-1
 832 772 l 1,24,-1
 502 -53 l 2,25,26
 430 -233 430 -233 359 -306 c 128,-1,27
 288 -379 288 -379 175 -379 c 0,28,29
 113 -379 113 -379 71.5 -348.5 c 128,-1,4
 30 -318 30 -318 30 -266.5 c 128,-1,5
EndSplineSet
Colour: ffffff
EndChar

StartChar: ycircumflex
Encoding: 375 375 203
Width: 936
VWidth: 0
Flags: HMW
LayerCount: 2
Fore
SplineSet
307 1020 m 1,0,-1
 475 1200 l 1,1,-1
 530 1214 l 1,2,-1
 708 1028 l 1,3,-1
 668 991 l 1,4,-1
 495 1113 l 1,5,-1
 486 1113 l 1,6,-1
 337 990 l 1,7,-1
 307 1020 l 1,0,-1
30 -266.5 m 128,-1,9
 30 -215 30 -215 75 -176 c 1,10,11
 144 -229 144 -229 233 -229 c 0,12,13
 344 -229 344 -229 415 -49 c 1,14,-1
 438 12 l 1,15,-1
 160 772 l 1,16,-1
 36 805 l 1,17,-1
 45 861 l 1,18,-1
 428 861 l 1,19,-1
 422 808 l 1,20,-1
 295 775 l 1,21,-1
 510 195 l 1,22,-1
 740 771 l 1,23,-1
 610 806 l 1,24,-1
 621 861 l 1,25,-1
 938 861 l 1,26,-1
 933 808 l 1,27,-1
 832 772 l 1,28,-1
 502 -53 l 2,29,30
 430 -233 430 -233 359 -306 c 128,-1,31
 288 -379 288 -379 175 -379 c 0,32,33
 113 -379 113 -379 71.5 -348.5 c 128,-1,8
 30 -318 30 -318 30 -266.5 c 128,-1,9
EndSplineSet
Colour: ffffff
EndChar

StartChar: ydieresis
Encoding: 255 255 204
Width: 936
VWidth: 0
Flags: HMW
LayerCount: 2
Fore
SplineSet
554 1071.5 m 128,-1,1
 554 1108 554 1108 573 1128.5 c 128,-1,2
 592 1149 592 1149 623.5 1149 c 128,-1,3
 655 1149 655 1149 675.5 1128.5 c 128,-1,4
 696 1108 696 1108 696 1071 c 128,-1,5
 696 1034 696 1034 676 1012 c 128,-1,6
 656 990 656 990 623.5 990 c 128,-1,7
 591 990 591 990 572.5 1012.5 c 128,-1,0
 554 1035 554 1035 554 1071.5 c 128,-1,1
286 1071.5 m 128,-1,9
 286 1108 286 1108 305 1128.5 c 128,-1,10
 324 1149 324 1149 355.5 1149 c 128,-1,11
 387 1149 387 1149 407 1128.5 c 128,-1,12
 427 1108 427 1108 427 1071 c 128,-1,13
 427 1034 427 1034 407.5 1012 c 128,-1,14
 388 990 388 990 356 990 c 128,-1,15
 324 990 324 990 305 1012.5 c 128,-1,8
 286 1035 286 1035 286 1071.5 c 128,-1,9
30 -266.5 m 128,-1,17
 30 -215 30 -215 75 -176 c 1,18,19
 144 -229 144 -229 233 -229 c 0,20,21
 344 -229 344 -229 415 -49 c 1,22,-1
 438 12 l 1,23,-1
 160 772 l 1,24,-1
 36 805 l 1,25,-1
 45 861 l 1,26,-1
 428 861 l 1,27,-1
 422 808 l 1,28,-1
 295 775 l 1,29,-1
 510 195 l 1,30,-1
 740 771 l 1,31,-1
 610 806 l 1,32,-1
 621 861 l 1,33,-1
 938 861 l 1,34,-1
 933 808 l 1,35,-1
 832 772 l 1,36,-1
 502 -53 l 2,37,38
 430 -233 430 -233 359 -306 c 128,-1,39
 288 -379 288 -379 175 -379 c 0,40,41
 113 -379 113 -379 71.5 -348.5 c 128,-1,16
 30 -318 30 -318 30 -266.5 c 128,-1,17
EndSplineSet
Colour: ffffff
EndChar

StartChar: yen
Encoding: 165 165 205
Width: 1151
VWidth: 0
Flags: HMW
LayerCount: 2
Fore
SplineSet
655 505 m 1,0,-1
 655 338 l 1,1,-1
 1001 338 l 1,2,-1
 990 265 l 1,3,-1
 655 265 l 1,4,-1
 655 90 l 1,5,-1
 829 62 l 1,6,-1
 820 0 l 1,7,-1
 339 0 l 1,8,-1
 347 56 l 1,9,-1
 509 96 l 1,10,-1
 509 265 l 1,11,-1
 183 265 l 1,12,-1
 194 338 l 1,13,-1
 509 338 l 1,14,-1
 509 505 l 1,15,-1
 186 505 l 1,16,-1
 197 578 l 1,17,-1
 490 578 l 1,18,-1
 227 1152 l 1,19,-1
 90 1188 l 1,20,-1
 98 1244 l 1,21,-1
 537 1244 l 1,22,-1
 529 1188 l 1,23,-1
 379 1156 l 1,24,-1
 618 638 l 1,25,-1
 845 1151 l 1,26,-1
 674 1188 l 1,27,-1
 680 1244 l 1,28,-1
 1074 1244 l 1,29,-1
 1067 1188 l 1,30,-1
 941 1155 l 1,31,-1
 674 578 l 1,32,-1
 1004 578 l 1,33,-1
 993 505 l 1,34,-1
 655 505 l 1,0,-1
EndSplineSet
Colour: ffffff
EndChar

StartChar: z
Encoding: 122 122 206
Width: 858
VWidth: 0
Flags: HMW
LayerCount: 2
Fore
SplineSet
96 63 m 1,0,-1
 612 788 l 1,1,-1
 227 788 l 1,2,-1
 171 583 l 1,3,-1
 115 592 l 1,4,-1
 125 861 l 1,5,-1
 772 861 l 1,6,-1
 774 809 l 1,7,-1
 251 78 l 1,8,-1
 664 78 l 1,9,-1
 739 275 l 1,10,-1
 790 269 l 1,11,-1
 760 0 l 1,12,-1
 100 0 l 1,13,-1
 96 63 l 1,0,-1
EndSplineSet
Colour: ffffff
EndChar

StartChar: zero
Encoding: 48 48 207
Width: 984
VWidth: 0
Flags: HMW
LayerCount: 2
Fore
SplineSet
511 1125 m 0,0,1
 273 1125 273 1125 273 586.5 c 128,-1,2
 273 48 273 48 515 48 c 0,3,4
 633 48 633 48 687 180.5 c 128,-1,5
 741 313 741 313 741 587 c 0,6,7
 741 1125 741 1125 511 1125 c 0,0,1
224.5 1043.5 m 128,-1,9
 344 1203 344 1203 521.5 1203 c 128,-1,10
 699 1203 699 1203 804.5 1045 c 128,-1,11
 910 887 910 887 910 587 c 0,12,13
 910 220 910 220 738 62 c 0,14,15
 641 -28 641 -28 513 -27 c 0,16,17
 336 -27 336 -27 220.5 114.5 c 128,-1,18
 105 256 105 256 105 570 c 128,-1,8
 105 884 105 884 224.5 1043.5 c 128,-1,9
EndSplineSet
Substitution2: "'sups' Superscript lookup 0 subtable" zero.superior
Colour: ffffff
EndChar

StartChar: zero.osf
Encoding: 65546 -1 208
Width: 987
VWidth: 0
Flags: HMW
LayerCount: 2
Fore
SplineSet
516 908 m 0,0,1
 286 908 286 908 286 479 c 0,2,3
 286 261 286 261 347.5 155.5 c 128,-1,4
 409 50 409 50 517 50 c 128,-1,5
 625 50 625 50 686 153 c 128,-1,6
 747 256 747 256 747 474 c 128,-1,7
 747 692 747 692 687.5 800 c 128,-1,8
 628 908 628 908 516 908 c 0,0,1
128 475 m 0,9,10
 128 602 128 602 175 716 c 128,-1,11
 222 830 222 830 312.5 903 c 128,-1,12
 403 976 403 976 520 976 c 0,13,14
 636 976 636 976 726 909 c 0,15,16
 906 775 906 775 906 481 c 0,17,18
 906 249 906 249 789 112 c 0,19,20
 672 -24 672 -24 511.5 -24 c 128,-1,21
 351 -24 351 -24 239.5 112 c 128,-1,22
 128 248 128 248 128 475 c 0,9,10
EndSplineSet
Colour: ffffff
EndChar

StartChar: Euro.osf
Encoding: 65547 -1 209
Width: 1117
VWidth: 0
Flags: HMW
LayerCount: 2
Fore
SplineSet
568 -24 m 0,0,1
 396 -24 396 -24 285.5 75.5 c 128,-1,2
 175 175 175 175 148 350 c 1,3,-1
 9 350 l 1,4,-1
 18 432 l 1,5,-1
 140 432 l 1,6,7
 140 445 140 445 140 465.5 c 128,-1,8
 140 486 140 486 142 513 c 1,9,-1
 13 513 l 1,10,-1
 19 595 l 1,11,-1
 154 595 l 1,12,13
 189 762 189 762 304 873 c 128,-1,14
 419 984 419 984 577 984 c 128,-1,15
 735 984 735 984 852 898 c 1,16,-1
 822 606 l 1,17,-1
 755 616 l 1,18,-1
 719 830 l 1,19,20
 644 905 644 905 545 905 c 128,-1,21
 446 905 446 905 386.5 825 c 128,-1,22
 327 745 327 745 312 595 c 1,23,-1
 647 595 l 1,24,-1
 630 513 l 1,25,-1
 307 513 l 1,26,27
 306 470 306 470 309 432 c 1,28,-1
 611 432 l 1,29,-1
 594 350 l 1,30,-1
 317 350 l 1,31,32
 363 62 363 62 598 62 c 0,33,34
 681 62 681 62 735 132 c 1,35,-1
 767 344 l 1,36,-1
 834 353 l 1,37,-1
 865 83 l 1,38,39
 792 24 792 24 728 0 c 128,-1,40
 664 -24 664 -24 568 -24 c 0,0,1
EndSplineSet
Colour: ffffff
EndChar

StartChar: ampersand.osf
Encoding: 65548 -1 210
Width: 1282
VWidth: 0
Flags: HMW
LayerCount: 2
Fore
SplineSet
308 236 m 0,0,1
 308 167 308 167 348.5 120 c 128,-1,2
 389 73 389 73 453 73 c 0,3,4
 563 73 563 73 649 168 c 1,5,-1
 431 437 l 1,6,7
 308 342 308 342 308 236 c 0,0,1
157 201 m 0,8,9
 157 333 157 333 316 447 c 0,10,11
 341 465 341 465 385 494 c 1,12,13
 316 579 316 579 285.5 633.5 c 128,-1,14
 255 688 255 688 255 747 c 0,15,16
 255 836 255 836 330.5 908.5 c 128,-1,17
 406 981 406 981 507.5 981 c 128,-1,18
 609 981 609 981 670.5 927 c 128,-1,19
 732 873 732 873 731 785 c 128,-1,20
 730 697 730 697 676 634.5 c 128,-1,21
 622 572 622 572 541 515 c 1,22,-1
 729 282 l 1,23,24
 780 369 780 369 839 509 c 1,25,-1
 706 545 l 1,26,-1
 712 595 l 1,27,-1
 1095 595 l 1,28,-1
 1087 545 l 1,29,-1
 932 512 l 1,30,31
 916 480 916 480 866.5 381.5 c 128,-1,32
 817 283 817 283 780 222 c 1,33,34
 848 147 848 147 902 114.5 c 128,-1,35
 956 82 956 82 1020 64 c 1,36,-1
 1061 53 l 1,37,-1
 1050 -1 l 1,38,39
 999 -19 999 -19 940.5 -19 c 128,-1,40
 882 -19 882 -19 816.5 14.5 c 128,-1,41
 751 48 751 48 698 108 c 1,42,43
 582 -20 582 -20 402 -20 c 0,44,45
 284 -20 284 -20 220.5 43.5 c 128,-1,46
 157 107 157 107 157 201 c 0,8,9
612 763 m 0,47,48
 612 830 612 830 577 871 c 128,-1,49
 542 912 542 912 491 912 c 128,-1,50
 440 912 440 912 410 876 c 128,-1,51
 380 840 380 840 380 789.5 c 128,-1,52
 380 739 380 739 408.5 689.5 c 128,-1,53
 437 640 437 640 495 570 c 1,54,55
 612 661 612 661 612 763 c 0,47,48
EndSplineSet
Colour: ffffff
EndChar

StartChar: dollar.osf
Encoding: 65549 -1 211
Width: 860
VWidth: 0
Flags: HMW
LayerCount: 2
Fore
SplineSet
177 270 m 1,0,1
 226 40 226 40 372 40 c 0,2,3
 444 40 444 40 486.5 77 c 128,-1,4
 529 114 529 114 529 158 c 128,-1,5
 529 202 529 202 506 234 c 128,-1,6
 483 266 483 266 445.5 292 c 128,-1,7
 408 318 408 318 363 345 c 0,8,9
 254 411 254 411 181 477 c 128,-1,10
 108 543 108 543 108 656 c 128,-1,11
 108 769 108 769 206 845 c 0,12,13
 258 885 258 885 331 896 c 1,14,-1
 318 1042 l 1,15,-1
 438 1059 l 1,16,-1
 425 898 l 1,17,18
 509 888 509 888 562 840.5 c 128,-1,19
 615 793 615 793 615 732 c 0,20,21
 615 617 615 617 510 608 c 1,22,-1
 502 648 l 1,23,24
 478 754 478 754 438.5 795 c 128,-1,25
 399 836 399 836 342 836 c 128,-1,26
 285 836 285 836 249.5 802 c 128,-1,27
 214 768 214 768 214 719 c 128,-1,28
 214 670 214 670 238 632.5 c 128,-1,29
 262 595 262 595 300 566.5 c 128,-1,30
 338 538 338 538 384 510 c 0,31,32
 504 438 504 438 561 390 c 0,33,34
 647 316 647 316 647 222.5 c 128,-1,35
 647 129 647 129 583.5 62.5 c 128,-1,36
 520 -4 520 -4 426 -26 c 1,37,-1
 438 -179 l 1,38,-1
 310 -197 l 1,39,-1
 323 -34 l 1,40,41
 213 -28 213 -28 142 27 c 128,-1,42
 71 82 71 82 71 160 c 0,43,44
 71 205 71 205 101 235 c 128,-1,45
 131 265 131 265 177 270 c 1,0,1
EndSplineSet
Colour: ffffff
EndChar

StartChar: paragraph.osf
Encoding: 65550 -1 212
Width: 1335
VWidth: 0
Flags: HMW
LayerCount: 2
Fore
SplineSet
940 -1 m 1,0,-1
 940 975 l 1,1,-1
 1242 975 l 1,2,-1
 1235 917 l 1,3,-1
 1062 887 l 1,4,-1
 1062 89 l 1,5,-1
 1248 63 l 1,6,-1
 1239 -1 l 1,7,-1
 940 -1 l 1,0,-1
673 901 m 0,8,9
 409 900 409 900 409 666 c 0,10,11
 409 421 409 421 688 417 c 1,12,-1
 671 341 l 1,13,14
 420 340 420 340 322 432 c 0,15,16
 245 504 245 504 245 656 c 0,17,18
 245 741 245 741 305.5 818.5 c 128,-1,19
 366 896 366 896 462 935 c 128,-1,20
 558 974 558 974 670 974 c 2,21,-1
 871 974 l 1,22,-1
 871 0 l 1,23,-1
 507 0 l 1,24,-1
 514 58 l 1,25,-1
 742 97 l 1,26,-1
 743 899 l 1,27,28
 706 901 706 901 673 901 c 0,8,9
EndSplineSet
Colour: ffffff
EndChar

StartChar: percent.osf
Encoding: 65551 -1 213
Width: 1468
VWidth: 0
Flags: HMW
LayerCount: 2
Fore
SplineSet
732 209.5 m 128,-1,1
 732 143 732 143 762 80.5 c 128,-1,2
 792 18 792 18 836 18 c 128,-1,3
 880 18 880 18 906 49 c 0,4,5
 952 106 952 106 952 224 c 0,6,7
 952 340 952 340 901 404 c 0,8,9
 875 436 875 436 838.5 436.5 c 128,-1,10
 802 437 802 437 776.5 402.5 c 128,-1,11
 751 368 751 368 741.5 322 c 128,-1,0
 732 276 732 276 732 209.5 c 128,-1,1
611 217.5 m 128,-1,13
 611 328 611 328 681 404.5 c 128,-1,14
 751 481 751 481 846 481 c 128,-1,15
 941 481 941 481 1006 407.5 c 128,-1,16
 1071 334 1071 334 1071 225 c 128,-1,17
 1071 116 1071 116 999.5 41 c 128,-1,18
 928 -34 928 -34 837.5 -34 c 128,-1,19
 747 -34 747 -34 679 36.5 c 128,-1,12
 611 107 611 107 611 217.5 c 128,-1,13
483 712 m 0,20,21
 483 606 483 606 410.5 530 c 128,-1,22
 338 454 338 454 247 454 c 128,-1,23
 156 454 156 454 90 525 c 128,-1,24
 24 596 24 596 24 707 c 128,-1,25
 24 818 24 818 93.5 894 c 128,-1,26
 163 970 163 970 252 970 c 0,27,28
 276 970 276 970 287 967 c 1,29,-1
 287 913 l 1,30,31
 266 925 266 925 239 925 c 128,-1,32
 212 925 212 925 177.5 877.5 c 128,-1,33
 143 830 143 830 143 731 c 128,-1,34
 143 632 143 632 172 569 c 128,-1,35
 201 506 201 506 254 506 c 128,-1,36
 307 506 307 506 335 567 c 128,-1,37
 363 628 363 628 363 734.5 c 128,-1,38
 363 841 363 841 319 957 c 1,39,-1
 842 969 l 1,40,-1
 969 965 l 1,41,-1
 968 951 l 1,42,-1
 602 467 l 1,43,-1
 266 -33 l 1,44,-1
 125 -21 l 1,45,-1
 492 464 l 1,46,-1
 797 904 l 1,47,-1
 424 911 l 1,48,49
 449 884 449 884 466 818 c 128,-1,50
 483 752 483 752 483 712 c 0,20,21
EndSplineSet
Colour: ffffff
EndChar

StartChar: perthousand.osf
Encoding: 65552 -1 214
Width: 1708
VWidth: 0
Flags: HMW
LayerCount: 2
Fore
SplineSet
1391 435 m 0,0,1
 1276 436 1276 436 1276 210 c 0,2,3
 1276 144 1276 144 1305.5 81.5 c 128,-1,4
 1335 19 1335 19 1388 19 c 128,-1,5
 1441 19 1441 19 1468.5 79 c 128,-1,6
 1496 139 1496 139 1496 223 c 128,-1,7
 1496 307 1496 307 1466 371 c 128,-1,8
 1436 435 1436 435 1391 435 c 0,0,1
1154 217.5 m 128,-1,10
 1154 328 1154 328 1224 403.5 c 128,-1,11
 1294 479 1294 479 1389.5 479 c 128,-1,12
 1485 479 1485 479 1549.5 406 c 128,-1,13
 1614 333 1614 333 1614 224.5 c 128,-1,14
 1614 116 1614 116 1542.5 41.5 c 128,-1,15
 1471 -33 1471 -33 1380.5 -33 c 128,-1,16
 1290 -33 1290 -33 1222 37 c 128,-1,9
 1154 107 1154 107 1154 217.5 c 128,-1,10
732 209.5 m 128,-1,18
 732 143 732 143 762 80.5 c 128,-1,19
 792 18 792 18 836 18 c 128,-1,20
 880 18 880 18 906 49 c 0,21,22
 952 106 952 106 952 224 c 0,23,24
 952 340 952 340 901 404 c 0,25,26
 875 436 875 436 838.5 436.5 c 128,-1,27
 802 437 802 437 776.5 402.5 c 128,-1,28
 751 368 751 368 741.5 322 c 128,-1,17
 732 276 732 276 732 209.5 c 128,-1,18
611 217.5 m 128,-1,30
 611 328 611 328 681 404.5 c 128,-1,31
 751 481 751 481 846 481 c 128,-1,32
 941 481 941 481 1006 407.5 c 128,-1,33
 1071 334 1071 334 1071 225 c 128,-1,34
 1071 116 1071 116 999.5 41 c 128,-1,35
 928 -34 928 -34 837.5 -34 c 128,-1,36
 747 -34 747 -34 679 36.5 c 128,-1,29
 611 107 611 107 611 217.5 c 128,-1,30
483 712 m 0,37,38
 483 606 483 606 410.5 530 c 128,-1,39
 338 454 338 454 247 454 c 128,-1,40
 156 454 156 454 90 525 c 128,-1,41
 24 596 24 596 24 707 c 128,-1,42
 24 818 24 818 93.5 894 c 128,-1,43
 163 970 163 970 252 970 c 0,44,45
 276 970 276 970 287 967 c 1,46,-1
 287 913 l 1,47,48
 266 925 266 925 239 925 c 128,-1,49
 212 925 212 925 177.5 877.5 c 128,-1,50
 143 830 143 830 143 731 c 128,-1,51
 143 632 143 632 172 569 c 128,-1,52
 201 506 201 506 254 506 c 128,-1,53
 307 506 307 506 335 567 c 128,-1,54
 363 628 363 628 363 734.5 c 128,-1,55
 363 841 363 841 319 957 c 1,56,-1
 842 969 l 1,57,-1
 969 965 l 1,58,-1
 968 950 l 1,59,-1
 602 467 l 1,60,-1
 266 -33 l 1,61,-1
 125 -21 l 1,62,-1
 492 464 l 1,63,-1
 797 904 l 1,64,-1
 424 911 l 1,65,66
 449 884 449 884 466 818 c 128,-1,67
 483 752 483 752 483 712 c 0,37,38
EndSplineSet
Colour: ffffff
EndChar

StartChar: sterling.osf
Encoding: 65553 -1 215
Width: 1284
VWidth: 0
Flags: HMW
LayerCount: 2
Fore
SplineSet
494 554 m 2,0,-1
 494 496 l 1,1,-1
 752 510 l 1,2,-1
 742 435 l 1,3,-1
 492 418 l 1,4,-1
 492 375 l 2,5,6
 492 159 492 159 429 78 c 1,7,-1
 849 78 l 1,8,-1
 948 316 l 1,9,-1
 1009 301 l 1,10,-1
 982 0 l 1,11,-1
 126 0 l 1,12,-1
 132 58 l 1,13,-1
 301 92 l 1,14,15
 340 175 340 175 340 320 c 2,16,-1
 340 413 l 1,17,-1
 163 403 l 1,18,-1
 174 478 l 1,19,-1
 345 488 l 1,20,-1
 347 606 l 2,21,22
 350 774 350 774 435 878 c 128,-1,23
 520 982 520 982 683 982 c 0,24,25
 776 982 776 982 853.5 938.5 c 128,-1,26
 931 895 931 895 931 842 c 128,-1,27
 931 789 931 789 896 758.5 c 128,-1,28
 861 728 861 728 809 718 c 1,29,30
 781 913 781 913 665 913 c 0,31,32
 579 913 579 913 536.5 859 c 128,-1,33
 494 805 494 805 494 554 c 2,0,-1
EndSplineSet
Colour: ffffff
EndChar

StartChar: uni1E9E.alt
Encoding: 65554 -1 216
Width: 1284
VWidth: 0
Flags: HMW
LayerCount: 2
Fore
SplineSet
295 727 m 2,0,1
 295 1002 295 1002 413.5 1138 c 128,-1,2
 532 1274 532 1274 779 1274 c 0,3,4
 1070 1274 1070 1274 1204 1235 c 1,5,-1
 1205 1184 l 1,6,-1
 878 751 l 1,7,8
 902 737 902 737 960 706.5 c 128,-1,9
 1018 676 1018 676 1056 655 c 0,10,11
 1166 594 1166 594 1235 514 c 128,-1,12
 1304 434 1304 434 1304 323 c 0,13,14
 1304 166 1304 166 1190.5 70.5 c 128,-1,15
 1077 -25 1077 -25 895 -25 c 0,16,17
 789 -25 789 -25 698.5 16.5 c 128,-1,18
 608 58 608 58 562 123 c 1,19,-1
 583 400 l 1,20,-1
 659 389 l 1,21,-1
 692 185 l 1,22,23
 723 129 723 129 790 93 c 128,-1,24
 857 57 857 57 943.5 57 c 128,-1,25
 1030 57 1030 57 1093 112 c 128,-1,26
 1156 167 1156 167 1156 267 c 0,27,28
 1156 426 1156 426 896 568 c 0,29,30
 856 590 856 590 794.5 621 c 128,-1,31
 733 652 733 652 709 666 c 1,32,-1
 687 711 l 1,33,-1
 1019 1159 l 1,34,-1
 1019 1163 l 1,35,36
 984 1177 984 1177 888 1190 c 128,-1,37
 792 1203 792 1203 725 1203 c 128,-1,38
 658 1203 658 1203 599 1170 c 0,39,40
 442 1082 442 1082 442 750 c 2,41,-1
 442 0 l 1,42,-1
 119 0 l 1,43,-1
 126 58 l 1,44,-1
 295 97 l 1,45,-1
 295 727 l 2,0,1
EndSplineSet
Colour: ffffff
EndChar

StartChar: uni1E9E.alt2
Encoding: 65555 -1 217
Width: 1164
VWidth: 830
Flags: HMW
LayerCount: 2
Fore
SplineSet
734 1274 m 0,0,1
 1056 1274 1056 1274 1170 1168 c 1,2,-1
 1144 871 l 1,3,-1
 1071 880 l 1,4,-1
 1045 1093 l 1,5,6
 971 1169 971 1169 881.5 1169 c 128,-1,7
 792 1169 792 1169 735.5 1089 c 128,-1,8
 679 1009 679 1009 704 908 c 0,9,10
 730 807 730 807 844 729 c 0,11,12
 894 695 894 695 950 663 c 0,13,14
 1096 581 1096 581 1160 526 c 0,15,16
 1258 442 1258 442 1258.5 300.5 c 128,-1,17
 1259 159 1259 159 1146 67 c 128,-1,18
 1033 -25 1033 -25 850 -25 c 0,19,20
 742 -25 742 -25 651.5 15 c 128,-1,21
 561 55 561 55 516 120 c 1,22,-1
 538 396 l 1,23,-1
 614 385 l 1,24,-1
 646 181 l 1,25,26
 677 126 677 126 744 91.5 c 128,-1,27
 811 57 811 57 900 57 c 128,-1,28
 989 57 989 57 1050 109.5 c 128,-1,29
 1111 162 1111 162 1111 260.5 c 128,-1,30
 1111 359 1111 359 1024.5 427 c 128,-1,31
 938 495 938 495 859 534 c 0,32,33
 724 601 724 601 639 682.5 c 128,-1,34
 554 764 554 764 554 881.5 c 128,-1,35
 554 999 554 999 616 1085.5 c 128,-1,36
 678 1172 678 1172 782 1196 c 1,37,-1
 784 1199 l 1,38,39
 738 1203 738 1203 696 1203 c 0,40,41
 549 1203 549 1203 473 1094.5 c 128,-1,42
 397 986 397 986 397 788 c 2,43,-1
 397 0 l 1,44,-1
 74 0 l 1,45,-1
 81 58 l 1,46,-1
 249 97 l 1,47,-1
 249 765 l 2,48,49
 249 1274 249 1274 734 1274 c 0,0,1
EndSplineSet
Colour: ffffff
EndChar

StartChar: yen.osf
Encoding: 65556 -1 218
Width: 1188
VWidth: 0
Flags: HMW
LayerCount: 2
Back
SplineSet
308.823 988.986 m 1,0,-1
 312.385 619.112 l 1,1,-1
 640.555 608.162 l 1,2,-1
 635.495 561.104 l 1,3,-1
 316.667 543.293 l 1,4,-1
 441.343 284.767 l 1,5,-1
 659.284 579.399 l 1,6,-1
 573.78 944.801 l 1,7,-1
 489.579 965.668 l 1,8,-1
 706.622 986.062 l 1,9,-1
 827.568 988.986 l 1,10,-1
 747.664 970.665 l 1,11,-1
 596.507 657.663 l 1,12,-1
 826.042 657.663 l 1,13,-1
 819.425 627.635 l 1,14,-1
 596.507 627.635 l 1,15,-1
 596.507 470.879 l 1,16,-1
 711.528 457.646 l 1,17,-1
 705.93 428.637 l 1,18,-1
 416.849 428.637 l 1,19,-1
 420.411 454.592 l 1,20,-1
 530.344 473.933 l 1,21,-1
 530.344 627.635 l 1,22,-1
 315.568 627.635 l 1,23,-1
 321.675 657.663 l 1,24,-1
 530.344 657.663 l 1,25,-1
 385.294 969.138 l 1,26,-1
 308.823 988.986 l 1,0,-1
EndSplineSet
Fore
SplineSet
692 306 m 1,0,-1
 692 90 l 1,1,-1
 866 62 l 1,2,-1
 856 0 l 1,3,-1
 376 0 l 1,4,-1
 383 56 l 1,5,-1
 546 96 l 1,6,-1
 546 306 l 1,7,-1
 221 306 l 1,8,-1
 232 379 l 1,9,-1
 532 379 l 1,10,-1
 466 525 l 1,11,-1
 221 525 l 1,12,-1
 232 597 l 1,13,-1
 433 597 l 1,14,-1
 309 869 l 1,15,-1
 170 906 l 1,16,-1
 180 961 l 1,17,-1
 597 961 l 1,18,-1
 590 906 l 1,19,-1
 460 873 l 1,20,-1
 651 434 l 1,21,-1
 841 869 l 1,22,-1
 694 906 l 1,23,-1
 700 961 l 1,24,-1
 1069 961 l 1,25,-1
 1062 906 l 1,26,-1
 937 872 l 1,27,-1
 808 597 l 1,28,-1
 1039 597 l 1,29,-1
 1028 525 l 1,30,-1
 774 525 l 1,31,-1
 706 379 l 1,32,-1
 1039 379 l 1,33,-1
 1028 306 l 1,34,-1
 692 306 l 1,0,-1
EndSplineSet
Colour: ffffff
EndChar

StartChar: Agrave
Encoding: 192 192 219
Width: 1324
VWidth: 0
Flags: HMW
LayerCount: 2
Fore
SplineSet
482 1701 m 1,0,-1
 586 1738 l 1,1,-1
 719 1403 l 1,2,-1
 668 1372 l 1,3,-1
 482 1701 l 1,0,-1
453 534 m 1,4,-1
 826 534 l 1,5,-1
 646 1060 l 1,6,-1
 453 534 l 1,4,-1
35 0 m 1,7,-1
 43 58 l 1,8,-1
 188 101 l 1,9,-1
 626 1246 l 1,10,-1
 728 1268 l 1,11,-1
 1130 95 l 1,12,-1
 1265 64 l 1,13,-1
 1257 0 l 1,14,-1
 795 0 l 1,15,-1
 805 58 l 1,16,-1
 974 101 l 1,17,-1
 850 455 l 1,18,-1
 425 455 l 1,19,-1
 294 95 l 1,20,-1
 479 63 l 1,21,-1
 469 0 l 1,22,-1
 35 0 l 1,7,-1
EndSplineSet
Colour: ffffff
EndChar

StartChar: Aacute
Encoding: 193 193 220
Width: 1324
VWidth: 0
Flags: HMW
LayerCount: 2
Fore
SplineSet
638 1402 m 1,0,-1
 766 1732 l 1,1,-1
 869 1693 l 1,2,-1
 687 1372 l 1,3,-1
 638 1402 l 1,0,-1
453 534 m 1,4,-1
 826 534 l 1,5,-1
 646 1060 l 1,6,-1
 453 534 l 1,4,-1
35 0 m 1,7,-1
 43 58 l 1,8,-1
 188 101 l 1,9,-1
 626 1246 l 1,10,-1
 728 1268 l 1,11,-1
 1130 95 l 1,12,-1
 1265 64 l 1,13,-1
 1257 0 l 1,14,-1
 795 0 l 1,15,-1
 805 58 l 1,16,-1
 974 101 l 1,17,-1
 850 455 l 1,18,-1
 425 455 l 1,19,-1
 294 95 l 1,20,-1
 479 63 l 1,21,-1
 469 0 l 1,22,-1
 35 0 l 1,7,-1
EndSplineSet
Colour: ffffff
EndChar

StartChar: Acircumflex
Encoding: 194 194 221
Width: 1324
VWidth: 0
Flags: HMW
LayerCount: 2
Fore
SplineSet
479 1402 m 1,0,-1
 647 1582 l 1,1,-1
 702 1596 l 1,2,-1
 880 1410 l 1,3,-1
 840 1373 l 1,4,-1
 667 1495 l 1,5,-1
 658 1495 l 1,6,-1
 509 1372 l 1,7,-1
 479 1402 l 1,0,-1
453 534 m 1,8,-1
 826 534 l 1,9,-1
 646 1060 l 1,10,-1
 453 534 l 1,8,-1
35 0 m 1,11,-1
 43 58 l 1,12,-1
 188 101 l 1,13,-1
 626 1246 l 1,14,-1
 728 1268 l 1,15,-1
 1130 95 l 1,16,-1
 1265 64 l 1,17,-1
 1257 0 l 1,18,-1
 795 0 l 1,19,-1
 805 58 l 1,20,-1
 974 101 l 1,21,-1
 850 455 l 1,22,-1
 425 455 l 1,23,-1
 294 95 l 1,24,-1
 479 63 l 1,25,-1
 469 0 l 1,26,-1
 35 0 l 1,11,-1
EndSplineSet
Colour: ffffff
EndChar

StartChar: Atilde
Encoding: 195 195 222
Width: 1324
VWidth: 0
Flags: HMW
LayerCount: 2
Fore
SplineSet
454 1382 m 1,0,1
 473 1448 473 1448 495 1475 c 0,2,3
 543 1534 543 1534 601 1521 c 1,4,-1
 804 1479 l 1,5,6
 848 1467 848 1467 880 1533 c 1,7,-1
 922 1531 l 1,8,9
 892 1428 892 1428 826 1398 c 0,10,11
 798 1386 798 1386 767 1392 c 2,12,-1
 566 1434 l 1,13,14
 525 1444 525 1444 487 1372 c 1,15,-1
 454 1382 l 1,0,1
453 534 m 1,16,-1
 826 534 l 1,17,-1
 646 1060 l 1,18,-1
 453 534 l 1,16,-1
35 0 m 1,19,-1
 43 58 l 1,20,-1
 188 101 l 1,21,-1
 626 1246 l 1,22,-1
 728 1268 l 1,23,-1
 1130 95 l 1,24,-1
 1265 64 l 1,25,-1
 1257 0 l 1,26,-1
 795 0 l 1,27,-1
 805 58 l 1,28,-1
 974 101 l 1,29,-1
 850 455 l 1,30,-1
 425 455 l 1,31,-1
 294 95 l 1,32,-1
 479 63 l 1,33,-1
 469 0 l 1,34,-1
 35 0 l 1,19,-1
EndSplineSet
Colour: ffffff
EndChar

StartChar: Adieresis
Encoding: 196 196 223
Width: 1324
VWidth: 0
Flags: HMW
LayerCount: 2
Fore
SplineSet
743 1454.5 m 128,-1,1
 743 1491 743 1491 762 1511.5 c 128,-1,2
 781 1532 781 1532 812.5 1532 c 128,-1,3
 844 1532 844 1532 864.5 1511.5 c 128,-1,4
 885 1491 885 1491 885 1454 c 128,-1,5
 885 1417 885 1417 865 1395 c 128,-1,6
 845 1373 845 1373 812.5 1373 c 128,-1,7
 780 1373 780 1373 761.5 1395.5 c 128,-1,0
 743 1418 743 1418 743 1454.5 c 128,-1,1
475 1454.5 m 128,-1,9
 475 1491 475 1491 494 1511.5 c 128,-1,10
 513 1532 513 1532 544.5 1532 c 128,-1,11
 576 1532 576 1532 596 1511.5 c 128,-1,12
 616 1491 616 1491 616 1454 c 128,-1,13
 616 1417 616 1417 596.5 1395 c 128,-1,14
 577 1373 577 1373 545 1373 c 128,-1,15
 513 1373 513 1373 494 1395.5 c 128,-1,8
 475 1418 475 1418 475 1454.5 c 128,-1,9
453 534 m 1,16,-1
 826 534 l 1,17,-1
 646 1060 l 1,18,-1
 453 534 l 1,16,-1
35 0 m 1,19,-1
 43 58 l 1,20,-1
 188 101 l 1,21,-1
 626 1246 l 1,22,-1
 728 1268 l 1,23,-1
 1130 95 l 1,24,-1
 1265 64 l 1,25,-1
 1257 0 l 1,26,-1
 795 0 l 1,27,-1
 805 58 l 1,28,-1
 974 101 l 1,29,-1
 850 455 l 1,30,-1
 425 455 l 1,31,-1
 294 95 l 1,32,-1
 479 63 l 1,33,-1
 469 0 l 1,34,-1
 35 0 l 1,19,-1
EndSplineSet
Colour: ffffff
EndChar

StartChar: Aring
Encoding: 197 197 224
Width: 1324
VWidth: 0
Flags: HMW
LayerCount: 2
Fore
SplineSet
575 1541.5 m 128,-1,1
 575 1492 575 1492 601.5 1451 c 128,-1,2
 628 1410 628 1410 672 1410 c 128,-1,3
 716 1410 716 1410 740 1440.5 c 128,-1,4
 764 1471 764 1471 764 1525 c 128,-1,5
 764 1579 764 1579 736.5 1619 c 128,-1,6
 709 1659 709 1659 664.5 1659 c 128,-1,7
 620 1659 620 1659 597.5 1625 c 128,-1,0
 575 1591 575 1591 575 1541.5 c 128,-1,1
508 1528 m 128,-1,9
 508 1601 508 1601 556.5 1652 c 128,-1,10
 605 1703 605 1703 675.5 1703 c 128,-1,11
 746 1703 746 1703 789 1657.5 c 128,-1,12
 832 1612 832 1612 832 1541 c 128,-1,13
 832 1470 832 1470 784.5 1417.5 c 128,-1,14
 737 1365 737 1365 665 1365 c 128,-1,15
 593 1365 593 1365 550.5 1410 c 128,-1,8
 508 1455 508 1455 508 1528 c 128,-1,9
453 534 m 1,16,-1
 826 534 l 1,17,-1
 646 1060 l 1,18,-1
 453 534 l 1,16,-1
35 0 m 1,19,-1
 43 58 l 1,20,-1
 188 101 l 1,21,-1
 626 1246 l 1,22,-1
 728 1268 l 1,23,-1
 1130 95 l 1,24,-1
 1265 64 l 1,25,-1
 1257 0 l 1,26,-1
 795 0 l 1,27,-1
 805 58 l 1,28,-1
 974 101 l 1,29,-1
 850 455 l 1,30,-1
 425 455 l 1,31,-1
 294 95 l 1,32,-1
 479 63 l 1,33,-1
 469 0 l 1,34,-1
 35 0 l 1,19,-1
EndSplineSet
Colour: ffffff
EndChar

StartChar: Ccedilla
Encoding: 199 199 225
Width: 1113
VWidth: 0
Flags: HMW
LayerCount: 2
Fore
SplineSet
614 -268.5 m 128,-1,1
 614 -251 614 -251 610 -238.5 c 128,-1,2
 606 -226 606 -226 602 -218 c 128,-1,3
 598 -210 598 -210 586.5 -196.5 c 128,-1,4
 575 -183 575 -183 571.5 -179 c 128,-1,5
 568 -175 568 -175 552 -160 c 128,-1,6
 536 -145 536 -145 534 -143 c 1,7,-1
 617 -24 l 1,8,9
 398 -9 398 -9 253 156.5 c 128,-1,10
 108 322 108 322 108 599 c 0,11,12
 108 793 108 793 206 973.5 c 128,-1,13
 304 1154 304 1154 488 1228 c 0,14,15
 590 1270 590 1270 711 1270 c 0,16,17
 932 1270 932 1270 1062 1171 c 1,18,-1
 1031 836 l 1,19,-1
 963 846 l 1,20,-1
 927 1086 l 1,21,22
 843 1195 843 1195 669.5 1195 c 128,-1,23
 496 1195 496 1195 383.5 1043 c 128,-1,24
 271 891 271 891 271 637 c 128,-1,25
 271 383 271 383 397.5 233.5 c 128,-1,26
 524 84 524 84 727 84 c 0,27,28
 827 84 827 84 920 132 c 128,-1,29
 1013 180 1013 180 1084 252 c 1,30,-1
 1113 195 l 1,31,32
 1057 120 1057 120 976 71 c 0,33,34
 828 -18 828 -18 684 -24 c 1,35,-1
 638 -91 l 1,36,37
 727 -170 727 -170 727 -242 c 0,38,39
 727 -345 727 -345 527 -405 c 1,40,-1
 511 -354 l 1,41,42
 554 -339 554 -339 584 -312.5 c 128,-1,0
 614 -286 614 -286 614 -268.5 c 128,-1,1
EndSplineSet
Colour: ffffff
EndChar

StartChar: Egrave
Encoding: 200 200 226
Width: 1107
VWidth: 0
Flags: HMW
LayerCount: 2
Fore
SplineSet
423 1701 m 1,0,-1
 527 1738 l 1,1,-1
 660 1403 l 1,2,-1
 609 1372 l 1,3,-1
 423 1701 l 1,0,-1
413 1173 m 1,4,-1
 413 668 l 1,5,-1
 728 668 l 1,6,-1
 768 797 l 1,7,-1
 840 808 l 1,8,-1
 807 419 l 1,9,-1
 741 408 l 1,10,-1
 716 594 l 1,11,-1
 413 594 l 1,12,-1
 413 75 l 1,13,-1
 942 75 l 1,14,-1
 1028 324 l 1,15,-1
 1090 313 l 1,16,-1
 1060 0 l 1,17,-1
 90 0 l 1,18,-1
 96 58 l 1,19,-1
 265 96 l 1,20,-1
 265 1151 l 1,21,-1
 84 1185 l 1,22,-1
 93 1244 l 1,23,-1
 1044 1244 l 1,24,-1
 1013 925 l 1,25,-1
 946 934 l 1,26,-1
 916 1173 l 1,27,-1
 413 1173 l 1,4,-1
EndSplineSet
Colour: ffffff
EndChar

StartChar: Eacute
Encoding: 201 201 227
Width: 1107
VWidth: 0
Flags: HMW
LayerCount: 2
Fore
SplineSet
520 1402 m 1,0,-1
 648 1732 l 1,1,-1
 751 1693 l 1,2,-1
 569 1372 l 1,3,-1
 520 1402 l 1,0,-1
413 1173 m 1,4,-1
 413 668 l 1,5,-1
 728 668 l 1,6,-1
 768 797 l 1,7,-1
 840 808 l 1,8,-1
 807 419 l 1,9,-1
 741 408 l 1,10,-1
 716 594 l 1,11,-1
 413 594 l 1,12,-1
 413 75 l 1,13,-1
 942 75 l 1,14,-1
 1028 324 l 1,15,-1
 1090 313 l 1,16,-1
 1060 0 l 1,17,-1
 90 0 l 1,18,-1
 96 58 l 1,19,-1
 265 96 l 1,20,-1
 265 1151 l 1,21,-1
 84 1185 l 1,22,-1
 93 1244 l 1,23,-1
 1044 1244 l 1,24,-1
 1013 925 l 1,25,-1
 946 934 l 1,26,-1
 916 1173 l 1,27,-1
 413 1173 l 1,4,-1
EndSplineSet
Colour: ffffff
EndChar

StartChar: Edieresis
Encoding: 203 203 228
Width: 1107
VWidth: 0
Flags: HMW
LayerCount: 2
Fore
SplineSet
680 1454.5 m 128,-1,1
 680 1491 680 1491 699 1511.5 c 128,-1,2
 718 1532 718 1532 749.5 1532 c 128,-1,3
 781 1532 781 1532 801.5 1511.5 c 128,-1,4
 822 1491 822 1491 822 1454 c 128,-1,5
 822 1417 822 1417 802 1395 c 128,-1,6
 782 1373 782 1373 749.5 1373 c 128,-1,7
 717 1373 717 1373 698.5 1395.5 c 128,-1,0
 680 1418 680 1418 680 1454.5 c 128,-1,1
412 1454.5 m 128,-1,9
 412 1491 412 1491 431 1511.5 c 128,-1,10
 450 1532 450 1532 481.5 1532 c 128,-1,11
 513 1532 513 1532 533 1511.5 c 128,-1,12
 553 1491 553 1491 553 1454 c 128,-1,13
 553 1417 553 1417 533.5 1395 c 128,-1,14
 514 1373 514 1373 482 1373 c 128,-1,15
 450 1373 450 1373 431 1395.5 c 128,-1,8
 412 1418 412 1418 412 1454.5 c 128,-1,9
413 1173 m 1,16,-1
 413 668 l 1,17,-1
 728 668 l 1,18,-1
 768 797 l 1,19,-1
 840 808 l 1,20,-1
 807 419 l 1,21,-1
 741 408 l 1,22,-1
 716 594 l 1,23,-1
 413 594 l 1,24,-1
 413 75 l 1,25,-1
 942 75 l 1,26,-1
 1028 324 l 1,27,-1
 1090 313 l 1,28,-1
 1060 0 l 1,29,-1
 90 0 l 1,30,-1
 96 58 l 1,31,-1
 265 96 l 1,32,-1
 265 1151 l 1,33,-1
 84 1185 l 1,34,-1
 93 1244 l 1,35,-1
 1044 1244 l 1,36,-1
 1013 925 l 1,37,-1
 946 934 l 1,38,-1
 916 1173 l 1,39,-1
 413 1173 l 1,16,-1
EndSplineSet
Colour: ffffff
EndChar

StartChar: Igrave
Encoding: 204 204 229
Width: 674
VWidth: 0
Flags: HMW
LayerCount: 2
Fore
SplineSet
159 1701 m 1,0,-1
 263 1738 l 1,1,-1
 396 1403 l 1,2,-1
 345 1372 l 1,3,-1
 159 1701 l 1,0,-1
86 1187 m 1,4,-1
 94 1244 l 1,5,-1
 595 1244 l 1,6,-1
 586 1187 l 1,7,-1
 414 1156 l 1,8,-1
 414 90 l 1,9,-1
 601 63 l 1,10,-1
 591 0 l 1,11,-1
 94 0 l 1,12,-1
 101 58 l 1,13,-1
 263 96 l 1,14,-1
 263 1154 l 1,15,-1
 86 1187 l 1,4,-1
EndSplineSet
Colour: ffffff
EndChar

StartChar: Iacute
Encoding: 205 205 230
Width: 674
VWidth: 0
Flags: HMW
LayerCount: 2
Fore
SplineSet
295 1402 m 1,0,-1
 423 1732 l 1,1,-1
 526 1693 l 1,2,-1
 344 1372 l 1,3,-1
 295 1402 l 1,0,-1
86 1187 m 1,4,-1
 94 1244 l 1,5,-1
 595 1244 l 1,6,-1
 586 1187 l 1,7,-1
 414 1156 l 1,8,-1
 414 90 l 1,9,-1
 601 63 l 1,10,-1
 591 0 l 1,11,-1
 94 0 l 1,12,-1
 101 58 l 1,13,-1
 263 96 l 1,14,-1
 263 1154 l 1,15,-1
 86 1187 l 1,4,-1
EndSplineSet
Colour: ffffff
EndChar

StartChar: Icircumflex
Encoding: 206 206 231
Width: 674
VWidth: 0
Flags: HMW
LayerCount: 2
Fore
SplineSet
143 1402 m 1,0,-1
 311 1582 l 1,1,-1
 366 1596 l 1,2,-1
 544 1410 l 1,3,-1
 504 1373 l 1,4,-1
 331 1495 l 1,5,-1
 322 1495 l 1,6,-1
 173 1372 l 1,7,-1
 143 1402 l 1,0,-1
86 1187 m 1,8,-1
 94 1244 l 1,9,-1
 595 1244 l 1,10,-1
 586 1187 l 1,11,-1
 414 1156 l 1,12,-1
 414 90 l 1,13,-1
 601 63 l 1,14,-1
 591 0 l 1,15,-1
 94 0 l 1,16,-1
 101 58 l 1,17,-1
 263 96 l 1,18,-1
 263 1154 l 1,19,-1
 86 1187 l 1,8,-1
EndSplineSet
Colour: ffffff
EndChar

StartChar: Idieresis
Encoding: 207 207 232
Width: 674
VWidth: 0
Flags: HMW
LayerCount: 2
Fore
SplineSet
407 1454.5 m 128,-1,1
 407 1491 407 1491 426 1511.5 c 128,-1,2
 445 1532 445 1532 476.5 1532 c 128,-1,3
 508 1532 508 1532 528.5 1511.5 c 128,-1,4
 549 1491 549 1491 549 1454 c 128,-1,5
 549 1417 549 1417 529 1395 c 128,-1,6
 509 1373 509 1373 476.5 1373 c 128,-1,7
 444 1373 444 1373 425.5 1395.5 c 128,-1,0
 407 1418 407 1418 407 1454.5 c 128,-1,1
139 1454.5 m 128,-1,9
 139 1491 139 1491 158 1511.5 c 128,-1,10
 177 1532 177 1532 208.5 1532 c 128,-1,11
 240 1532 240 1532 260 1511.5 c 128,-1,12
 280 1491 280 1491 280 1454 c 128,-1,13
 280 1417 280 1417 260.5 1395 c 128,-1,14
 241 1373 241 1373 209 1373 c 128,-1,15
 177 1373 177 1373 158 1395.5 c 128,-1,8
 139 1418 139 1418 139 1454.5 c 128,-1,9
86 1187 m 1,16,-1
 94 1244 l 1,17,-1
 595 1244 l 1,18,-1
 586 1187 l 1,19,-1
 414 1156 l 1,20,-1
 414 90 l 1,21,-1
 601 63 l 1,22,-1
 591 0 l 1,23,-1
 94 0 l 1,24,-1
 101 58 l 1,25,-1
 263 96 l 1,26,-1
 263 1154 l 1,27,-1
 86 1187 l 1,16,-1
EndSplineSet
Colour: ffffff
EndChar

StartChar: Ntilde
Encoding: 209 209 233
Width: 1402
VWidth: 0
Flags: HMW
LayerCount: 2
Fore
SplineSet
473 1382 m 1,0,1
 492 1448 492 1448 514 1475 c 0,2,3
 562 1534 562 1534 620 1521 c 1,4,-1
 823 1479 l 1,5,6
 867 1467 867 1467 899 1533 c 1,7,-1
 941 1531 l 1,8,9
 911 1428 911 1428 845 1398 c 0,10,11
 817 1386 817 1386 786 1392 c 2,12,-1
 585 1434 l 1,13,14
 544 1444 544 1444 506 1372 c 1,15,-1
 473 1382 l 1,0,1
63 1188 m 1,16,-1
 73 1244 l 1,17,-1
 400 1244 l 1,18,-1
 1067 225 l 1,19,-1
 1067 1154 l 1,20,-1
 882 1187 l 1,21,-1
 891 1244 l 1,22,-1
 1341 1244 l 1,23,-1
 1330 1187 l 1,24,-1
 1164 1156 l 1,25,-1
 1164 -3 l 1,26,-1
 1060 -24 l 1,27,-1
 347 1047 l 1,28,-1
 347 90 l 1,29,-1
 531 63 l 1,30,-1
 521 0 l 1,31,-1
 73 0 l 1,32,-1
 79 58 l 1,33,-1
 246 96 l 1,34,-1
 246 1147 l 1,35,-1
 63 1188 l 1,16,-1
EndSplineSet
Colour: ffffff
EndChar

StartChar: Ograve
Encoding: 210 210 234
Width: 1331
VWidth: 0
Flags: HMW
LayerCount: 2
Fore
SplineSet
544 1701 m 1,0,-1
 648 1738 l 1,1,-1
 781 1403 l 1,2,-1
 730 1372 l 1,3,-1
 544 1701 l 1,0,-1
278 655 m 0,4,5
 278 551 278 551 305 440.5 c 128,-1,6
 332 330 332 330 383.5 244 c 128,-1,7
 435 158 435 158 518.5 108 c 128,-1,8
 602 58 602 58 698 58 c 128,-1,9
 794 58 794 58 864 88 c 0,10,11
 990 143 990 143 1051.5 279 c 128,-1,12
 1113 415 1113 415 1113 579.5 c 128,-1,13
 1113 744 1113 744 1066 883 c 128,-1,14
 1019 1022 1019 1022 919 1109.5 c 128,-1,15
 819 1197 819 1197 681 1197 c 0,16,17
 434 1198 434 1198 334 974 c 0,18,19
 278 848 278 848 278 655 c 0,4,5
111 627 m 128,-1,21
 111 812 111 812 185.5 960 c 128,-1,22
 260 1108 260 1108 401.5 1191 c 128,-1,23
 543 1274 543 1274 730 1274 c 0,24,25
 859 1274 859 1274 964 1223 c 128,-1,26
 1069 1172 1069 1172 1137 1084 c 0,27,28
 1279 899 1279 899 1279 624 c 0,29,30
 1279 418 1279 418 1175 248 c 0,31,32
 1008 -27 1008 -27 640 -27 c 0,33,34
 500 -27 500 -27 373 60.5 c 128,-1,35
 246 148 246 148 178.5 295 c 128,-1,20
 111 442 111 442 111 627 c 128,-1,21
EndSplineSet
Colour: ffffff
EndChar

